<?xml version="1.0" encoding="UTF-8" standalone="no"?>
<!DOCTYPE svg  PUBLIC '-//W3C//DTD SVG 1.1//EN'  'http://www.w3.org/Graphics/SVG/1.1/DTD/svg11.dtd'>
<svg xmlns="http://www.w3.org/2000/svg">
<defs>
<font id="Zawgyi-One" horiz-adv-x="0">
<font-face underline-position="-885" font-weight="400" descent="-410" panose-1="2 11 6 4 3 5 4 4 2 4" units-per-em="2048" unicode-range="U+0020-F71C" bbox="-973 -829 2273 2117" x-height="1117" underline-thickness="130" font-family="Zawgyi" ascent="1638" cap-height="1489"/>
<missing-glyph horiz-adv-x="2048"/>
<glyph glyph-name=".notdef" horiz-adv-x="2048"/>
<glyph glyph-name=".null"/>
<glyph glyph-name="nonmarkingreturn" horiz-adv-x="2048"/>
<glyph glyph-name="space" horiz-adv-x="640" unicode=" "/>
<glyph glyph-name="space" horiz-adv-x="640" unicode=" "/>
<glyph glyph-name="exclam" horiz-adv-x="680" unicode="!" d="M442 0h-204v211h204v-211zM452 1489l-28 -1079h-166l-30 1079h224z"/>
<glyph glyph-name="quotedbl" horiz-adv-x="822" unicode='&quot;' d="M332 1556l-43 -579h-132l-43 579h218zM708 1556l-43 -579h-132l-43 579h218z"/>
<glyph glyph-name="numbersign" horiz-adv-x="1490" unicode="#" d="M929 934h-274l-94 -380h274zM1348 932h-293l-92 -376h268v-135h-303l-105 -421h-129l105 421h-270l-105 -421h-129l105 421h-258v135h293l92 376h-268v135h303l105 422h129l-105 -422h270l105 422h129l-105 -422h258v-135z"/>
<glyph glyph-name="dollar" horiz-adv-x="1118" unicode="$" d="M835 354q0 94 -48 139t-159 68v-415q102 12 154.5 61.5t52.5 146.5zM514 746v414q-90 -8 -151 -58.5t-61 -140.5q0 -89 44.5 -137.5t167.5 -77.5zM1024 380q0 -147 -112.5 -252.5t-283.5 -126.5v-362h-114v357q-108 1 -217.5 25t-190.5 64v202h15q79 -59 178 -96t215 -47 v432q-25 6 -61 14.5t-61 16.5q-150 41 -214.5 124t-64.5 204q0 142 111 247t290 122v272h114v-270q91 -3 188.5 -25.5t159.5 -49.5v-198h-15q-70 48 -153.5 84t-179.5 44v-430q33 -7 61.5 -14.5t49.5 -12.5q136 -32 210.5 -111t74.5 -213z"/>
<glyph glyph-name="percent" horiz-adv-x="2000" unicode="%" d="M1719 413q0 152 -35.5 230t-138.5 78t-139 -79t-36 -230q0 -150 34 -229t141 -79q103 0 138.5 79t35.5 230zM629 1076q0 152 -35.5 230t-138.5 78t-139 -79t-36 -230q0 -150 34 -229t141 -79q103 0 138.5 79t35.5 230zM1897 413q0 -225 -90.5 -333.5t-261.5 -108.5 q-174 0 -263.5 110t-89.5 331q0 224 91 333t262 109q174 0 263 -110t89 -331zM1473 1489l-780 -1489h-165l780 1489h165zM807 1076q0 -225 -90.5 -333.5t-261.5 -108.5q-174 0 -263.5 110t-89.5 331q0 224 91 333t262 109q174 0 263 -110t89 -331z"/>
<glyph glyph-name="ampersand" horiz-adv-x="1380" unicode="&amp;" d="M532 912q56 19 92.5 51t56.5 70q18 35 27 74t9 84q0 97 -56.5 150t-131.5 53q-89 0 -140 -60t-51 -150q0 -40 7.5 -68.5t31.5 -66.5q21 -31 58.5 -66t96.5 -71zM898 301l-460 471q-25 -16 -50 -38t-55 -66q-24 -35 -42.5 -91.5t-18.5 -119.5q0 -142 84.5 -233.5 t228.5 -91.5q96 0 173 40.5t140 128.5zM1445 0h-256l-204 213q-102 -130 -209.5 -187t-243.5 -57q-202 0 -333.5 121.5t-131.5 318.5q0 86 24 153t64 121q39 52 90 91.5t98 68.5q-101 68 -151 143t-50 189q0 71 28.5 131.5t74.5 106.5q48 47 124.5 77t167.5 30 q166 0 271 -87.5t105 -221.5q0 -49 -12.5 -101.5t-45.5 -101.5t-86.5 -92t-142.5 -75l352 -362q14 82 17 178.5t3 251.5h195v-96q0 -96 -24.5 -216.5t-80.5 -228.5z"/>
<glyph glyph-name="quotesingle" horiz-adv-x="432" unicode="&apos;" d="M327 1556l-43 -579h-136l-43 579h222z"/>
<glyph glyph-name="parenleft" horiz-adv-x="784" unicode="(" d="M710 -412h-229q-174 207 -273.5 438t-99.5 546q0 308 98.5 542.5t274.5 441.5h229v-10q-81 -73 -154.5 -168.5t-136.5 -222.5q-60 -123 -97.5 -271t-37.5 -312q0 -171 36.5 -313t98.5 -270q60 -123 137 -222.5t154 -168.5v-10z"/>
<glyph glyph-name="parenright" horiz-adv-x="784" unicode=")" d="M676 572q0 -309 -99 -543t-274 -441h-229v10q77 69 155 169.5t136 221.5q62 129 98.5 272.5t36.5 310.5q0 165 -37 312t-98 271t-138 223t-153 168v10h229q174 -207 273.5 -440t99.5 -544z"/>
<glyph glyph-name="asterisk" horiz-adv-x="1118" unicode="*" d="M1007 887l-65 -110l-327 217l7 -364h-125l6 364l-325 -218l-66 110l354 207l-354 207l66 110l326 -219l-7 365h125l-8 -365l328 218l65 -110l-354 -205z"/>
<glyph glyph-name="plus" horiz-adv-x="1490" unicode="+" d="M1333 572h-505v-505h-166v505h-505v160h505v505h166v-505h505v-160z"/>
<glyph glyph-name="comma" horiz-adv-x="620" unicode="," d="M500 285l-280 -655h-146l176 655h250z"/>
<glyph glyph-name="hyphen" horiz-adv-x="744" unicode="-" d="M654 561h-564v181h564v-181z"/>
<glyph glyph-name="hyphen" horiz-adv-x="744" unicode="­" d="M654 561h-564v181h564v-181z"/>
<glyph glyph-name="period" horiz-adv-x="620" unicode="." d="M429 0h-239v285h239v-285z"/>
<glyph glyph-name="slash" horiz-adv-x="783" unicode="/" d="M728 1556l-583 -1880h-169l580 1880h172z"/>
<glyph glyph-name="zero" horiz-adv-x="1118" unicode="0" d="M779 291q29 74 41 187t12 267q0 153 -12 266t-42 188q-30 76 -82.5 115.5t-136.5 39.5q-83 0 -136.5 -39.5t-84.5 -117.5q-30 -76 -41 -192t-11 -262q0 -156 9.5 -261t41.5 -188q29 -77 82.5 -118.5t139.5 -41.5q83 0 136.5 39.5t83.5 117.5zM1035 745 q0 -401 -116.5 -588.5t-359.5 -187.5q-246 0 -361 191t-115 583q0 403 116.5 589.5t359.5 186.5q246 0 361 -193t115 -581z"/>
<glyph glyph-name="one" horiz-adv-x="1118" unicode="1" d="M952 0h-726v152h270v998h-270v136q153 0 225.5 43.5t81.5 164.5h155v-1342h264v-152z"/>
<glyph glyph-name="two" horiz-adv-x="1118" unicode="2" d="M1028 0h-919v209q99 94 187 180t172 179q170 187 232 299.5t62 232.5q0 62 -19.5 109t-53.5 78q-35 30 -81 45t-101 15q-53 0 -107.5 -13.5t-104.5 -33.5q-42 -17 -81 -41t-63 -41h-11v212q62 31 172.5 60.5t209.5 29.5q208 0 326 -110.5t118 -299.5q0 -87 -20.5 -161 t-56.5 -137q-37 -65 -89 -129t-110 -126q-94 -102 -209.5 -212t-184.5 -174h732v-171z"/>
<glyph glyph-name="three" horiz-adv-x="1118" unicode="3" d="M511 1347q-54 0 -108 -13t-106 -34q-48 -20 -83.5 -42t-63.5 -41h-12v211q65 35 176.5 63.5t212.5 28.5t176.5 -20.5t136.5 -63.5q66 -48 99.5 -116t33.5 -159q0 -123 -81 -216t-194 -118v-14q47 -9 100.5 -31t99.5 -65t75 -110.5t29 -164.5q0 -101 -34.5 -185.5 t-97.5 -149.5q-65 -68 -157 -103t-209 -35q-112 0 -222 27t-185 65v211h14q63 -46 169 -88t212 -42q61 0 122.5 19.5t102.5 63.5q40 44 61 97t21 134t-23.5 133t-65.5 82t-99.5 41.5t-124.5 11.5h-85v166h66q135 0 219.5 64t84.5 186q0 56 -22 96.5t-56 64.5q-38 26 -84 36 t-98 10z"/>
<glyph glyph-name="four" horiz-adv-x="1118" unicode="4" d="M698 672v582l-502 -582h502zM1067 512h-177v-512h-192v512h-658v210l666 767h184v-817h177v-160z"/>
<glyph glyph-name="five" horiz-adv-x="1118" unicode="5" d="M1011 474q0 -108 -34.5 -200t-96.5 -159q-63 -68 -156.5 -107t-209.5 -39q-107 0 -210.5 23.5t-179.5 61.5v211h14q23 -17 66 -38.5t95 -40.5q59 -21 108 -32.5t110 -11.5q60 0 117 21.5t98 69.5q37 44 56.5 103t19.5 139q0 79 -21.5 130t-62.5 84q-43 38 -105.5 53.5 t-139.5 15.5q-81 0 -163 -12.5t-131 -23.5v767h817v-175h-624v-396q36 4 71 6t64 2q114 0 193 -19t152 -74q74 -56 113.5 -140t39.5 -219z"/>
<glyph glyph-name="six" horiz-adv-x="1118" unicode="6" d="M848 475q0 92 -24 154t-78 106q-39 32 -88.5 42t-101.5 10q-70 0 -136 -21t-130 -61q-2 -22 -3 -42.5t-1 -51.5q0 -155 30.5 -250t75.5 -144q43 -47 88.5 -66t98.5 -19q120 0 194.5 86t74.5 257zM1051 483q0 -115 -38 -212t-102 -162q-67 -69 -150 -104.5t-183 -35.5 q-101 0 -183.5 34t-145.5 101q-77 81 -120.5 216.5t-43.5 333.5q0 194 40 350.5t123 272.5q81 113 209 176.5t296 63.5q50 0 93 -5t76 -16v-191h-9q-27 15 -78 27.5t-109 12.5q-186 0 -300.5 -125.5t-135.5 -372.5q71 50 146 77t164 27q87 0 152.5 -17.5t136.5 -70.5 q82 -62 122 -157t40 -223z"/>
<glyph glyph-name="seven" horiz-adv-x="1118" unicode="7" d="M1044 1266l-644 -1266h-213l682 1314h-770v175h945v-223z"/>
<glyph glyph-name="eight" horiz-adv-x="1118" unicode="8" d="M559 -34q-111 0 -202 33t-155 95q-63 60 -95.5 142.5t-32.5 174.5q0 121 64.5 222.5t187.5 161.5v6q-110 64 -163 140t-53 190q0 168 127 280t322 112q203 0 325.5 -106.5t122.5 -272.5q0 -100 -58.5 -198t-168.5 -153v-6q130 -61 197 -148t67 -224q0 -191 -138.5 -320 t-346.5 -129zM839 396q0 92 -36 146t-139 110q-34 19 -90.5 41t-127.5 52q-83 -55 -127 -135.5t-44 -183.5q0 -135 81.5 -223t204.5 -88q126 0 202 75.5t76 205.5zM811 1142q0 100 -67 167t-186 67q-109 0 -178.5 -60t-69.5 -162q0 -74 35.5 -125t106.5 -92q31 -17 94.5 -47 t115.5 -47q87 67 118 137.5t31 161.5z"/>
<glyph glyph-name="nine" horiz-adv-x="1118" unicode="9" d="M67 1005q0 115 37.5 210t102.5 164q62 66 151.5 103t181.5 37q103 0 186.5 -34.5t144.5 -99.5q77 -82 119.5 -215t42.5 -336q0 -185 -41.5 -350.5t-122.5 -274.5q-86 -116 -206.5 -177t-297.5 -61q-40 0 -85 4.5t-84 16.5v191h10q25 -14 78 -27t108 -13q196 0 308 129 t127 369q-80 -54 -152.5 -79t-157.5 -25q-83 0 -151 18t-137 70q-80 61 -121 154.5t-41 225.5zM832 877q0 152 -28 247.5t-77 147.5q-44 48 -89 66t-99 18q-123 0 -196 -88t-73 -255q0 -94 24 -155t78 -105q38 -31 86 -41.5t103 -10.5q64 0 138 22.5t129 59.5q1 15 2.5 39.5 t1.5 54.5z"/>
<glyph glyph-name="colon" horiz-adv-x="724" unicode=":" d="M482 0h-239v285h239v-285zM482 832h-239v285h239v-285z"/>
<glyph glyph-name="less" horiz-adv-x="1490" unicode="&lt;" d="M1275 79l-1074 513v120l1074 513v-178l-833 -395l833 -395v-178z"/>
<glyph glyph-name="equal" horiz-adv-x="1490" unicode="=" d="M1298 362h-1106v160h1106v-160zM1298 782h-1106v160h1106v-160z"/>
<glyph glyph-name="greater" horiz-adv-x="1490" unicode="&gt;" d="M1289 592l-1074 -513v178l833 395l-833 395v178l1074 -513v-120z"/>
<glyph glyph-name="question" horiz-adv-x="970" unicode="?" d="M542 0h-204v211h204v-211zM912 1139q0 -98 -32.5 -174.5t-86.5 -134.5t-122.5 -107t-144.5 -95v-228h-179v305q56 34 130.5 81.5t116.5 88.5q54 51 84 111.5t30 137.5q0 113 -71 168.5t-185 55.5q-100 0 -188.5 -33.5t-143.5 -69.5h-11v204q67 27 169 48.5t193 21.5 q205 0 323 -104.5t118 -275.5z"/>
<glyph glyph-name="at" horiz-adv-x="1862" unicode="@" d="M1142 408v518q-56 29 -103 41.5t-98 12.5q-113 0 -182 -84.5t-69 -261.5q0 -160 52 -245t166 -85q61 0 120.5 29t113.5 75zM1739 663q0 -139 -38 -268.5t-109 -237.5h-421l-25 116q-67 -57 -123.5 -90.5t-153.5 -33.5q-154 0 -252 123.5t-98 358.5t120.5 366t275.5 131 q72 0 124 -18t105 -48v48h159v-842h227q38 71 54.5 184t16.5 205q0 327 -166.5 526.5t-478.5 199.5q-296 0 -488.5 -215.5t-192.5 -522.5q0 -330 187 -534.5t489 -204.5q81 0 170.5 11t169.5 35v-142q-84 -20 -170.5 -28t-170.5 -8q-354 0 -586 243t-232 630 q0 367 239.5 619t583.5 252q368 0 576 -237.5t208 -617.5z"/>
<glyph glyph-name="A" horiz-adv-x="1228" unicode="A" d="M839 585l-230 702l-229 -702h459zM-10 0l502 1489h244l502 -1489h-209l-135 416h-569l-135 -416h-200z"/>
<glyph glyph-name="B" horiz-adv-x="1207" unicode="B" d="M955 449q0 84 -24 138.5t-97 92.5q-47 25 -102.5 32t-157.5 7h-225v-550h161q130 0 205 12t132 51q56 39 82 88.5t26 128.5zM885 1125q0 54 -18 93.5t-58 62.5q-48 27 -107 33t-163 6h-190v-436h225q93 0 137 9.5t91 39.5q45 29 64 76t19 116zM1161 457q0 -111 -42 -196 t-113 -140q-84 -66 -180 -93.5t-248 -27.5h-427v1489h395q159 0 238.5 -10.5t152.5 -49.5q80 -43 117 -112.5t37 -163.5q0 -105 -55.5 -188t-153.5 -130v-8q133 -36 206 -131.5t73 -238.5z"/>
<glyph glyph-name="C" horiz-adv-x="1230" unicode="C" d="M733 -27q-146 0 -268.5 49t-211.5 146t-138 242t-49 333q0 187 47.5 326t138.5 242q89 100 211 152.5t273 52.5q75 0 140.5 -11t121.5 -28q48 -15 98.5 -37.5t99.5 -49.5v-239h-16q-26 24 -67 58t-100 67q-57 31 -124 51t-155 20q-95 0 -180 -39t-149 -115 q-63 -76 -98 -191t-35 -259q0 -153 37 -263.5t101 -186.5q62 -74 146 -111.5t178 -37.5q86 0 159 21t130 53q55 31 95 63.5t63 55.5h15v-236q-49 -23 -92.5 -44t-105.5 -41q-65 -21 -120.5 -32t-144.5 -11z"/>
<glyph glyph-name="D" horiz-adv-x="1389" unicode="D" d="M1119 746q0 172 -57 293.5t-169 189.5q-79 48 -169 69t-224 21h-151v-1149h151q132 0 231 21t181 78q103 70 155 186.5t52 290.5zM1325 743q0 -204 -82.5 -368t-221.5 -256q-113 -71 -229.5 -95t-297.5 -24h-343v1489h339q210 0 329.5 -31.5t203.5 -86.5 q144 -95 223 -252.5t79 -375.5z"/>
<glyph glyph-name="E" horiz-adv-x="1149" unicode="E" d="M151 0v1489h931v-176h-733v-408h683v-176h-683v-553h733v-176h-931z"/>
<glyph glyph-name="F" horiz-adv-x="1068" unicode="F" d="M1042 1313h-693v-420h664v-176h-664v-717h-198v1489h891v-176z"/>
<glyph glyph-name="G" horiz-adv-x="1367" unicode="G" d="M774 -29q-158 0 -289 48t-225 146q-94 99 -144 245t-50 336q0 180 50.5 322.5t144.5 243.5q91 98 224 151t291 53q75 0 144 -11t132 -30q50 -15 111.5 -41.5t99.5 -45.5v-239h-17q-37 33 -76.5 62.5t-111.5 63.5q-60 30 -138 50t-168 20q-215 0 -347.5 -162t-132.5 -431 q0 -150 35 -262t101 -190q64 -77 154.5 -117.5t203.5 -40.5q84 0 167 12t140 36v385h-344v174h540v-650q-38 -17 -101.5 -43t-118.5 -41q-73 -22 -132 -33t-143 -11z"/>
<glyph glyph-name="H" horiz-adv-x="1383" unicode="H" d="M1232 0h-198v729h-685v-729h-198v1489h198v-584h685v584h198v-1489z"/>
<glyph glyph-name="I" horiz-adv-x="764" unicode="I" d="M671 0h-578v152h190v1185h-190v152h578v-152h-190v-1185h190v-152z"/>
<glyph glyph-name="J" horiz-adv-x="853" unicode="J" d="M712 387q0 -196 -119.5 -302t-320.5 -106q-48 0 -128.5 8.5t-134.5 20.5v189h11q41 -14 101.5 -31t123.5 -17q92 0 146.5 21t80.5 60q27 40 34.5 98t7.5 134v869h-315v158h513v-1102z"/>
<glyph glyph-name="K" horiz-adv-x="1204" unicode="K" d="M1236 0h-257l-543 693l-87 -98v-595h-198v1489h198v-685l610 685h241l-616 -665z"/>
<glyph glyph-name="L" horiz-adv-x="1019" unicode="L" d="M1014 0h-863v1489h198v-1313h665v-176z"/>
<glyph glyph-name="M" horiz-adv-x="1578" unicode="M" d="M1427 0h-198v1283l-388 -873h-120l-385 873v-1283h-185v1489h270l372 -829l359 829h275v-1489z"/>
<glyph glyph-name="N" horiz-adv-x="1367" unicode="N" d="M1216 0h-222l-658 1284v-1284h-185v1489h281l599 -1179v1179h185v-1489z"/>
<glyph glyph-name="O" horiz-adv-x="1449" unicode="O" d="M1177 744q0 148 -32 262t-90 189q-59 77 -142.5 115.5t-187.5 38.5q-108 0 -188.5 -37.5t-142.5 -116.5q-59 -76 -90.5 -191t-31.5 -260q0 -293 123 -448.5t330 -155.5t329.5 155.5t122.5 448.5zM1204 1318q85 -98 132 -243t47 -331q0 -181 -46 -327t-133 -245 q-91 -104 -212.5 -153.5t-267.5 -49.5q-151 0 -272 51t-208 152q-86 99 -132 244t-46 328q0 188 46.5 330t132.5 244q86 99 207.5 150.5t271.5 51.5q152 0 274 -53t206 -149z"/>
<glyph glyph-name="P" horiz-adv-x="1129" unicode="P" d="M885 1035q0 77 -26.5 134t-80.5 93q-47 31 -109.5 44t-155.5 13h-164v-595h135q120 0 194 19.5t123 69.5q44 45 64 98t20 124zM1091 1040q0 -97 -34.5 -183.5t-95.5 -147.5q-77 -76 -181 -115t-263 -39h-168v-555h-198v1489h374q132 0 225 -22t164 -71q83 -57 130 -144.5 t47 -211.5z"/>
<glyph glyph-name="Q" horiz-adv-x="1449" unicode="Q" d="M1177 744q0 148 -32 262t-90 189q-59 77 -142.5 115.5t-187.5 38.5q-108 0 -188.5 -37.5t-142.5 -116.5q-59 -76 -90.5 -191t-31.5 -260q0 -293 123 -449t330 -156t329.5 156t122.5 449zM1388 -364q-54 -14 -113.5 -21t-118.5 -7q-167 0 -271.5 94t-114.5 268h-25h-21 q-151 0 -272.5 51.5t-207.5 150.5t-132 244t-46 328q0 188 46.5 330t132.5 244q86 99 207.5 150.5t271.5 51.5q152 0 274 -53t206 -149q85 -98 132 -243t47 -331q0 -289 -113 -477t-309 -255q5 -56 19.5 -100.5t37.5 -70.5q27 -31 65.5 -45.5t105.5 -14.5q40 0 94 12.5 t78 22.5h27v-180z"/>
<glyph glyph-name="R" horiz-adv-x="1271" unicode="R" d="M876 1070q0 65 -23 115.5t-71 82.5q-42 28 -98 39.5t-139 11.5h-196v-562h174q85 0 153 15t116 62q43 42 63.5 100t20.5 136zM1304 0h-257l-472 592h-226v-592h-198v1489h384q128 0 214.5 -14t164.5 -65q78 -50 123.5 -129t45.5 -196q0 -164 -83 -274t-226 -163z"/>
<glyph glyph-name="S" horiz-adv-x="1141" unicode="S" d="M566 -27q-162 0 -275.5 33.5t-213.5 82.5v248h14q98 -92 222 -142.5t239 -50.5q164 0 248 68.5t84 180.5q0 89 -44 145t-140 83q-69 20 -126 33t-143 35q-77 20 -138 51t-108 81q-46 49 -71.5 115.5t-25.5 153.5q0 181 141 303.5t360 122.5q125 0 236.5 -25t206.5 -71 v-237h-15q-71 65 -182 113.5t-233 48.5q-138 0 -223 -64.5t-85 -169.5q0 -95 50 -151t145 -82q63 -17 154 -38.5t151 -39.5q154 -47 225 -142t71 -234q0 -87 -35.5 -172t-99.5 -144q-72 -65 -162.5 -100t-226.5 -35z"/>
<glyph glyph-name="T" horiz-adv-x="1196" unicode="T" d="M499 0v1313h-500v176h1198v-176h-500v-1313h-198z"/>
<glyph glyph-name="U" horiz-adv-x="1343" unicode="U" d="M671 -31q-131 0 -229 34.5t-167 102.5q-78 78 -110 186.5t-32 267.5v929h198v-929q0 -103 13 -173.5t51 -126.5q40 -60 108.5 -91t167.5 -31q93 0 165 31t112 91q37 57 50.5 126t13.5 169v934h198v-929q0 -155 -31.5 -266t-110.5 -188q-71 -69 -165.5 -103t-231.5 -34z "/>
<glyph glyph-name="V" horiz-adv-x="1222" unicode="V" d="M1230 1489l-512 -1489h-214l-512 1489h212l412 -1236l412 1236h202z"/>
<glyph glyph-name="W" horiz-adv-x="1847" unicode="W" d="M1821 1489l-374 -1489h-223l-303 1236l-296 -1236h-218l-381 1489h203l300 -1238l298 1238h201l301 -1250l298 1250h194z"/>
<glyph glyph-name="X" horiz-adv-x="1189" unicode="X" d="M1181 0h-227l-363 596l-369 -596h-214l473 745l-459 744h226l356 -585l361 585h215l-466 -734z"/>
<glyph glyph-name="Y" horiz-adv-x="1180" unicode="Y" d="M1193 1489l-503 -830v-659h-198v638l-503 851h220l384 -657l390 657h210z"/>
<glyph glyph-name="Z" horiz-adv-x="1145" unicode="Z" d="M1100 0h-1040v184l797 1129h-761v176h984v-179l-806 -1134h826v-176z"/>
<glyph glyph-name="bracketleft" horiz-adv-x="784" unicode="[" d="M686 -392h-520v1948h520v-143h-345v-1662h345v-143z"/>
<glyph glyph-name="backslash" horiz-adv-x="783" unicode="\" d="M804 -324h-169l-583 1880h172z"/>
<glyph glyph-name="bracketright" horiz-adv-x="784" unicode="]" d="M618 -392h-520v143h345v1662h-345v143h520v-1948z"/>
<glyph glyph-name="asciicircum" horiz-adv-x="1490" unicode="^" d="M1357 684h-198l-415 625l-414 -627h-197l549 807h126z"/>
<glyph glyph-name="underscore" horiz-adv-x="1118" unicode="_" d="M1134 -300h-1150v130h1150v-130z"/>
<glyph glyph-name="grave" horiz-adv-x="1118" unicode="`" d="M670 1302h-149l-273 374h243z"/>
<glyph glyph-name="a" horiz-adv-x="1075" unicode="a" d="M760 119q-23 -17 -61.5 -47.5t-74.5 -48.5q-50 -26 -96.5 -40t-130.5 -14q-69 0 -131 26t-109 73q-45 46 -72 113.5t-27 142.5q0 116 49 197.5t155 129.5q94 43 222 59.5t276 24.5v36q0 66 -20 106.5t-56 62.5q-36 23 -88 30.5t-107 7.5q-65 0 -153 -19.5t-176 -56.5h-11 v191q52 15 149 33t192 18q115 0 194 -18t142 -65q61 -46 91 -119t30 -178v-764h-187v119zM760 275v310q-67 -6 -169.5 -16.5t-165.5 -29.5q-75 -23 -124 -70.5t-49 -132.5q0 -96 54 -145t158 -49q89 0 161 38.5t135 94.5z"/>
<glyph glyph-name="b" horiz-adv-x="1132" unicode="b" d="M1073 577q0 -274 -133 -441t-333 -167q-91 0 -155.5 22.5t-127.5 60.5l-12 -52h-176v1556h188v-556q71 64 154 106t188 42q189 0 298 -151.5t109 -419.5zM879 562q0 200 -61 303.5t-196 103.5q-77 0 -155.5 -36t-142.5 -91v-640q71 -35 126 -49.5t121 -14.5 q144 0 226 102t82 322z"/>
<glyph glyph-name="c" horiz-adv-x="945" unicode="c" d="M580 -25q-115 0 -211 35.5t-165 107.5t-107 181.5t-38 257.5q0 147 39.5 254t105.5 180t164.5 112.5t211.5 39.5q92 0 177.5 -26t152.5 -60v-211h-11q-20 17 -51.5 39t-76.5 45q-39 20 -92 35t-102 15q-146 0 -234.5 -110.5t-88.5 -312.5q0 -198 85.5 -308.5 t237.5 -110.5q92 0 175 38t147 98h11v-211q-28 -13 -70 -31.5t-76 -27.5q-48 -14 -86 -21.5t-98 -7.5z"/>
<glyph glyph-name="d" horiz-adv-x="1132" unicode="d" d="M808 272v644q-70 34 -125.5 47t-120.5 13q-145 0 -227 -108.5t-82 -313.5q0 -197 63 -301.5t202 -104.5q74 0 149 33.5t141 90.5zM996 0h-188v114q-44 -37 -76 -61t-75 -44q-40 -19 -83 -29.5t-100 -10.5q-91 0 -168.5 38t-131.5 111q-55 74 -85 182.5t-30 249.5 q0 147 38 254.5t105 187.5q61 73 147.5 114.5t181.5 41.5q84 0 146 -18.5t131 -57.5v484h188v-1556z"/>
<glyph glyph-name="e" horiz-adv-x="1078" unicode="e" d="M841 683q-2 76 -18 131t-46 93q-33 42 -84.5 64t-127.5 22q-75 0 -127.5 -22.5t-95.5 -65.5q-42 -44 -64 -97.5t-28 -124.5h591zM621 -26q-267 0 -414.5 150.5t-147.5 427.5q0 273 143 434.5t374 161.5q104 0 184 -30t140 -94t92 -156.5t32 -226.5v-102h-774 q0 -195 98 -298t271 -103q62 0 121.5 14t107.5 36q51 23 86 44.5t58 40.5h11v-205q-33 -13 -82 -32.5t-88 -30.5q-55 -15 -99.5 -23t-112.5 -8z"/>
<glyph glyph-name="f" horiz-adv-x="652" unicode="f" d="M724 1376h-10q-25 9 -72 17.5t-84 8.5q-119 0 -169.5 -53.5t-50.5 -193.5v-38h311v-156h-305v-961h-188v961h-127v156h127v37q0 202 97 307t278 105q52 0 102 -5.5t91 -12.5v-172z"/>
<glyph glyph-name="g" horiz-adv-x="1132" unicode="g" d="M176 -179q19 -8 56 -21.5t84 -25.5q52 -13 96 -21t96 -8q87 0 147.5 23t94.5 64q32 41 45 95t13 123v98q-76 -66 -149 -97.5t-183 -31.5q-191 0 -304 142t-113 408q0 139 39 246.5t105 182.5q63 72 149 111t178 39q87 0 150.5 -20.5t127.5 -58.5l11 48h177v-990 q0 -284 -124 -417t-379 -133q-82 0 -167.5 13t-159.5 35v196h10zM808 303v613q-70 34 -129.5 48.5t-118.5 14.5q-143 0 -225 -105t-82 -301q0 -186 62.5 -283t202.5 -97q73 0 150.5 29t139.5 81z"/>
<glyph glyph-name="h" horiz-adv-x="1142" unicode="h" d="M1014 0h-188v636q0 77 -7.5 143.5t-28.5 106.5q-23 42 -64 62.5t-112 20.5q-70 0 -144.5 -37.5t-145.5 -97.5v-834h-188v1556h188v-563q84 75 166 115t173 40q165 0 258 -108.5t93 -314.5v-725z"/>
<glyph glyph-name="i" horiz-adv-x="468" unicode="i" d="M341 1304h-214v195h214v-195zM328 0h-188v1117h188v-1117z"/>
<glyph glyph-name="j" horiz-adv-x="577" unicode="j" d="M442 1304h-214v195h214v-195zM441 -32q0 -191 -102.5 -291t-282.5 -100q-31 0 -69.5 3t-76.5 9v168h11q22 -5 48.5 -9.5t50.5 -4.5q75 0 123.5 18.5t72.5 58.5q22 36 29.5 91t7.5 134v916h-202v156h390v-1149z"/>
<glyph glyph-name="k" horiz-adv-x="1020" unicode="k" d="M1062 0h-247l-417 539l-74 -72v-467h-188v1556h188v-911l442 472h234l-459 -467z"/>
<glyph glyph-name="l" horiz-adv-x="468" unicode="l" d="M328 0h-188v1556h188v-1556z"/>
<glyph glyph-name="m" horiz-adv-x="1720" unicode="m" d="M1404 0v646q0 77 -6 142.5t-25 102.5q-20 40 -57 59t-100 19q-58 0 -124.5 -35.5t-137.5 -102.5q1 -17 2.5 -40.5t1.5 -55.5v-735h-188v646q0 77 -6 142.5t-25 102.5q-20 40 -57 59t-100 19q-61 0 -128 -38t-130 -97v-834h-188v1117h188v-124q74 74 146.5 114.5 t159.5 40.5q99 0 175.5 -45t116.5 -148q85 95 166 144t176 49q72 0 131 -22.5t103 -72.5q45 -51 69.5 -127t24.5 -191v-735h-188z"/>
<glyph glyph-name="n" horiz-adv-x="1142" unicode="n" d="M1014 0h-188v636q0 77 -7.5 143.5t-28.5 106.5q-23 42 -64 62.5t-112 20.5q-70 0 -144.5 -37.5t-145.5 -97.5v-834h-188v1117h188v-124q84 75 166 115t173 40q165 0 258 -108.5t93 -314.5v-725z"/>
<glyph glyph-name="o" horiz-adv-x="1112" unicode="o" d="M861 558q0 217 -79 322.5t-225 105.5q-147 0 -226.5 -105.5t-79.5 -322.5q0 -210 79.5 -318.5t226.5 -108.5q145 0 224.5 106.5t79.5 320.5zM1055 558q0 -282 -136 -435.5t-362 -153.5q-233 0 -366.5 158.5t-133.5 430.5q0 280 137.5 435t362.5 155q226 0 362 -154.5 t136 -435.5z"/>
<glyph glyph-name="p" horiz-adv-x="1132" unicode="p" d="M879 567q0 191 -61 296.5t-198 105.5q-80 0 -154.5 -35.5t-141.5 -91.5v-633q74 -36 126.5 -49t120.5 -13q146 0 227 107t81 313zM1073 588q0 -279 -133.5 -444.5t-337.5 -165.5q-83 0 -147 19t-131 59v-468h-188v1529h188v-117q70 63 155.5 105.5t186.5 42.5 q192 0 299.5 -152t107.5 -408z"/>
<glyph glyph-name="q" horiz-adv-x="1132" unicode="q" d="M808 280v636q-71 35 -127 49t-120 14q-148 0 -228 -107t-80 -308q0 -196 64 -301.5t199 -105.5q79 0 154 34t138 89zM996 -412h-188v534q-82 -75 -160 -109.5t-173 -34.5q-190 0 -303 152.5t-113 424.5q0 144 39.5 254.5t104.5 185.5q62 73 148 113t179 40q86 0 149 -20 t129 -59l12 48h176v-1529z"/>
<glyph glyph-name="r" horiz-adv-x="738" unicode="r" d="M728 915h-10q-21 6 -44.5 7.5t-56.5 1.5q-76 0 -151 -33t-142 -98v-793h-188v1117h188v-166q103 91 179.5 128.5t148.5 37.5q29 0 43.5 -1.5t32.5 -4.5v-196z"/>
<glyph glyph-name="s" horiz-adv-x="914" unicode="s" d="M438 -27q-112 0 -209.5 30t-161.5 64v211h10q24 -19 56.5 -42t86.5 -48q48 -22 105.5 -39t119.5 -17q45 0 96 10.5t76 26.5q35 23 50.5 49t15.5 78q0 67 -36.5 101t-129.5 57q-36 9 -94 21t-107 26q-128 37 -186 114.5t-58 187.5q0 151 114 246t303 95q93 0 187 -23 t158 -58v-201h-10q-72 57 -160.5 90t-178.5 33q-93 0 -157 -39t-64 -118q0 -70 38 -104.5t122 -56.5q42 -11 93.5 -21.5t108.5 -24.5q124 -31 186.5 -103t62.5 -196q0 -72 -28.5 -136.5t-83.5 -110.5q-60 -50 -135.5 -76t-189.5 -26z"/>
<glyph glyph-name="t" horiz-adv-x="685" unicode="t" d="M474 -22q-154 0 -240 87.5t-86 276.5v619h-127v156h127v321h188v-321h346v-156h-346v-531q0 -85 3 -131t23 -86q17 -35 55 -52.5t103 -17.5q46 0 89 13.5t62 22.5h11v-169q-53 -15 -107.5 -23.5t-100.5 -8.5z"/>
<glyph glyph-name="u" horiz-adv-x="1142" unicode="u" d="M1006 0h-188v124q-87 -76 -165 -115.5t-174 -39.5q-73 0 -137.5 24t-112.5 76t-74.5 131t-26.5 192v725h188v-636q0 -89 6.5 -147.5t29.5 -102.5q23 -43 62.5 -63t113.5 -20q69 0 147 39t143 96v834h188v-1117z"/>
<glyph glyph-name="v" horiz-adv-x="1020" unicode="v" d="M1014 1117l-421 -1117h-169l-418 1117h203l306 -862l303 862h196z"/>
<glyph glyph-name="w" horiz-adv-x="1520" unicode="w" d="M1490 1117l-283 -1117h-174l-273 861l-271 -861h-173l-286 1117h196l197 -865l265 865h155l272 -865l186 865h189z"/>
<glyph glyph-name="x" horiz-adv-x="1014" unicode="x" d="M1004 0h-231l-271 422l-279 -422h-213l388 554l-384 563h231l269 -418l276 418h214l-386 -550z"/>
<glyph glyph-name="y" horiz-adv-x="1020" unicode="y" d="M1014 1117l-601 -1529h-201l200 466l-406 1063h203l305 -827l304 827h196z"/>
<glyph glyph-name="z" horiz-adv-x="910" unicode="z" d="M870 0h-821v139l584 823h-560v155h786v-134l-587 -826h598v-157z"/>
<glyph glyph-name="braceleft" horiz-adv-x="984" unicode="{" d="M886 -392h-116q-179 0 -280.5 98.5t-101.5 288.5v149q0 69 -13 139t-50 120t-96.5 75.5t-147.5 25.5h-21v156h21q88 0 147.5 25.5t96.5 75.5t50 120t13 139v149q0 190 101.5 288.5t280.5 98.5h116v-138h-80q-59 0 -102 -12t-74 -41q-32 -30 -47.5 -83t-15.5 -130v-175 q0 -82 -19 -138t-56 -105q-33 -44 -86 -80.5t-110 -59.5v-24q57 -23 109.5 -59.5t86.5 -80.5q37 -49 56 -105t19 -138v-175q0 -77 15.5 -130t47.5 -83q30 -29 73.5 -41t102.5 -12h80v-138z"/>
<glyph glyph-name="bar" horiz-adv-x="783" unicode="|" d="M475 -392h-167v1948h167v-1948z"/>
<glyph glyph-name="braceright" horiz-adv-x="984" unicode="}" d="M924 504h-21q-88 0 -147.5 -25.5t-96.5 -75.5t-50 -120t-13 -139v-149q0 -190 -101.5 -288.5t-280.5 -98.5h-116v138h80q59 0 102 12t74 41q32 30 47.5 83t15.5 130v175q0 82 19 138t56 105q33 44 86 80.5t110 59.5v24q-57 23 -110 59.5t-86 80.5q-37 49 -56 105t-19 138 v175q0 77 -15.5 130t-47.5 83q-31 29 -74 41t-102 12h-80v138h116q179 0 280.5 -98.5t101.5 -288.5v-149q0 -69 13 -139t50 -120t96.5 -75.5t147.5 -25.5h21v-156z"/>
<glyph glyph-name="asciitilde" horiz-adv-x="1490" unicode="~" d="M1356 927q-2 -102 -21 -196.5t-60 -169.5q-41 -73 -102 -119t-159 -46q-57 0 -102.5 15.5t-80.5 40.5t-67 60t-57 65q-27 33 -53 67t-51 60q-27 28 -56 45t-66 17q-50 0 -83 -26.5t-55 -78.5q-21 -50 -29.5 -120t-11.5 -146h-168q2 104 21.5 199t58.5 167 q40 76 106 120.5t156 44.5q60 0 105.5 -16t80.5 -41t64.5 -57t57.5 -67q22 -27 52.5 -66t51.5 -61q29 -30 58.5 -46t62.5 -16q50 0 84.5 28t53.5 76q20 50 29.5 117.5t11.5 149.5h168z"/>
<glyph glyph-name="exclamdown" horiz-adv-x="680" unicode="¡" d="M452 0h-224l28 1079h166zM442 1278h-204v211h204v-211z"/>
<glyph glyph-name="cent" horiz-adv-x="1118" unicode="¢" d="M557 146v825q-116 -21 -183 -125.5t-67 -288.5q0 -188 68.5 -289.5t181.5 -121.5zM557 2q-215 25 -329 169t-114 386q0 238 118 386t325 172v360h114v-359q87 -3 167.5 -26.5t136.5 -52.5v-200h-10q-62 51 -132 89t-162 51v-836q49 5 98.5 23t83.5 38q36 21 64 41.5 t48 37.5h10v-198q-65 -30 -135.5 -53.5t-168.5 -28.5v-362h-114v363z"/>
<glyph glyph-name="sterling" horiz-adv-x="1118" unicode="£" d="M1031 0h-942v207q111 33 156.5 128t45.5 278h-161v138h161v320q0 201 116 324t301 123q97 0 166 -15.5t127 -32.5v-206h-10q-58 41 -129 64t-135 23q-123 0 -183.5 -77t-60.5 -222v-301h364v-138h-364v-61q0 -117 -58.5 -212.5t-163.5 -157.5v-11h770v-171z"/>
<glyph glyph-name="currency" horiz-adv-x="1118" unicode="¤" d="M752 661q0 80 -56.5 138.5t-135.5 58.5q-77 0 -134.5 -57.5t-57.5 -139.5q0 -80 56.5 -138.5t135.5 -58.5q77 0 134.5 57.5t57.5 139.5zM1057 272l-106 -106l-214 212q-45 -27 -84 -39.5t-93 -12.5q-46 0 -92.5 15t-82.5 38l-215 -215l-105 109l212 213 q-25 40 -38.5 86.5t-13.5 88.5q0 44 13.5 88.5t39.5 85.5l-213 216l107 106l214 -213q37 24 83 38t91 14q52 0 97.5 -15.5t78.5 -35.5l212 212l109 -105l-214 -216q27 -43 40 -83t13 -92q0 -45 -14.5 -91.5t-38.5 -83.5z"/>
<glyph glyph-name="yen" horiz-adv-x="1118" unicode="¥" d="M1059 1489l-408 -811v-100h342v-138h-340v-440h-188v440h-340v138h342v79l-411 832h210l294 -639l298 639h201z"/>
<glyph glyph-name="brokenbar" horiz-adv-x="783" unicode="¦" d="M475 -392h-167v798h167v-798zM475 758h-167v798h167v-798z"/>
<glyph glyph-name="section" horiz-adv-x="1118" unicode="§" d="M182 -133q26 -13 64.5 -29t74.5 -28q47 -15 87 -22.5t101 -7.5q114 0 190.5 46.5t76.5 137.5q0 54 -18.5 87.5t-59.5 59.5q-42 25 -103.5 42.5t-134.5 38.5q-88 25 -146.5 51t-105.5 69q-45 41 -67 95t-22 126q0 94 49 178.5t150 146.5v7q-91 50 -130.5 121t-39.5 161 q0 168 128 270t352 102q85 0 157 -13t161 -44v-194h-10q-90 45 -167.5 66t-161.5 21q-112 0 -189.5 -45.5t-77.5 -133.5q0 -57 20.5 -93t59.5 -59q39 -24 99.5 -43t137.5 -39q184 -50 262.5 -128.5t78.5 -212.5q0 -108 -54.5 -189t-144.5 -135v-7q87 -46 128.5 -116 t41.5 -164q0 -74 -31.5 -145t-89.5 -119q-62 -53 -148.5 -82t-209.5 -29q-79 0 -157 14t-161 44v194h10zM759 401q24 35 37.5 67.5t13.5 86.5q0 49 -14.5 85t-39.5 59q-24 23 -56 38.5t-74 28.5q-33 10 -77 22.5t-99 30.5q-20 -12 -41.5 -30t-47.5 -51q-20 -26 -36.5 -70 t-16.5 -89q0 -81 38 -129t146 -81q34 -10 77.5 -23.5t97.5 -30.5q19 12 44 33t48 53z"/>
<glyph glyph-name="dieresis" horiz-adv-x="1118" unicode="¨" d="M454 1304h-201v195h201v-195zM867 1304h-201v195h201v-195z"/>
<glyph glyph-name="copyright" horiz-adv-x="1902" unicode="©" d="M1274 255q-67 -30 -134 -52.5t-158 -22.5q-209 0 -330 123.5t-121 356.5q0 230 125 356.5t326 126.5q83 0 159 -22t133 -51v-181h-16q-43 38 -119 72.5t-153 34.5q-123 0 -196.5 -82t-73.5 -254q0 -162 70 -247.5t200 -85.5q84 0 159 36.5t113 70.5h16v-179zM1701 655 q0 313 -219.5 533.5t-529.5 220.5t-529.5 -220.5t-219.5 -533.5t219.5 -534t529.5 -221t529.5 221t219.5 534zM1816 655q0 -358 -253.5 -611.5t-611.5 -253.5t-611.5 253.5t-253.5 611.5t253.5 611t611.5 253t611.5 -253t253.5 -611z"/>
<glyph glyph-name="ordfeminine" horiz-adv-x="1010" unicode="ª" d="M708 802v243q-65 -4 -151 -12t-137 -23q-60 -17 -97 -55.5t-37 -105.5q0 -75 44 -114t131 -39q76 0 136.5 33t110.5 73zM874 566h-166v91q-19 -15 -51 -38.5t-63 -37.5q-41 -19 -80.5 -29.5t-109.5 -10.5q-124 0 -207 83.5t-83 214.5q0 104 43 169.5t123 103.5 q75 36 189 51t239 21v19q0 52 -16.5 84t-48.5 50q-29 17 -72 22.5t-89 5.5q-78 0 -158.5 -23.5t-119.5 -37.5h-15v170q44 13 131.5 29t162.5 16q192 0 291.5 -76.5t99.5 -248.5v-628z"/>
<glyph glyph-name="guillemotleft" horiz-adv-x="1174" unicode="«" d="M613 162l-510 446v89l510 445v-196l-331 -294l331 -294v-196zM1043 191l-488 419v85l488 418v-188l-317 -273l317 -273v-188z"/>
<glyph glyph-name="logicalnot" horiz-adv-x="1490" unicode="¬" d="M1323 57h-171v545h-995v160h1166v-705z"/>
<glyph glyph-name="registered" horiz-adv-x="1902" unicode="®" d="M1120 868q0 37 -12 64t-42 46q-25 16 -56 21.5t-80 5.5h-115v-309h98q48 0 90 9.5t68 32.5t37.5 53t11.5 77zM1448 215h-227l-283 355h-123v-355h-165v915h279q94 0 148.5 -7t110.5 -39q60 -34 87 -82t27 -123q0 -100 -55.5 -164t-144.5 -100zM1701 655 q0 313 -219.5 533.5t-529.5 220.5t-529.5 -220.5t-219.5 -533.5t219.5 -534t529.5 -221t529.5 221t219.5 534zM1816 655q0 -358 -253.5 -611.5t-611.5 -253.5t-611.5 253.5t-253.5 611.5t253.5 611t611.5 253t611.5 -253t253.5 -611z"/>
<glyph glyph-name="overscore" horiz-adv-x="1118" unicode="¯" d="M1134 1659h-1150v130h1150v-130z"/>
<glyph glyph-name="degree" horiz-adv-x="964" unicode="°" d="M706 1135q0 96 -64 162t-160 66t-160 -66t-64 -162q0 -98 65.5 -163t158.5 -65q96 0 160 66.5t64 161.5zM863 1135q0 -160 -110 -270t-271 -110q-159 0 -270 109t-111 271q0 160 110 270t271 110t271 -110t110 -270z"/>
<glyph glyph-name="plusminus" horiz-adv-x="1490" unicode="±" d="M1328 159h-1166v158h500v422h-500v158h500v505h166v-505h500v-158h-500v-422h500v-158z"/>
<glyph glyph-name="twosuperior" horiz-adv-x="1010" unicode="²" d="M866 566h-681v152q77 59 147.5 113.5t114.5 97.5q106 102 139 159.5t33 138.5q0 69 -43 106.5t-119 37.5q-69 0 -139.5 -30t-111.5 -62h-15v179q63 27 139.5 44t150.5 17q156 0 239.5 -78.5t83.5 -201.5q0 -85 -39.5 -163.5t-147.5 -175.5q-52 -46 -121 -97.5t-123 -92.5 h493v-144z"/>
<glyph glyph-name="threesuperior" horiz-adv-x="1010" unicode="³" d="M837 828q0 -71 -30 -127.5t-78 -89.5q-53 -37 -114.5 -53t-140.5 -16q-82 0 -153.5 15t-136.5 43v175h17q37 -35 114 -64.5t156 -29.5q84 0 139 36.5t55 108.5t-43.5 107t-147.5 35h-140v139h125q87 0 134.5 38t47.5 104q0 60 -41 95.5t-128 35.5q-66 0 -142.5 -31 t-113.5 -66h-17v175q64 27 139 44t154 17q152 0 237 -70t85 -168q0 -87 -48.5 -143.5t-125.5 -82.5v-8q80 -16 138.5 -70.5t58.5 -148.5z"/>
<glyph glyph-name="acute" horiz-adv-x="1118" unicode="´" d="M871 1676l-273 -374h-149l179 374h243z"/>
<glyph glyph-name="mu1" horiz-adv-x="1163" unicode="µ" d="M1027 0h-172v116h-6q-60 -63 -120.5 -98t-150.5 -35q-92 0 -145 35t-109 97v-527h-188v1529h188v-842q42 -50 105 -80.5t149 -30.5q90 0 151.5 29t109.5 82v842h188v-1117z"/>
<glyph glyph-name="paragraph" horiz-adv-x="1118" unicode="¶" d="M982 -363h-140v1722h-187v-1722h-140v956q-206 5 -332 129t-126 328q0 207 130 323t373 116h422v-1852z"/>
<glyph glyph-name="middot" horiz-adv-x="724" unicode="·" d="M482 832h-239v285h239v-285z"/>
<glyph glyph-name="cedilla" horiz-adv-x="1118" unicode="¸" d="M767 20q1 -18 3.5 -45.5t2.5 -63.5q0 -162 -87 -248t-220 -86q-37 0 -87 6t-90 18v160h9q24 -11 63 -22.5t79 -11.5q94 0 134 39.5t40 126.5q0 26 -1 57t-3 70h157z"/>
<glyph glyph-name="onesuperior" horiz-adv-x="1010" unicode="¹" d="M811 566h-555v122h204v568h-212v112q45 0 94 6t74 19q31 16 48.5 38t20.5 62h135v-805h191v-122z"/>
<glyph glyph-name="ordmasculine" horiz-adv-x="1010" unicode="º" d="M746 1030q0 173 -64.5 256.5t-175.5 83.5t-176 -82.5t-65 -257.5q0 -169 64 -254.5t177 -85.5q111 0 175.5 85.5t64.5 254.5zM926 1030q0 -234 -117 -362t-303 -128q-193 0 -307 131.5t-114 358.5q0 233 117 361.5t304 128.5t303.5 -127t116.5 -363z"/>
<glyph glyph-name="guillemotright" horiz-adv-x="1174" unicode="»" d="M619 610l-488 -419v188l317 273l-317 273v188l488 -418v-85zM1071 608l-510 -446v196l331 294l-331 294v196l510 -445v-89z"/>
<glyph glyph-name="onequarter" horiz-adv-x="2048" unicode="¼" d="M1538 353v400l-343 -400h343zM1847 220h-163v-220h-150v220h-455v185l456 539h149v-591h163v-133zM1410 1489l-780 -1489h-165l780 1489h165zM545 565h-165v681h-209v117q102 0 165 22t72 108h137v-928z"/>
<glyph glyph-name="onehalf" horiz-adv-x="2048" unicode="½" d="M1946 0h-681v143q77 59 147.5 113.5t114.5 97.5q106 102 139 159.5t33 138.5q0 69 -43 106.5t-119 37.5q-69 0 -139.5 -30t-111.5 -62h-15v179q63 27 139.5 44t150.5 17q156 0 239.5 -78.5t83.5 -201.5q0 -114 -56.5 -193.5t-130.5 -145.5q-56 -49 -122.5 -97.5 t-119.5 -88.5h491v-139zM1410 1489l-780 -1489h-165l780 1489h165zM545 565h-165v681h-209v117q102 0 165 22t72 108h137v-928z"/>
<glyph glyph-name="threequarters" horiz-adv-x="2048" unicode="¾" d="M1594 353v400l-343 -400h343zM1903 220h-163v-220h-150v220h-455v185l456 539h149v-591h163v-133zM1500 1489l-780 -1489h-165l780 1489h165zM793 826q0 -71 -30 -127.5t-78 -89.5q-53 -37 -114.5 -53t-140.5 -16q-82 0 -153.5 15t-136.5 43v175h17q37 -35 114 -64.5 t156 -29.5q84 0 139 36.5t55 108.5q0 83 -50 112.5t-141 29.5h-140v139h125q87 0 134.5 38t47.5 104q0 60 -41 95.5t-128 35.5q-66 0 -142.5 -31t-113.5 -66h-17v175q64 27 139 44t154 17q152 0 237 -70t85 -168q0 -87 -48.5 -143.5t-125.5 -82.5v-8q80 -16 138.5 -70.5 t58.5 -148.5z"/>
<glyph glyph-name="questiondown" horiz-adv-x="970" unicode="¿" d="M861 40q-79 -30 -167 -50t-195 -20q-205 0 -323 104.5t-118 275.5q0 94 30 168t89 141q53 59 122.5 106.5t144.5 95.5v228h179v-305q-71 -43 -131.5 -81t-115.5 -89q-51 -48 -82.5 -109t-31.5 -140q0 -113 71 -168.5t185 -55.5q99 0 191 34.5t141 68.5h11v-204zM632 1278 h-204v211h204v-211z"/>
<glyph glyph-name="Agrave" horiz-adv-x="1228" unicode="À" d="M839 585l-230 702l-229 -702h459zM-10 0l502 1489h244l502 -1489h-209l-135 416h-569l-135 -416h-200zM769 1675h-149l-273 374h243z"/>
<glyph glyph-name="Aacute" horiz-adv-x="1228" unicode="Á" d="M839 585l-230 702l-229 -702h459zM-10 0l502 1489h244l502 -1489h-209l-135 416h-569l-135 -416h-200zM862 2049l-273 -374h-149l179 374h243z"/>
<glyph glyph-name="Acircumflex" horiz-adv-x="1228" unicode="Â" d="M839 585l-230 702l-229 -702h459zM-10 0l502 1489h244l502 -1489h-209l-135 416h-569l-135 -416h-200zM940 1650h-159l-185 256l-184 -256h-155l228 379h227z"/>
<glyph glyph-name="Atilde" horiz-adv-x="1228" unicode="Ã" d="M839 585l-230 702l-229 -702h459zM-10 0l502 1489h244l502 -1489h-209l-135 416h-569l-135 -416h-200zM1010 1965q-10 -156 -74.5 -234t-171.5 -78q-52 0 -96 19t-86 59q-44 41 -76 62.5t-63 21.5q-49 0 -68.5 -45t-23.5 -121h-140q7 154 76 232.5t169 78.5 q51 0 94 -19.5t86 -57.5q43 -39 77.5 -59.5t63.5 -20.5q47 0 68.5 45t24.5 117h140z"/>
<glyph glyph-name="Adieresis" horiz-adv-x="1228" unicode="Ä" d="M839 585l-230 702l-229 -702h459zM-10 0l502 1489h244l502 -1489h-209l-135 416h-569l-135 -416h-200zM500 1657h-201v195h201v-195zM913 1657h-201v195h201v-195z"/>
<glyph glyph-name="Aring" horiz-adv-x="1228" unicode="Å" d="M773 1683q0 73 -44 121.5t-115 48.5q-70 0 -114.5 -48.5t-44.5 -121.5q0 -74 45 -122.5t114 -48.5t114 48.5t45 122.5zM839 584l-230 705l-229 -705h459zM874.5 1532q-45.5 -69 -116.5 -107l480 -1425h-209l-135 416h-569l-135 -416h-200l479 1422q-72 40 -116.5 108.5 t-44.5 154.5q0 128 89 214.5t217 86.5q129 0 217.5 -86t88.5 -215q0 -84 -45.5 -153z"/>
<glyph glyph-name="AE" horiz-adv-x="1870" unicode="Æ" d="M890 723v601h-194l-245 -601h439zM1802 0h-912v557h-505l-217 -557h-207l603 1489h1238v-176h-716v-408h666v-176h-666v-553h716v-176z"/>
<glyph glyph-name="Ccedilla" horiz-adv-x="1230" unicode="Ç" d="M733 -27q-146 0 -268.5 49t-211.5 146t-138 242t-49 333q0 187 47.5 326t138.5 242q89 100 211 152.5t273 52.5q75 0 140.5 -11t121.5 -28q48 -15 98.5 -37.5t99.5 -49.5v-239h-16q-26 24 -67 58t-100 67q-57 31 -124 51t-155 20q-95 0 -180 -39t-149 -115 q-63 -76 -98 -191t-35 -259q0 -153 37 -263.5t101 -186.5q62 -74 146 -111.5t178 -37.5q86 0 159 21t130 53q55 31 95 63.5t63 55.5h15v-236q-49 -23 -92.5 -44t-105.5 -41q-8 -3 -23 -7.5t-21 -5.5q1 -15 3 -39t2 -53q0 -149 -82 -241.5t-227 -92.5q-37 0 -87 6t-90 18v160 h9q24 -11 63 -22.5t79 -11.5q94 0 138 39.5t44 126.5q0 18 -0.5 38t-1.5 45q-18 -1 -33.5 -2t-37.5 -1z"/>
<glyph glyph-name="Egrave" horiz-adv-x="1149" unicode="È" d="M151 0v1489h931v-176h-733v-408h683v-176h-683v-553h733v-176h-931zM754 1675h-149l-273 374h243z"/>
<glyph glyph-name="Eacute" horiz-adv-x="1149" unicode="É" d="M151 0v1489h931v-176h-733v-408h683v-176h-683v-553h733v-176h-931zM920 2049l-273 -374h-149l179 374h243z"/>
<glyph glyph-name="Ecircumflex" horiz-adv-x="1149" unicode="Ê" d="M151 0v1489h931v-176h-733v-408h683v-176h-683v-553h733v-176h-931zM961 1670h-159l-185 256l-184 -256h-155l228 379h227z"/>
<glyph glyph-name="Edieresis" horiz-adv-x="1149" unicode="Ë" d="M151 0v1489h931v-176h-733v-408h683v-176h-683v-553h733v-176h-931zM553 1677h-201v195h201v-195zM966 1677h-201v195h201v-195z"/>
<glyph glyph-name="Igrave" horiz-adv-x="764" unicode="Ì" d="M671 0h-578v152h190v1185h-190v152h578v-152h-190v-1185h190v-152zM529 1675h-149l-273 374h243z"/>
<glyph glyph-name="Iacute" horiz-adv-x="764" unicode="Í" d="M671 0h-578v152h190v1185h-190v152h578v-152h-190v-1185h190v-152zM657 2049l-273 -374h-149l179 374h243z"/>
<glyph glyph-name="Icircumflex" horiz-adv-x="764" unicode="Î" d="M671 0h-578v152h190v1185h-190v152h578v-152h-190v-1185h190v-152zM725 1670h-159l-185 256l-184 -256h-155l228 379h227z"/>
<glyph glyph-name="Idieresis" horiz-adv-x="764" unicode="Ï" d="M671 0h-578v152h190v1185h-190v152h578v-152h-190v-1185h190v-152zM277 1677h-201v195h201v-195zM690 1677h-201v195h201v-195z"/>
<glyph glyph-name="Eth" horiz-adv-x="1430" unicode="Ð" d="M1160 746q0 172 -57 293.5t-169 189.5q-79 48 -169 69t-224 21h-151v-436h327v-143h-327v-570h151q132 0 231 21.5t181 77.5q103 70 155 186.5t52 290.5zM1366 743q0 -204 -82.5 -368t-221.5 -256q-111 -74 -228.5 -96.5t-298.5 -22.5h-343v740h-168v143h168v606h339 q210 0 329.5 -31.5t203.5 -86.5q144 -95 223 -252.5t79 -375.5z"/>
<glyph glyph-name="Ntilde" horiz-adv-x="1367" unicode="Ñ" d="M1216 0h-222l-658 1284v-1284h-185v1489h281l599 -1179v1179h185v-1489zM1110 1985q-10 -156 -74.5 -234t-171.5 -78q-52 0 -96 19t-86 59q-44 41 -76 62.5t-63 21.5q-49 0 -68.5 -45t-23.5 -121h-140q7 154 76 232.5t169 78.5q51 0 94 -19.5t86 -57.5q43 -39 77.5 -59.5 t63.5 -20.5q47 0 68.5 45t24.5 117h140z"/>
<glyph glyph-name="Ograve" horiz-adv-x="1449" unicode="Ò" d="M1177 744q0 148 -32 262t-90 189q-59 77 -142.5 115.5t-187.5 38.5q-108 0 -188.5 -37.5t-142.5 -116.5q-59 -76 -90.5 -191t-31.5 -260q0 -293 123 -448.5t330 -155.5t329.5 155.5t122.5 448.5zM1204 1318q85 -98 132 -243t47 -331q0 -181 -46 -327t-133 -245 q-91 -104 -212.5 -153.5t-267.5 -49.5q-151 0 -272 51t-208 152q-86 99 -132 244t-46 328q0 188 46.5 330t132.5 244q86 99 207.5 150.5t271.5 51.5q152 0 274 -53t206 -149zM851 1675h-149l-273 374h243z"/>
<glyph glyph-name="Oacute" horiz-adv-x="1449" unicode="Ó" d="M1177 744q0 148 -32 262t-90 189q-59 77 -142.5 115.5t-187.5 38.5q-108 0 -188.5 -37.5t-142.5 -116.5q-59 -76 -90.5 -191t-31.5 -260q0 -293 123 -448.5t330 -155.5t329.5 155.5t122.5 448.5zM1204 1318q85 -98 132 -243t47 -331q0 -181 -46 -327t-133 -245 q-91 -104 -212.5 -153.5t-267.5 -49.5q-151 0 -272 51t-208 152q-86 99 -132 244t-46 328q0 188 46.5 330t132.5 244q86 99 207.5 150.5t271.5 51.5q152 0 274 -53t206 -149zM1002 2049l-273 -374h-149l179 374h243z"/>
<glyph glyph-name="Ocircumflex" horiz-adv-x="1449" unicode="Ô" d="M1177 744q0 148 -32 262t-90 189q-59 77 -142.5 115.5t-187.5 38.5q-108 0 -188.5 -37.5t-142.5 -116.5q-59 -76 -90.5 -191t-31.5 -260q0 -293 123 -448.5t330 -155.5t329.5 155.5t122.5 448.5zM1204 1318q85 -98 132 -243t47 -331q0 -181 -46 -327t-133 -245 q-91 -104 -212.5 -153.5t-267.5 -49.5q-151 0 -272 51t-208 152q-86 99 -132 244t-46 328q0 188 46.5 330t132.5 244q86 99 207.5 150.5t271.5 51.5q152 0 274 -53t206 -149zM1055 1670h-159l-185 256l-184 -256h-155l228 379h227z"/>
<glyph glyph-name="Otilde" horiz-adv-x="1449" unicode="Õ" d="M1177 744q0 148 -32 262t-90 189q-59 77 -142.5 115.5t-187.5 38.5q-108 0 -188.5 -37.5t-142.5 -116.5q-59 -76 -90.5 -191t-31.5 -260q0 -293 123 -448.5t330 -155.5t329.5 155.5t122.5 448.5zM1204 1318q85 -98 132 -243t47 -331q0 -181 -46 -327t-133 -245 q-91 -104 -212.5 -153.5t-267.5 -49.5q-151 0 -272 51t-208 152q-86 99 -132 244t-46 328q0 188 46.5 330t132.5 244q86 99 207.5 150.5t271.5 51.5q152 0 274 -53t206 -149zM1110 1985q-10 -156 -74.5 -234t-171.5 -78q-52 0 -96 19t-86 59q-44 41 -76 62.5t-63 21.5 q-49 0 -68.5 -45t-23.5 -121h-140q7 154 76 232.5t169 78.5q51 0 94 -19.5t86 -57.5q43 -39 77.5 -59.5t63.5 -20.5q47 0 68.5 45t24.5 117h140z"/>
<glyph glyph-name="Odieresis" horiz-adv-x="1449" unicode="Ö" d="M1177 744q0 148 -32 262t-90 189q-59 77 -142.5 115.5t-187.5 38.5q-108 0 -188.5 -37.5t-142.5 -116.5q-59 -76 -90.5 -191t-31.5 -260q0 -293 123 -448.5t330 -155.5t329.5 155.5t122.5 448.5zM1204 1318q85 -98 132 -243t47 -331q0 -181 -46 -327t-133 -245 q-91 -104 -212.5 -153.5t-267.5 -49.5q-151 0 -272 51t-208 152q-86 99 -132 244t-46 328q0 188 46.5 330t132.5 244q86 99 207.5 150.5t271.5 51.5q152 0 274 -53t206 -149zM614 1677h-201v195h201v-195zM1027 1677h-201v195h201v-195z"/>
<glyph glyph-name="multiply" horiz-adv-x="1490" unicode="×" d="M1282 226l-111 -111l-426 430l-426 -430l-111 111l430 426l-430 426l111 111l426 -430l426 430l111 -111l-430 -426z"/>
<glyph glyph-name="Oslash" horiz-adv-x="1449" unicode="Ø" d="M1179 744q0 138 -27.5 246t-73.5 179l-628 -937q57 -46 120.5 -69t154.5 -23q206 0 330 155.5t124 448.5zM995 1260q-52 44 -120 66.5t-150 22.5q-208 0 -331.5 -154t-123.5 -451q0 -135 26 -239.5t73 -180.5zM1383 744q0 -368 -180 -571.5t-479 -203.5q-110 0 -204.5 29 t-171.5 82l-132 -196h-148l189 278q-90 99 -140.5 245t-50.5 337q0 368 180.5 572t477.5 204q114 0 203.5 -27.5t169.5 -82.5l115 171h148l-171 -251q91 -100 142.5 -243.5t51.5 -342.5z"/>
<glyph glyph-name="Ugrave" horiz-adv-x="1343" unicode="Ù" d="M671 -31q-131 0 -229 34.5t-167 102.5q-78 78 -110 186.5t-32 267.5v929h198v-929q0 -103 13 -173.5t51 -126.5q40 -60 108.5 -91t167.5 -31q93 0 165 31t112 91q37 57 50.5 126t13.5 169v934h198v-929q0 -155 -31.5 -266t-110.5 -188q-71 -69 -165.5 -103t-231.5 -34z M854 1675h-149l-273 374h243z"/>
<glyph glyph-name="Uacute" horiz-adv-x="1343" unicode="Ú" d="M671 -31q-131 0 -229 34.5t-167 102.5q-78 78 -110 186.5t-32 267.5v929h198v-929q0 -103 13 -173.5t51 -126.5q40 -60 108.5 -91t167.5 -31q93 0 165 31t112 91q37 57 50.5 126t13.5 169v934h198v-929q0 -155 -31.5 -266t-110.5 -188q-71 -69 -165.5 -103t-231.5 -34z M995 2049l-273 -374h-149l179 374h243z"/>
<glyph glyph-name="Ucircumflex" horiz-adv-x="1343" unicode="Û" d="M671 -31q-131 0 -229 34.5t-167 102.5q-78 78 -110 186.5t-32 267.5v929h198v-929q0 -103 13 -173.5t51 -126.5q40 -60 108.5 -91t167.5 -31q93 0 165 31t112 91q37 57 50.5 126t13.5 169v934h198v-929q0 -155 -31.5 -266t-110.5 -188q-71 -69 -165.5 -103t-231.5 -34z M1006 1670h-159l-185 256l-184 -256h-155l228 379h227z"/>
<glyph glyph-name="Udieresis" horiz-adv-x="1343" unicode="Ü" d="M671 -31q-131 0 -229 34.5t-167 102.5q-78 78 -110 186.5t-32 267.5v929h198v-929q0 -103 13 -173.5t51 -126.5q40 -60 108.5 -91t167.5 -31q93 0 165 31t112 91q37 57 50.5 126t13.5 169v934h198v-929q0 -155 -31.5 -266t-110.5 -188q-71 -69 -165.5 -103t-231.5 -34z M591 1677h-201v195h201v-195zM1004 1677h-201v195h201v-195z"/>
<glyph glyph-name="Yacute" horiz-adv-x="1180" unicode="Ý" d="M1193 1489l-503 -830v-659h-198v638l-503 851h220l384 -657l390 657h210zM891 2049l-273 -374h-149l179 374h243z"/>
<glyph glyph-name="Thorn" horiz-adv-x="1158" unicode="Þ" d="M889 782q0 72 -26 125.5t-82 88.5q-48 30 -112 42.5t-154 12.5h-166v-563h137q119 0 195 20.5t123 65.5q44 41 64.5 92t20.5 116zM1095 787q0 -92 -35 -176.5t-95 -141.5q-78 -75 -187.5 -111t-260.5 -36h-168v-322h-198v1489h198v-270h175q133 0 230 -22.5t164 -66.5 q83 -53 130 -138t47 -205z"/>
<glyph glyph-name="germandbls" horiz-adv-x="1123" unicode="ß" d="M1068 481q0 -218 -135 -361.5t-351 -143.5q-25 0 -62.5 3t-59.5 7v166h10q28 -8 59 -12.5t61 -4.5q77 0 131.5 27.5t87.5 74.5q35 51 49.5 111t14.5 141q0 169 -103 248.5t-304 79.5v157q152 0 233.5 57.5t81.5 190.5q0 33 -10 68.5t-34 63.5q-24 29 -62 46.5t-97 17.5 q-53 0 -96 -14.5t-81 -54.5q-36 -37 -56.5 -103t-20.5 -160v-1086h-188v1080q0 130 34 218t95 150q60 60 142.5 89t174.5 29q168 0 279.5 -85t111.5 -240q0 -112 -71 -201t-184 -121v-9q164 -37 257 -147t93 -282z"/>
<glyph glyph-name="agrave" horiz-adv-x="1075" unicode="à" d="M760 119q-23 -17 -61.5 -47.5t-74.5 -48.5q-50 -26 -96.5 -40t-130.5 -14q-69 0 -131 26t-109 73q-45 46 -72 113.5t-27 142.5q0 116 49 197.5t155 129.5q94 43 222 59.5t276 24.5v36q0 66 -20 106.5t-56 62.5q-36 23 -88 30.5t-107 7.5q-65 0 -153 -19.5t-176 -56.5h-11 v191q52 15 149 33t192 18q115 0 194 -18t142 -65q61 -46 91 -119t30 -178v-764h-187v119zM760 275v310q-67 -6 -169.5 -16.5t-165.5 -29.5q-75 -23 -124 -70.5t-49 -132.5q0 -96 54 -145t158 -49q89 0 161 38.5t135 94.5zM668 1302h-149l-273 374h243z"/>
<glyph glyph-name="aacute" horiz-adv-x="1075" unicode="á" d="M760 119q-23 -17 -61.5 -47.5t-74.5 -48.5q-50 -26 -96.5 -40t-130.5 -14q-69 0 -131 26t-109 73q-45 46 -72 113.5t-27 142.5q0 116 49 197.5t155 129.5q94 43 222 59.5t276 24.5v36q0 66 -20 106.5t-56 62.5q-36 23 -88 30.5t-107 7.5q-65 0 -153 -19.5t-176 -56.5h-11 v191q52 15 149 33t192 18q115 0 194 -18t142 -65q61 -46 91 -119t30 -178v-764h-187v119zM760 275v310q-67 -6 -169.5 -16.5t-165.5 -29.5q-75 -23 -124 -70.5t-49 -132.5q0 -96 54 -145t158 -49q89 0 161 38.5t135 94.5zM837 1676l-273 -374h-149l179 374h243z"/>
<glyph glyph-name="acircumflex" horiz-adv-x="1075" unicode="â" d="M760 119q-23 -17 -61.5 -47.5t-74.5 -48.5q-50 -26 -96.5 -40t-130.5 -14q-69 0 -131 26t-109 73q-45 46 -72 113.5t-27 142.5q0 116 49 197.5t155 129.5q94 43 222 59.5t276 24.5v36q0 66 -20 106.5t-56 62.5q-36 23 -88 30.5t-107 7.5q-65 0 -153 -19.5t-176 -56.5h-11 v191q52 15 149 33t192 18q115 0 194 -18t142 -65q61 -46 91 -119t30 -178v-764h-187v119zM760 275v310q-67 -6 -169.5 -16.5t-165.5 -29.5q-75 -23 -124 -70.5t-49 -132.5q0 -96 54 -145t158 -49q89 0 161 38.5t135 94.5zM876 1297h-159l-185 256l-184 -256h-155l228 379 h227z"/>
<glyph glyph-name="atilde" horiz-adv-x="1075" unicode="ã" d="M760 119q-23 -17 -61.5 -47.5t-74.5 -48.5q-50 -26 -96.5 -40t-130.5 -14q-69 0 -131 26t-109 73q-45 46 -72 113.5t-27 142.5q0 116 49 197.5t155 129.5q94 43 222 59.5t276 24.5v36q0 66 -20 106.5t-56 62.5q-36 23 -88 30.5t-107 7.5q-65 0 -153 -19.5t-176 -56.5h-11 v191q52 15 149 33t192 18q115 0 194 -18t142 -65q61 -46 91 -119t30 -178v-764h-187v119zM760 275v310q-67 -6 -169.5 -16.5t-165.5 -29.5q-75 -23 -124 -70.5t-49 -132.5q0 -96 54 -145t158 -49q89 0 161 38.5t135 94.5zM933 1632q-10 -156 -74.5 -234t-171.5 -78 q-52 0 -96 19t-86 59q-44 41 -76 62.5t-63 21.5q-49 0 -68.5 -45t-23.5 -121h-140q7 154 76 232.5t169 78.5q51 0 94 -19.5t86 -57.5q43 -39 77.5 -59.5t63.5 -20.5q47 0 68.5 45t24.5 117h140z"/>
<glyph glyph-name="adieresis" horiz-adv-x="1075" unicode="ä" d="M760 119q-23 -17 -61.5 -47.5t-74.5 -48.5q-50 -26 -96.5 -40t-130.5 -14q-69 0 -131 26t-109 73q-45 46 -72 113.5t-27 142.5q0 116 49 197.5t155 129.5q94 43 222 59.5t276 24.5v36q0 66 -20 106.5t-56 62.5q-36 23 -88 30.5t-107 7.5q-65 0 -153 -19.5t-176 -56.5h-11 v191q52 15 149 33t192 18q115 0 194 -18t142 -65q61 -46 91 -119t30 -178v-764h-187v119zM760 275v310q-67 -6 -169.5 -16.5t-165.5 -29.5q-75 -23 -124 -70.5t-49 -132.5q0 -96 54 -145t158 -49q89 0 161 38.5t135 94.5zM422 1304h-201v195h201v-195zM835 1304h-201v195 h201v-195z"/>
<glyph glyph-name="aring" horiz-adv-x="1075" unicode="å" d="M685 1420q0 73 -44 121.5t-115 48.5q-70 0 -114.5 -48.5t-44.5 -121.5q0 -74 45 -123t114 -49t114 49t45 123zM760 119q-23 -17 -61.5 -47t-74.5 -49q-50 -26 -96.5 -40t-130.5 -14q-69 0 -131 26t-109 73q-46 46 -72.5 113.5t-26.5 142.5q0 116 49 197.5t155 129.5 q94 43 222 59.5t276 24.5v36q0 66 -20 106.5t-56 62.5q-36 23 -88 30.5t-107 7.5q-52 0 -104.5 -10t-86.5 -19q-46 -12 -82 -25.5t-56 -21.5h-11v191q47 14 117.5 27t159.5 19q-90 36 -148 110t-58 172q0 128 89 214.5t217 86.5q129 0 217.5 -86t88.5 -215q0 -99 -60.5 -176 t-157.5 -111q86 -12 146.5 -39t99.5 -68q43 -46 65 -109.5t22 -153.5v-764h-187v119zM760 275v310q-67 -6 -169.5 -16.5t-165.5 -29.5q-75 -23 -124 -70.5t-49 -132.5q0 -96 54 -145t158 -49q89 0 161 38.5t135 94.5z"/>
<glyph glyph-name="ae" horiz-adv-x="1802" unicode="æ" d="M1567 703q-5 59 -20.5 112.5t-47.5 92.5q-31 38 -85 61.5t-127 23.5q-78 0 -129.5 -21.5t-94.5 -62.5q-40 -38 -64.5 -92.5t-34.5 -113.5h603zM1340 138q65 0 125.5 14.5t106.5 35.5q51 23 86 44.5t58 40.5h11v-205l-82.5 -32.5t-88.5 -30.5q-55 -15 -99.5 -23t-114.5 -8 q-161 0 -276 52t-189 155q-21 -19 -64.5 -59.5t-91.5 -68.5q-65 -38 -134.5 -60t-179.5 -22q-146 0 -247.5 97t-101.5 249q0 129 53 204t150 117q92 39 231.5 52t293.5 16v58q0 65 -21.5 108t-60.5 67q-36 22 -87.5 31.5t-116.5 9.5q-81 0 -176.5 -26.5t-152.5 -51.5h-15 v191q49 14 151.5 33.5t193.5 19.5q160 0 260 -48t153 -136q66 81 165 133.5t217 52.5q224 0 338.5 -134.5t114.5 -372.5v-82h-788q0 -114 30 -195.5t83 -132.5q53 -50 120 -71.5t146 -21.5zM817 298q-19 54 -29 119.5t-10 140.5q-95 -3 -189.5 -8.5t-169.5 -26.5 q-74 -20 -121 -66t-47 -127q0 -95 56 -141.5t167 -46.5q91 0 184 44t159 112z"/>
<glyph glyph-name="ccedilla" horiz-adv-x="945" unicode="ç" d="M580 -25q-115 0 -211 35.5t-165 107.5t-107 181.5t-38 257.5q0 147 39.5 254t105.5 180t164.5 112.5t211.5 39.5q92 0 177.5 -26t152.5 -60v-211h-11q-20 17 -51.5 39t-76.5 45q-39 20 -92 35t-102 15q-146 0 -234.5 -110.5t-88.5 -312.5q0 -198 85.5 -308.5 t237.5 -110.5q92 0 175 38t147 98h11v-211q-28 -13 -65 -29t-68 -26q1 -16 3 -42t2 -55q0 -149 -82 -241.5t-227 -92.5q-37 0 -87 6t-90 18v160h9q24 -11 63 -22.5t79 -11.5q94 0 138 39.5t44 126.5q0 18 -0.5 38.5t-1.5 45.5q-13 0 -22.5 -1t-24.5 -1z"/>
<glyph glyph-name="egrave" horiz-adv-x="1078" unicode="è" d="M841 683q-2 76 -18 131t-46 93q-33 42 -84.5 64t-127.5 22q-75 0 -127.5 -22.5t-95.5 -65.5q-42 -44 -64 -97.5t-28 -124.5h591zM621 -26q-267 0 -414.5 150.5t-147.5 427.5q0 273 143 434.5t374 161.5q104 0 184 -30t140 -94t92 -156.5t32 -226.5v-102h-774 q0 -195 98 -298t271 -103q62 0 121.5 14t107.5 36q51 23 86 44.5t58 40.5h11v-205q-33 -13 -82 -32.5t-88 -30.5q-55 -15 -99.5 -23t-112.5 -8zM685 1302h-149l-273 374h243z"/>
<glyph glyph-name="eacute" horiz-adv-x="1078" unicode="é" d="M841 683q-2 76 -18 131t-46 93q-33 42 -84.5 64t-127.5 22q-75 0 -127.5 -22.5t-95.5 -65.5q-42 -44 -64 -97.5t-28 -124.5h591zM621 -26q-267 0 -414.5 150.5t-147.5 427.5q0 273 143 434.5t374 161.5q104 0 184 -30t140 -94t92 -156.5t32 -226.5v-102h-774 q0 -195 98 -298t271 -103q62 0 121.5 14t107.5 36q51 23 86 44.5t58 40.5h11v-205q-33 -13 -82 -32.5t-88 -30.5q-55 -15 -99.5 -23t-112.5 -8zM889 1676l-273 -374h-149l179 374h243z"/>
<glyph glyph-name="ecircumflex" horiz-adv-x="1078" unicode="ê" d="M841 683q-2 76 -18 131t-46 93q-33 42 -84.5 64t-127.5 22q-75 0 -127.5 -22.5t-95.5 -65.5q-42 -44 -64 -97.5t-28 -124.5h591zM621 -26q-267 0 -414.5 150.5t-147.5 427.5q0 273 143 434.5t374 161.5q104 0 184 -30t140 -94t92 -156.5t32 -226.5v-102h-774 q0 -195 98 -298t271 -103q62 0 121.5 14t107.5 36q51 23 86 44.5t58 40.5h11v-205q-33 -13 -82 -32.5t-88 -30.5q-55 -15 -99.5 -23t-112.5 -8zM915 1297h-159l-185 256l-184 -256h-155l228 379h227z"/>
<glyph glyph-name="edieresis" horiz-adv-x="1078" unicode="ë" d="M841 683q-2 76 -18 131t-46 93q-33 42 -84.5 64t-127.5 22q-75 0 -127.5 -22.5t-95.5 -65.5q-42 -44 -64 -97.5t-28 -124.5h591zM621 -26q-267 0 -414.5 150.5t-147.5 427.5q0 273 143 434.5t374 161.5q104 0 184 -30t140 -94t92 -156.5t32 -226.5v-102h-774 q0 -195 98 -298t271 -103q62 0 121.5 14t107.5 36q51 23 86 44.5t58 40.5h11v-205q-33 -13 -82 -32.5t-88 -30.5q-55 -15 -99.5 -23t-112.5 -8zM467 1304h-201v195h201v-195zM880 1304h-201v195h201v-195z"/>
<glyph glyph-name="igrave" horiz-adv-x="468" unicode="ì" d="M328 0h-188v1117h188v-1117zM421 1302h-149l-273 374h243z"/>
<glyph glyph-name="iacute" horiz-adv-x="468" unicode="í" d="M328 0h-188v1117h188v-1117zM542 1676l-273 -374h-149l179 374h243z"/>
<glyph glyph-name="icircumflex" horiz-adv-x="468" unicode="î" d="M521 1297h-151l-139 263l-138 -263h-147l174 379h227zM328 0h-188v1117h188v-1117z"/>
<glyph glyph-name="idieresis" horiz-adv-x="468" unicode="ï" d="M151 1304h-189v195h189v-195zM506 1304h-189v195h189v-195zM328 0h-188v1117h188v-1117z"/>
<glyph glyph-name="eth" horiz-adv-x="1118" unicode="ð" d="M769 226q46 59 70.5 143.5t24.5 234.5q0 32 -1.5 59.5t-3.5 57.5q-73 46 -150 67t-157 21q-127 0 -213.5 -80t-86.5 -247q0 -180 80 -267t216 -87q64 0 121.5 22t99.5 76zM1053 637q0 -323 -136 -495.5t-370 -172.5q-214 0 -352 131t-138 384q0 231 137 360.5t324 129.5 q100 0 174 -26.5t157 -79.5q-31 112 -97.5 220.5t-145.5 178.5l-262 -161l-66 97l238 143q-82 68 -156 106.5t-161 82.5v21h296q38 -28 79.5 -59t82.5 -60l212 129l66 -97l-190 -111q130 -130 219 -305.5t89 -415.5z"/>
<glyph glyph-name="ntilde" horiz-adv-x="1142" unicode="ñ" d="M1014 0h-188v636q0 77 -7.5 143.5t-28.5 106.5q-23 42 -64 62.5t-112 20.5q-70 0 -144.5 -37.5t-145.5 -97.5v-834h-188v1117h188v-124q84 75 166 115t173 40q165 0 258 -108.5t93 -314.5v-725zM978 1632q-10 -156 -74.5 -234t-171.5 -78q-52 0 -96 19t-86 59 q-44 41 -76 62.5t-63 21.5q-49 0 -68.5 -45t-23.5 -121h-140q7 154 76 232.5t169 78.5q51 0 94 -19.5t86 -57.5q43 -39 77.5 -59.5t63.5 -20.5q47 0 68.5 45t24.5 117h140z"/>
<glyph glyph-name="ograve" horiz-adv-x="1112" unicode="ò" d="M861 558q0 217 -79 322.5t-225 105.5q-147 0 -226.5 -105.5t-79.5 -322.5q0 -210 79.5 -318.5t226.5 -108.5q145 0 224.5 106.5t79.5 320.5zM1055 558q0 -282 -136 -435.5t-362 -153.5q-233 0 -366.5 158.5t-133.5 430.5q0 280 137.5 435t362.5 155q226 0 362 -154.5 t136 -435.5zM667 1302h-149l-273 374h243z"/>
<glyph glyph-name="oacute" horiz-adv-x="1112" unicode="ó" d="M861 558q0 217 -79 322.5t-225 105.5q-147 0 -226.5 -105.5t-79.5 -322.5q0 -210 79.5 -318.5t226.5 -108.5q145 0 224.5 106.5t79.5 320.5zM1055 558q0 -282 -136 -435.5t-362 -153.5q-233 0 -366.5 158.5t-133.5 430.5q0 280 137.5 435t362.5 155q226 0 362 -154.5 t136 -435.5zM868 1676l-273 -374h-149l179 374h243z"/>
<glyph glyph-name="ocircumflex" horiz-adv-x="1112" unicode="ô" d="M861 558q0 217 -79 322.5t-225 105.5q-147 0 -226.5 -105.5t-79.5 -322.5q0 -210 79.5 -318.5t226.5 -108.5q145 0 224.5 106.5t79.5 320.5zM1055 558q0 -282 -136 -435.5t-362 -153.5q-233 0 -366.5 158.5t-133.5 430.5q0 280 137.5 435t362.5 155q226 0 362 -154.5 t136 -435.5zM900 1297h-159l-185 256l-184 -256h-155l228 379h227z"/>
<glyph glyph-name="otilde" horiz-adv-x="1112" unicode="õ" d="M861 558q0 217 -79 322.5t-225 105.5q-147 0 -226.5 -105.5t-79.5 -322.5q0 -210 79.5 -318.5t226.5 -108.5q145 0 224.5 106.5t79.5 320.5zM1055 558q0 -282 -136 -435.5t-362 -153.5q-233 0 -366.5 158.5t-133.5 430.5q0 280 137.5 435t362.5 155q226 0 362 -154.5 t136 -435.5zM957 1632q-10 -156 -74.5 -234t-171.5 -78q-52 0 -96 19t-86 59q-44 41 -76 62.5t-63 21.5q-49 0 -68.5 -45t-23.5 -121h-140q7 154 76 232.5t169 78.5q51 0 94 -19.5t86 -57.5q43 -39 77.5 -59.5t63.5 -20.5q47 0 68.5 45t24.5 117h140z"/>
<glyph glyph-name="odieresis" horiz-adv-x="1112" unicode="ö" d="M861 558q0 217 -79 322.5t-225 105.5q-147 0 -226.5 -105.5t-79.5 -322.5q0 -210 79.5 -318.5t226.5 -108.5q145 0 224.5 106.5t79.5 320.5zM1055 558q0 -282 -136 -435.5t-362 -153.5q-233 0 -366.5 158.5t-133.5 430.5q0 280 137.5 435t362.5 155q226 0 362 -154.5 t136 -435.5zM451 1304h-201v195h201v-195zM864 1304h-201v195h201v-195z"/>
<glyph glyph-name="divide" horiz-adv-x="1490" unicode="÷" d="M864 17h-238v275h238v-275zM1333 572h-1176v160h1176v-160zM864 1012h-238v275h238v-275z"/>
<glyph glyph-name="oslash" horiz-adv-x="1112" unicode="ø" d="M864 558q0 99 -14.5 173t-42.5 125l-429 -669q38 -29 79.5 -42.5t99.5 -13.5q145 0 226 106.5t81 320.5zM735 932q-34 26 -78 40t-100 14q-147 0 -228 -107.5t-81 -320.5q0 -97 14.5 -169.5t43.5 -126.5zM1055 558q0 -282 -136 -435t-362 -153q-79 0 -145 20.5t-124 56.5 l-123 -194h-124l168 261q-72 76 -112 187t-40 257q0 280 137.5 434.5t362.5 154.5q75 0 142 -20t124 -57l108 170h125l-152 -236q71 -77 111 -186t40 -260z"/>
<glyph glyph-name="ugrave" horiz-adv-x="1142" unicode="ù" d="M1006 0h-188v124q-87 -76 -165 -115.5t-174 -39.5q-73 0 -137.5 24t-112.5 76t-74.5 131t-26.5 192v725h188v-636q0 -89 6.5 -147.5t29.5 -102.5q23 -43 62.5 -63t113.5 -20q69 0 147 39t143 96v834h188v-1117zM687 1302h-149l-273 374h243z"/>
<glyph glyph-name="uacute" horiz-adv-x="1142" unicode="ú" d="M1006 0h-188v124q-87 -76 -165 -115.5t-174 -39.5q-73 0 -137.5 24t-112.5 76t-74.5 131t-26.5 192v725h188v-636q0 -89 6.5 -147.5t29.5 -102.5q23 -43 62.5 -63t113.5 -20q69 0 147 39t143 96v834h188v-1117zM868 1676l-273 -374h-149l179 374h243z"/>
<glyph glyph-name="ucircumflex" horiz-adv-x="1142" unicode="û" d="M1006 0h-188v124q-87 -76 -165 -115.5t-174 -39.5q-73 0 -137.5 24t-112.5 76t-74.5 131t-26.5 192v725h188v-636q0 -89 6.5 -147.5t29.5 -102.5q23 -43 62.5 -63t113.5 -20q69 0 147 39t143 96v834h188v-1117zM908 1297h-159l-185 256l-184 -256h-155l228 379h227z"/>
<glyph glyph-name="udieresis" horiz-adv-x="1142" unicode="ü" d="M1006 0h-188v124q-87 -76 -165 -115.5t-174 -39.5q-73 0 -137.5 24t-112.5 76t-74.5 131t-26.5 192v725h188v-636q0 -89 6.5 -147.5t29.5 -102.5q23 -43 62.5 -63t113.5 -20q69 0 147 39t143 96v834h188v-1117zM466 1304h-201v195h201v-195zM879 1304h-201v195h201v-195z "/>
<glyph glyph-name="yacute" horiz-adv-x="1020" unicode="ý" d="M1014 1117l-601 -1529h-201l200 466l-406 1063h203l305 -827l304 827h196zM811 1676l-273 -374h-149l179 374h243z"/>
<glyph glyph-name="thorn" horiz-adv-x="1132" unicode="þ" d="M879 567q0 191 -61 296.5t-198 105.5q-80 0 -154.5 -35.5t-141.5 -91.5v-633q74 -36 126.5 -49t120.5 -13q146 0 227 107t81 313zM1073 588q0 -279 -133.5 -444.5t-337.5 -165.5q-83 0 -147 19t-131 59v-468h-188v1968h188v-556q70 63 155.5 105.5t186.5 42.5 q192 0 299.5 -152t107.5 -408z"/>
<glyph glyph-name="ydieresis" horiz-adv-x="1020" unicode="ÿ" d="M1014 1117l-601 -1529h-201l200 466l-406 1063h203l305 -827l304 827h196zM416 1304h-201v195h201v-195zM829 1304h-201v195h201v-195z"/>
<glyph glyph-name="Amacron" horiz-adv-x="1228" unicode="Ā" d="M839 585l-230 702l-229 -702h459zM-10 0l502 1489h244l502 -1489h-209l-135 416h-569l-135 -416h-200zM991 1698h-754v154h754v-154z"/>
<glyph glyph-name="amacron" horiz-adv-x="1075" unicode="ā" d="M760 119q-23 -17 -61.5 -47.5t-74.5 -48.5q-50 -26 -96.5 -40t-130.5 -14q-69 0 -131 26t-109 73q-45 46 -72 113.5t-27 142.5q0 116 49 197.5t155 129.5q94 43 222 59.5t276 24.5v36q0 66 -20 106.5t-56 62.5q-36 23 -88 30.5t-107 7.5q-65 0 -153 -19.5t-176 -56.5h-11 v191q52 15 149 33t192 18q115 0 194 -18t142 -65q61 -46 91 -119t30 -178v-764h-187v119zM760 275v310q-67 -6 -169.5 -16.5t-165.5 -29.5q-75 -23 -124 -70.5t-49 -132.5q0 -96 54 -145t158 -49q89 0 161 38.5t135 94.5zM906 1335h-754v154h754v-154z"/>
<glyph glyph-name="Abreve" horiz-adv-x="1228" unicode="Ă" d="M839 585l-230 702l-229 -702h459zM-10 0l502 1489h244l502 -1489h-209l-135 416h-569l-135 -416h-200zM943 2009q0 -86 -21 -156.5t-60 -118.5q-45 -53 -102 -79.5t-146 -26.5q-82 0 -143.5 27.5t-103.5 78.5q-41 50 -62 120t-21 155h162q0 -135 42 -194.5t126 -59.5 q79 0 123 58.5t44 195.5h162z"/>
<glyph glyph-name="abreve" horiz-adv-x="1075" unicode="ă" d="M760 119q-23 -17 -61.5 -47.5t-74.5 -48.5q-50 -26 -96.5 -40t-130.5 -14q-69 0 -131 26t-109 73q-45 46 -72 113.5t-27 142.5q0 116 49 197.5t155 129.5q94 43 222 59.5t276 24.5v36q0 66 -20 106.5t-56 62.5q-36 23 -88 30.5t-107 7.5q-65 0 -153 -19.5t-176 -56.5h-11 v191q52 15 149 33t192 18q115 0 194 -18t142 -65q61 -46 91 -119t30 -178v-764h-187v119zM760 275v310q-67 -6 -169.5 -16.5t-165.5 -29.5q-75 -23 -124 -70.5t-49 -132.5q0 -96 54 -145t158 -49q89 0 161 38.5t135 94.5zM852 1636q0 -86 -21 -156.5t-60 -118.5 q-45 -53 -102 -79.5t-146 -26.5q-82 0 -143.5 27.5t-103.5 78.5q-41 50 -62 120t-21 155h162q0 -135 42 -194.5t126 -59.5q79 0 123 58.5t44 195.5h162z"/>
<glyph glyph-name="Aogonek" horiz-adv-x="1228" unicode="Ą" d="M839 585l-230 702l-229 -702h459zM964 -117q0 58 14.5 109.5t25.5 85.5l-110 338h-569l-135 -416h-200l502 1489h244l502 -1489h-99q-6 -28 -10.5 -48.5t-4.5 -58.5q0 -81 33 -121t121 -40q33 0 65.5 9.5t51.5 20.5h9v-158q-36 -10 -76.5 -15.5t-74.5 -5.5 q-124 0 -206.5 75t-82.5 225z"/>
<glyph glyph-name="aogonek" horiz-adv-x="1075" unicode="ą" d="M760 119q-23 -17 -61.5 -47.5t-74.5 -48.5q-50 -26 -96.5 -40t-130.5 -14q-69 0 -131 26t-109 73q-45 46 -72 113.5t-27 142.5q0 116 49 197.5t155 129.5q94 43 222 59.5t276 24.5v36q0 66 -20 106.5t-56 62.5q-36 23 -88 30.5t-107 7.5q-65 0 -153 -19.5t-176 -56.5h-11 v191q52 15 149 33t192 18q115 0 194 -18t142 -65q61 -46 91 -119t30 -178v-764h-34q-6 -26 -9.5 -53t-3.5 -54q0 -81 33 -121t121 -40q33 0 65.5 9.5t51.5 20.5h9v-158q-36 -10 -76.5 -15.5t-74.5 -5.5q-123 0 -206 74t-83 226q0 33 5.5 63t14.5 61v112zM760 275v310 q-67 -6 -169.5 -16.5t-165.5 -29.5q-75 -23 -124 -70.5t-49 -132.5q0 -96 54 -145t158 -49q89 0 161 38.5t135 94.5z"/>
<glyph glyph-name="Cacute" horiz-adv-x="1230" unicode="Ć" d="M733 -27q-146 0 -268.5 49t-211.5 146t-138 242t-49 333q0 187 47.5 326t138.5 242q89 100 211 152.5t273 52.5q75 0 140.5 -11t121.5 -28q48 -15 98.5 -37.5t99.5 -49.5v-239h-16q-26 24 -67 58t-100 67q-57 31 -124 51t-155 20q-95 0 -180 -39t-149 -115 q-63 -76 -98 -191t-35 -259q0 -153 37 -263.5t101 -186.5q62 -74 146 -111.5t178 -37.5q86 0 159 21t130 53q55 31 95 63.5t63 55.5h15v-236q-49 -23 -92.5 -44t-105.5 -41q-65 -21 -120.5 -32t-144.5 -11zM971 2049l-273 -374h-149l179 374h243z"/>
<glyph glyph-name="cacute" horiz-adv-x="945" unicode="ć" d="M492 876h76q-58 -118 -88 -166t-107 -143h1595v-101h-1595q104 -108 198 -309h-78q-129 145 -222 219t-192 122v45q87 37 184 113t229 220z"/>
<glyph glyph-name="Ccircumflex" horiz-adv-x="1230" unicode="Ĉ" d="M733 -27q-146 0 -268.5 49t-211.5 146t-138 242t-49 333q0 187 47.5 326t138.5 242q89 100 211 152.5t273 52.5q75 0 140.5 -11t121.5 -28q48 -15 98.5 -37.5t99.5 -49.5v-239h-16q-26 24 -67 58t-100 67q-57 31 -124 51t-155 20q-95 0 -180 -39t-149 -115 q-63 -76 -98 -191t-35 -259q0 -153 37 -263.5t101 -186.5q62 -74 146 -111.5t178 -37.5q86 0 159 21t130 53q55 31 95 63.5t63 55.5h15v-236q-49 -23 -92.5 -44t-105.5 -41q-65 -21 -120.5 -32t-144.5 -11zM1052 1670h-159l-185 256l-184 -256h-155l228 379h227z"/>
<glyph glyph-name="ccircumflex" horiz-adv-x="945" unicode="ĉ" d="M580 -25q-115 0 -211 35.5t-165 107.5t-107 181.5t-38 257.5q0 147 39.5 254t105.5 180t164.5 112.5t211.5 39.5q92 0 177.5 -26t152.5 -60v-211h-11q-20 17 -51.5 39t-76.5 45q-39 20 -92 35t-102 15q-146 0 -234.5 -110.5t-88.5 -312.5q0 -198 85.5 -308.5 t237.5 -110.5q92 0 175 38t147 98h11v-211q-28 -13 -70 -31.5t-76 -27.5q-48 -14 -86 -21.5t-98 -7.5zM891 1297h-159l-185 256l-184 -256h-155l228 379h227z"/>
<glyph glyph-name="Cdot" horiz-adv-x="1230" unicode="Ċ" d="M733 -27q-146 0 -268.5 49t-211.5 146t-138 242t-49 333q0 187 47.5 326t138.5 242q89 100 211 152.5t273 52.5q75 0 140.5 -11t121.5 -28q48 -15 98.5 -37.5t99.5 -49.5v-239h-16q-26 24 -67 58t-100 67q-57 31 -124 51t-155 20q-95 0 -180 -39t-149 -115 q-63 -76 -98 -191t-35 -259q0 -153 37 -263.5t101 -186.5q62 -74 146 -111.5t178 -37.5q86 0 159 21t130 53q55 31 95 63.5t63 55.5h15v-236q-49 -23 -92.5 -44t-105.5 -41q-65 -21 -120.5 -32t-144.5 -11zM810 1677h-214v195h214v-195z"/>
<glyph glyph-name="cdot" horiz-adv-x="945" unicode="ċ" d="M580 -25q-115 0 -211 35.5t-165 107.5t-107 181.5t-38 257.5q0 147 39.5 254t105.5 180t164.5 112.5t211.5 39.5q92 0 177.5 -26t152.5 -60v-211h-11q-20 17 -51.5 39t-76.5 45q-39 20 -92 35t-102 15q-146 0 -234.5 -110.5t-88.5 -312.5q0 -198 85.5 -308.5 t237.5 -110.5q92 0 175 38t147 98h11v-211q-28 -13 -70 -31.5t-76 -27.5q-48 -14 -86 -21.5t-98 -7.5zM654 1304h-214v195h214v-195z"/>
<glyph glyph-name="Ccaron" horiz-adv-x="1230" unicode="Č" d="M733 -27q-146 0 -268.5 49t-211.5 146t-138 242t-49 333q0 187 47.5 326t138.5 242q89 100 211 152.5t273 52.5q75 0 140.5 -11t121.5 -28q48 -15 98.5 -37.5t99.5 -49.5v-239h-16q-26 24 -67 58t-100 67q-57 31 -124 51t-155 20q-95 0 -180 -39t-149 -115 q-63 -76 -98 -191t-35 -259q0 -153 37 -263.5t101 -186.5q62 -74 146 -111.5t178 -37.5q86 0 159 21t130 53q55 31 95 63.5t63 55.5h15v-236q-49 -23 -92.5 -44t-105.5 -41q-65 -21 -120.5 -32t-144.5 -11zM1047 2049l-228 -379h-227l-228 379h159l185 -256l184 256h155z "/>
<glyph glyph-name="ccaron" horiz-adv-x="945" unicode="č" d="M580 -25q-115 0 -211 35.5t-165 107.5t-107 181.5t-38 257.5q0 147 39.5 254t105.5 180t164.5 112.5t211.5 39.5q92 0 177.5 -26t152.5 -60v-211h-11q-20 17 -51.5 39t-76.5 45q-39 20 -92 35t-102 15q-146 0 -234.5 -110.5t-88.5 -312.5q0 -198 85.5 -308.5 t237.5 -110.5q92 0 175 38t147 98h11v-211q-28 -13 -70 -31.5t-76 -27.5q-48 -14 -86 -21.5t-98 -7.5zM885 1676l-228 -379h-227l-228 379h159l185 -256l184 256h155z"/>
<glyph glyph-name="Dcaron" horiz-adv-x="1389" unicode="Ď" d="M1119 746q0 172 -57 293.5t-169 189.5q-79 48 -169 69t-224 21h-151v-1149h151q132 0 231 21t181 78q103 70 155 186.5t52 290.5zM1325 743q0 -204 -82.5 -368t-221.5 -256q-113 -71 -229.5 -95t-297.5 -24h-343v1489h339q210 0 329.5 -31.5t203.5 -86.5 q144 -95 223 -252.5t79 -375.5zM987 2049l-228 -379h-227l-228 379h159l185 -256l184 256h155z"/>
<glyph glyph-name="dcaron" horiz-adv-x="1407" unicode="ď" d="M1473 1556l-240 -505h-127l142 505h225zM808 272v644q-70 34 -125.5 47t-120.5 13q-145 0 -227 -108.5t-82 -313.5q0 -197 63 -301.5t202 -104.5q74 0 149 33.5t141 90.5zM996 0h-188v114q-44 -37 -76 -61t-75 -44q-40 -19 -83 -29.5t-100 -10.5q-91 0 -168.5 38 t-131.5 111q-55 74 -85 182.5t-30 249.5q0 147 38 254.5t105 187.5q61 73 147.5 114.5t181.5 41.5q84 0 146 -18.5t131 -57.5v484h188v-1556z"/>
<glyph glyph-name="Dslash" horiz-adv-x="1430" unicode="Đ" d="M1160 746q0 172 -57 293.5t-169 189.5q-79 48 -169 69t-224 21h-151v-436h327v-143h-327v-570h151q132 0 231 21.5t181 77.5q103 70 155 186.5t52 290.5zM1366 743q0 -204 -82.5 -368t-221.5 -256q-111 -74 -228.5 -96.5t-298.5 -22.5h-343v740h-168v143h168v606h339 q210 0 329.5 -31.5t203.5 -86.5q144 -95 223 -252.5t79 -375.5z"/>
<glyph glyph-name="dmacron" horiz-adv-x="1174" unicode="đ" d="M808 272v644q-70 34 -125.5 47t-120.5 13q-145 0 -227 -108.5t-82 -313.5q0 -197 63 -301.5t202 -104.5q74 0 149 33.5t141 90.5zM996 0h-188v114q-44 -37 -76 -61t-75 -44q-40 -19 -83 -29.5t-100 -10.5q-91 0 -168.5 38t-131.5 111q-55 74 -85 182.5t-30 249.5 q0 147 38 254.5t105 187.5q61 73 147.5 114.5t181.5 41.5q84 0 146 -18.5t131 -57.5v196h-301v134h301v154h188v-154h166v-134h-166v-1268z"/>
<glyph glyph-name="Emacron" horiz-adv-x="1149" unicode="Ē" d="M151 0v1489h931v-176h-733v-408h683v-176h-683v-553h733v-176h-931zM992 1698h-754v154h754v-154z"/>
<glyph glyph-name="emacron" horiz-adv-x="1078" unicode="ē" d="M841 683q-2 76 -18 131t-46 93q-33 42 -84.5 64t-127.5 22q-75 0 -127.5 -22.5t-95.5 -65.5q-42 -44 -64 -97.5t-28 -124.5h591zM621 -26q-267 0 -414.5 150.5t-147.5 427.5q0 273 143 434.5t374 161.5q104 0 184 -30t140 -94t92 -156.5t32 -226.5v-102h-774 q0 -195 98 -298t271 -103q62 0 121.5 14t107.5 36q51 23 86 44.5t58 40.5h11v-205q-33 -13 -82 -32.5t-88 -30.5q-55 -15 -99.5 -23t-112.5 -8zM954 1335h-754v154h754v-154z"/>
<glyph glyph-name="Ebreve" horiz-adv-x="1149" unicode="Ĕ" d="M151 0v1489h931v-176h-733v-408h683v-176h-683v-553h733v-176h-931zM945 2009q0 -86 -21 -156.5t-60 -118.5q-45 -53 -102 -79.5t-146 -26.5q-82 0 -143.5 27.5t-103.5 78.5q-41 50 -62 120t-21 155h162q0 -135 42 -194.5t126 -59.5q79 0 123 58.5t44 195.5h162z"/>
<glyph glyph-name="ebreve" horiz-adv-x="1078" unicode="ĕ" d="M841 683q-2 76 -18 131t-46 93q-33 42 -84.5 64t-127.5 22q-75 0 -127.5 -22.5t-95.5 -65.5q-42 -44 -64 -97.5t-28 -124.5h591zM621 -26q-267 0 -414.5 150.5t-147.5 427.5q0 273 143 434.5t374 161.5q104 0 184 -30t140 -94t92 -156.5t32 -226.5v-102h-774 q0 -195 98 -298t271 -103q62 0 121.5 14t107.5 36q51 23 86 44.5t58 40.5h11v-205q-33 -13 -82 -32.5t-88 -30.5q-55 -15 -99.5 -23t-112.5 -8zM902 1636q0 -86 -21 -156.5t-60 -118.5q-45 -53 -102 -79.5t-146 -26.5q-82 0 -143.5 27.5t-103.5 78.5q-41 50 -62 120t-21 155 h162q0 -135 42 -194.5t126 -59.5q79 0 123 58.5t44 195.5h162z"/>
<glyph glyph-name="Edot" horiz-adv-x="1149" unicode="Ė" d="M151 0v1489h931v-176h-733v-408h683v-176h-683v-553h733v-176h-931zM756 1677h-214v195h214v-195z"/>
<glyph glyph-name="edot" horiz-adv-x="1078" unicode="ė" d="M841 683q-2 76 -18 131t-46 93q-33 42 -84.5 64t-127.5 22q-75 0 -127.5 -22.5t-95.5 -65.5q-42 -44 -64 -97.5t-28 -124.5h591zM621 -26q-267 0 -414.5 150.5t-147.5 427.5q0 273 143 434.5t374 161.5q104 0 184 -30t140 -94t92 -156.5t32 -226.5v-102h-774 q0 -195 98 -298t271 -103q62 0 121.5 14t107.5 36q51 23 86 44.5t58 40.5h11v-205q-33 -13 -82 -32.5t-88 -30.5q-55 -15 -99.5 -23t-112.5 -8zM686 1304h-214v195h214v-195z"/>
<glyph glyph-name="Eogonek" horiz-adv-x="1149" unicode="Ę" d="M151 0v1489h931v-176h-733v-408h683v-176h-683v-553h733v-176h-228q-6 -28 -10.5 -48.5t-4.5 -58.5q0 -81 33 -121t121 -40q33 0 65.5 9.5t51.5 20.5h9v-158q-36 -10 -76.5 -15.5t-74.5 -5.5q-124 0 -206.5 75t-82.5 225q0 34 4.5 60.5t11.5 56.5h-544z"/>
<glyph glyph-name="eogonek" horiz-adv-x="1078" unicode="ę" d="M841 683q-2 76 -18 131t-46 93q-33 42 -84.5 64t-127.5 22q-75 0 -127.5 -22.5t-95.5 -65.5q-42 -44 -64 -97.5t-28 -124.5h591zM575 -24q-246 13 -381 162t-135 414q0 273 143 434.5t374 161.5q104 0 184 -30t140 -94t92 -156.5t32 -226.5v-102h-774q0 -195 98 -298 t271 -103q62 0 121.5 14t107.5 36q51 23 86 44.5t58 40.5h11v-205q-33 -13 -82 -32.5t-88 -30.5q-24 -6 -51.5 -12t-48.5 -9q-4 -17 -7 -42.5t-3 -48.5q0 -81 33 -121t121 -40q33 0 65.5 9.5t51.5 20.5h9v-158q-36 -10 -76.5 -15.5t-74.5 -5.5q-123 0 -206 74t-83 226 q0 25 3.5 48.5t8.5 44.5z"/>
<glyph glyph-name="Ecaron" horiz-adv-x="1149" unicode="Ě" d="M151 0v1489h931v-176h-733v-408h683v-176h-683v-553h733v-176h-931zM987 2049l-228 -379h-227l-228 379h159l185 -256l184 256h155z"/>
<glyph glyph-name="ecaron" horiz-adv-x="1078" unicode="ě" d="M841 683q-2 76 -18 131t-46 93q-33 42 -84.5 64t-127.5 22q-75 0 -127.5 -22.5t-95.5 -65.5q-42 -44 -64 -97.5t-28 -124.5h591zM621 -26q-267 0 -414.5 150.5t-147.5 427.5q0 273 143 434.5t374 161.5q104 0 184 -30t140 -94t92 -156.5t32 -226.5v-102h-774 q0 -195 98 -298t271 -103q62 0 121.5 14t107.5 36q51 23 86 44.5t58 40.5h11v-205q-33 -13 -82 -32.5t-88 -30.5q-55 -15 -99.5 -23t-112.5 -8zM907 1676l-228 -379h-227l-228 379h159l185 -256l184 256h155z"/>
<glyph glyph-name="Gcircumflex" horiz-adv-x="1367" unicode="Ĝ" d="M774 -29q-158 0 -289 48t-225 146q-94 99 -144 245t-50 336q0 180 50.5 322.5t144.5 243.5q91 98 224 151t291 53q75 0 144 -11t132 -30q50 -15 111.5 -41.5t99.5 -45.5v-239h-17q-37 33 -76.5 62.5t-111.5 63.5q-60 30 -138 50t-168 20q-215 0 -347.5 -162t-132.5 -431 q0 -150 35 -262t101 -190q64 -77 154.5 -117.5t203.5 -40.5q84 0 167 12t140 36v385h-344v174h540v-650q-38 -17 -101.5 -43t-118.5 -41q-73 -22 -132 -33t-143 -11zM1081 1670h-159l-185 256l-184 -256h-155l228 379h227z"/>
<glyph glyph-name="gcircumflex" horiz-adv-x="1132" unicode="ĝ" d="M176 -179q19 -8 56 -21.5t84 -25.5q52 -13 96 -21t96 -8q87 0 147.5 23t94.5 64q32 41 45 95t13 123v98q-76 -66 -149 -97.5t-183 -31.5q-191 0 -304 142t-113 408q0 139 39 246.5t105 182.5q63 72 149 111t178 39q87 0 150.5 -20.5t127.5 -58.5l11 48h177v-990 q0 -284 -124 -417t-379 -133q-82 0 -167.5 13t-159.5 35v196h10zM808 303v613q-70 34 -129.5 48.5t-118.5 14.5q-143 0 -225 -105t-82 -301q0 -186 62.5 -283t202.5 -97q73 0 150.5 29t139.5 81zM911 1297h-159l-185 256l-184 -256h-155l228 379h227z"/>
<glyph glyph-name="Gbreve" horiz-adv-x="1367" unicode="Ğ" d="M774 -29q-158 0 -289 48t-225 146q-94 99 -144 245t-50 336q0 180 50.5 322.5t144.5 243.5q91 98 224 151t291 53q75 0 144 -11t132 -30q50 -15 111.5 -41.5t99.5 -45.5v-239h-17q-37 33 -76.5 62.5t-111.5 63.5q-60 30 -138 50t-168 20q-215 0 -347.5 -162t-132.5 -431 q0 -150 35 -262t101 -190q64 -77 154.5 -117.5t203.5 -40.5q84 0 167 12t140 36v385h-344v174h540v-650q-38 -17 -101.5 -43t-118.5 -41q-73 -22 -132 -33t-143 -11zM1068 2009q0 -86 -21 -156.5t-60 -118.5q-45 -53 -102 -79.5t-146 -26.5q-82 0 -143.5 27.5t-103.5 78.5 q-41 50 -62 120t-21 155h162q0 -135 42 -194.5t126 -59.5q79 0 123 58.5t44 195.5h162z"/>
<glyph glyph-name="gbreve" horiz-adv-x="1132" unicode="ğ" d="M176 -179q19 -8 56 -21.5t84 -25.5q52 -13 96 -21t96 -8q87 0 147.5 23t94.5 64q32 41 45 95t13 123v98q-76 -66 -149 -97.5t-183 -31.5q-191 0 -304 142t-113 408q0 139 39 246.5t105 182.5q63 72 149 111t178 39q87 0 150.5 -20.5t127.5 -58.5l11 48h177v-990 q0 -284 -124 -417t-379 -133q-82 0 -167.5 13t-159.5 35v196h10zM808 303v613q-70 34 -129.5 48.5t-118.5 14.5q-143 0 -225 -105t-82 -301q0 -186 62.5 -283t202.5 -97q73 0 150.5 29t139.5 81zM894 1636q0 -86 -21 -156.5t-60 -118.5q-45 -53 -102 -79.5t-146 -26.5 q-82 0 -143.5 27.5t-103.5 78.5q-41 50 -62 120t-21 155h162q0 -135 42 -194.5t126 -59.5q79 0 123 58.5t44 195.5h162z"/>
<glyph glyph-name="Gdot" horiz-adv-x="1367" unicode="Ġ" d="M774 -29q-158 0 -289 48t-225 146q-94 99 -144 245t-50 336q0 180 50.5 322.5t144.5 243.5q91 98 224 151t291 53q75 0 144 -11t132 -30q50 -15 111.5 -41.5t99.5 -45.5v-239h-17q-37 33 -76.5 62.5t-111.5 63.5q-60 30 -138 50t-168 20q-215 0 -347.5 -162t-132.5 -431 q0 -150 35 -262t101 -190q64 -77 154.5 -117.5t203.5 -40.5q84 0 167 12t140 36v385h-344v174h540v-650q-38 -17 -101.5 -43t-118.5 -41q-73 -22 -132 -33t-143 -11zM836 1677h-214v195h214v-195z"/>
<glyph glyph-name="gdot" horiz-adv-x="1132" unicode="ġ" d="M176 -179q19 -8 56 -21.5t84 -25.5q52 -13 96 -21t96 -8q87 0 147.5 23t94.5 64q32 41 45 95t13 123v98q-76 -66 -149 -97.5t-183 -31.5q-191 0 -304 142t-113 408q0 139 39 246.5t105 182.5q63 72 149 111t178 39q87 0 150.5 -20.5t127.5 -58.5l11 48h177v-990 q0 -284 -124 -417t-379 -133q-82 0 -167.5 13t-159.5 35v196h10zM808 303v613q-70 34 -129.5 48.5t-118.5 14.5q-143 0 -225 -105t-82 -301q0 -186 62.5 -283t202.5 -97q73 0 150.5 29t139.5 81zM659 1304h-214v195h214v-195z"/>
<glyph glyph-name="Gcedilla" horiz-adv-x="1367" unicode="Ģ" d="M774 -28q-158 0 -289 47.5t-225 145.5q-94 99 -144 245t-50 336q0 180 50.5 322.5t144.5 243.5q91 98 224 151t291 53q75 0 144 -11t132 -30q50 -15 111.5 -41.5t99.5 -45.5v-239h-17q-37 33 -76.5 62.5t-111.5 63.5q-60 30 -138 50t-168 20q-215 0 -347.5 -162 t-132.5 -431q0 -150 35 -262t101 -190q64 -77 154.5 -117.5t203.5 -40.5q84 0 167 12t140 36v385h-344v174h540v-650q-38 -17 -101 -41.5t-119 -41.5q-42 -13 -65 -18l-46 -10q0 -14 1.5 -33t1.5 -44q0 -162 -88 -248t-221 -86q-37 0 -87 6t-90 18v160h9q24 -11 63 -22.5 t79 -11.5q94 0 139 39.5t45 126.5q0 17 -0.5 36.5t-1.5 42.5h-6.5h-7.5z"/>
<glyph glyph-name="gcedilla" horiz-adv-x="1132" unicode="ģ" d="M812 1676l-179 -374h-243l273 374h149zM176 -179q19 -8 56 -21.5t84 -25.5q52 -13 96 -21t96 -8q87 0 147.5 23t94.5 64q32 41 45 95t13 123v98q-76 -66 -149 -97.5t-183 -31.5q-191 0 -304 142t-113 408q0 139 39 246.5t105 182.5q63 72 149 111t178 39 q87 0 150.5 -20.5t127.5 -58.5l11 48h177v-990q0 -284 -124 -417t-379 -133q-82 0 -167.5 13t-159.5 35v196h10zM808 303v613q-70 34 -129.5 48.5t-118.5 14.5q-143 0 -225 -105t-82 -301q0 -186 62.5 -283t202.5 -97q73 0 150.5 29t139.5 81z"/>
<glyph glyph-name="Hcircumflex" horiz-adv-x="1383" unicode="Ĥ" d="M1232 0h-198v729h-685v-729h-198v1489h198v-584h685v584h198v-1489zM1034 1670h-159l-185 256l-184 -256h-155l228 379h227z"/>
<glyph glyph-name="hcircumflex" horiz-adv-x="1142" unicode="ĥ" d="M1014 0h-188v636q0 77 -7.5 143.5t-28.5 106.5q-23 42 -64 62.5t-112 20.5q-70 0 -144.5 -37.5t-145.5 -97.5v-834h-188v1556h188v-563q84 75 166 115t173 40q165 0 258 -108.5t93 -314.5v-725zM940 1670h-159l-185 256l-184 -256h-155l228 379h227z"/>
<glyph glyph-name="Hbar" horiz-adv-x="1465" unicode="Ħ" d="M1075 905v204h-685v-204h685zM1273 0h-198v729h-685v-729h-198v1109h-168v140h168v240h198v-240h685v240h198v-240h168v-140h-168v-1109z"/>
<glyph glyph-name="hbar" horiz-adv-x="1184" unicode="ħ" d="M1055 0h-188v636q0 77 -7 143.5t-29 106.5q-23 42 -64 62.5t-112 20.5q-70 0 -144.5 -37.5t-145.5 -97.5v-834h-188l1 1268h-166v134h166l-1 154h188l1 -154h301v-134h-301l-1 -275q84 75 166 115t173 40q165 0 258 -108.5t93 -314.5v-725z"/>
<glyph glyph-name="Itilde" horiz-adv-x="764" unicode="Ĩ" d="M755 1992q-7 -152 -67 -227.5t-158 -75.5q-52 0 -90.5 17.5t-75.5 56.5q-40 40 -71.5 62.5t-60.5 22.5q-46 0 -67.5 -45t-23.5 -121h-131q4 151 68.5 226.5t155.5 75.5q48 0 87.5 -18.5t77.5 -54.5q43 -42 73.5 -61.5t59.5 -19.5q45 0 68 46t24 116h131zM671 0h-578v152 h190v1185h-190v152h578v-152h-190v-1185h190v-152z"/>
<glyph glyph-name="itilde" horiz-adv-x="468" unicode="ĩ" d="M525 1596q0 -129 -48.5 -194t-128.5 -65q-40 0 -69 13t-59 45q-32 35 -54.5 52t-45.5 17q-35 0 -51.5 -34.5t-16.5 -99.5h-106q0 128 48.5 193.5t127.5 65.5q47 0 72 -13.5t57 -44.5q33 -35 55 -52t44 -17q36 0 52.5 36t16.5 98h106zM328 0h-188v1117h188v-1117z"/>
<glyph glyph-name="Imacron" horiz-adv-x="764" unicode="Ī" d="M709 1698h-654v154h654v-154zM671 0h-578v152h190v1185h-190v152h578v-152h-190v-1185h190v-152z"/>
<glyph glyph-name="imacron" horiz-adv-x="468" unicode="ī" d="M501 1335h-533v154h533v-154zM328 0h-188v1117h188v-1117z"/>
<glyph glyph-name="Ibreve" horiz-adv-x="764" unicode="Ĭ" d="M681 2003q0 -168 -72.5 -271.5t-225.5 -103.5q-151 0 -225 103.5t-74 271.5h158q0 -135 33 -191.5t108 -56.5q71 0 105.5 53.5t34.5 194.5h158zM671 0h-578v152h190v1185h-190v152h578v-152h-190v-1185h190v-152z"/>
<glyph glyph-name="ibreve" horiz-adv-x="468" unicode="ĭ" d="M513 1611q0 -154 -69.5 -250t-209.5 -96q-138 0 -209 95t-71 251h146q0 -122 32.5 -175.5t101.5 -53.5q65 0 99 49t34 180h146zM328 0h-188v1117h188v-1117z"/>
<glyph glyph-name="Iogonek" horiz-adv-x="764" unicode="Į" d="M318 0h-225v152h190v1185h-190v152h578v-152h-190v-1185h190v-152h-194q-6 -28 -10.5 -48.5t-4.5 -58.5q0 -81 33 -121t121 -40q33 0 65.5 9.5t51.5 20.5h9v-158q-36 -10 -76.5 -15.5t-74.5 -5.5q-124 0 -206.5 75t-82.5 225q0 34 4.5 60.5t11.5 56.5z"/>
<glyph glyph-name="iogonek" horiz-adv-x="468" unicode="į" d="M341 1304h-214v195h214v-195zM535 -396q-36 -10 -76.5 -15.5t-74.5 -5.5q-123 0 -206 74t-83 226q0 63 18.5 118.5t26.5 80.5v1035h188v-1117h-60q-6 -26 -9.5 -53t-3.5 -54q0 -81 33 -121t121 -40q33 0 65.5 9.5t51.5 20.5h9v-158z"/>
<glyph glyph-name="Idotaccent" horiz-adv-x="764" unicode="İ" d="M671 0h-578v152h190v1185h-190v152h578v-152h-190v-1185h190v-152zM490 1677h-214v195h214v-195z"/>
<glyph glyph-name="dotlessi" horiz-adv-x="468" unicode="ı" d="M328 0h-188v1117h188v-1117z"/>
<glyph glyph-name="dotlessi" horiz-adv-x="468" unicode="" d="M328 0h-188v1117h188v-1117z"/>
<glyph glyph-name="Jcircumflex" horiz-adv-x="853" unicode="Ĵ" d="M712 387q0 -196 -119.5 -302t-320.5 -106q-48 0 -128.5 8.5t-134.5 20.5v189h11q41 -14 101.5 -31t123.5 -17q92 0 146.5 21t80.5 60q27 40 34.5 98t7.5 134v869h-315v158h513v-1102zM811 1670h-159l-185 256l-184 -256h-155l228 379h227z"/>
<glyph glyph-name="jcircumflex" horiz-adv-x="577" unicode="ĵ" d="M575 1297h-151l-149 267l-148 -267h-147l184 379h227zM441 -32q0 -191 -102.5 -291t-282.5 -100q-31 0 -69.5 3t-76.5 9v168h11q22 -5 48.5 -9.5t50.5 -4.5q75 0 123.5 18.5t72.5 58.5q22 36 29.5 91t7.5 134v916h-202v156h390v-1149z"/>
<glyph glyph-name="Kcedilla" horiz-adv-x="1204" unicode="Ķ" d="M1236 0h-257l-543 693l-87 -98v-595h-198v1489h198v-685l610 685h241l-616 -665zM758 20q1 -18 3.5 -45.5t2.5 -63.5q0 -162 -87 -248t-220 -86q-37 0 -87 6t-90 18v160h9q24 -11 63 -22.5t79 -11.5q94 0 134 39.5t40 126.5q0 26 -1 57t-3 70h157z"/>
<glyph glyph-name="kcedilla" horiz-adv-x="1020" unicode="ķ" d="M1062 0h-247l-417 539l-74 -72v-467h-188v1556h188v-911l442 472h234l-459 -467zM638 20q1 -18 3.5 -45.5t2.5 -63.5q0 -162 -87 -248t-220 -86q-37 0 -87 6t-90 18v160h9q24 -11 63 -22.5t79 -11.5q94 0 134 39.5t40 126.5q0 26 -1 57t-3 70h157z"/>
<glyph glyph-name="kgreenlandic" horiz-adv-x="1020" unicode="ĸ" d="M1062 0h-247l-417 539l-74 -72v-467h-188v1117h188v-472l442 472h234l-459 -467z"/>
<glyph glyph-name="Lacute" horiz-adv-x="1019" unicode="Ĺ" d="M1014 0h-863v1489h198v-1313h665v-176zM691 2049l-273 -374h-149l179 374h243z"/>
<glyph glyph-name="lacute" horiz-adv-x="468" unicode="ĺ" d="M328 0h-188v1556h188v-1556zM536 2049l-273 -374h-149l179 374h243z"/>
<glyph glyph-name="Lcedilla" horiz-adv-x="1019" unicode="Ļ" d="M626 0h-475v1489h198v-1313h665v-176h-236q1 -14 2.5 -36.5t1.5 -52.5q0 -162 -88 -248t-221 -86q-37 0 -87 6t-90 18v160h9q24 -11 63 -22.5t79 -11.5q94 0 138 39.5t44 126.5q0 21 -0.5 46.5t-2.5 60.5z"/>
<glyph glyph-name="lcedilla" horiz-adv-x="468" unicode="ļ" d="M282 0h-142v1556h188v-1536h108q1 -18 3.5 -45.5t2.5 -63.5q0 -162 -87 -248t-220 -86q-37 0 -87 6t-90 18v160h9q24 -11 63 -22.5t79 -11.5q94 0 135 39.5t41 126.5q0 21 -0.5 46.5t-2.5 60.5z"/>
<glyph glyph-name="Lcaron" horiz-adv-x="1019" unicode="Ľ" d="M951 1556l-240 -505h-127l142 505h225zM1014 0h-863v1489h198v-1313h665v-176z"/>
<glyph glyph-name="lcaron" horiz-adv-x="739" unicode="ľ" d="M805 1556l-240 -505h-127l142 505h225zM328 0h-188v1556h188v-1556z"/>
<glyph glyph-name="Ldot" horiz-adv-x="1019" unicode="Ŀ" d="M876 519h-233v267h233v-267zM1014 0h-863v1489h198v-1313h665v-176z"/>
<glyph glyph-name="ldot" horiz-adv-x="912" unicode="ŀ" d="M806 520h-231v265h231v-265zM328 0h-188v1556h188v-1556z"/>
<glyph glyph-name="Lslash" horiz-adv-x="1060" unicode="Ł" d="M1055 0h-863v543l-168 -138v161l168 135v788h198v-645l327 268v-161l-327 -264v-511h665v-176z"/>
<glyph glyph-name="lslash" horiz-adv-x="562" unicode="ł" d="M540 855l-165 -130v-725h-188v589l-163 -134v159l163 130v812h188v-676l165 134v-159z"/>
<glyph glyph-name="Nacute" horiz-adv-x="1367" unicode="Ń" d="M1216 0h-222l-658 1284v-1284h-185v1489h281l599 -1179v1179h185v-1489zM988 2049l-273 -374h-149l179 374h243z"/>
<glyph glyph-name="nacute" horiz-adv-x="1142" unicode="ń" d="M1014 0h-188v636q0 77 -7.5 143.5t-28.5 106.5q-23 42 -64 62.5t-112 20.5q-70 0 -144.5 -37.5t-145.5 -97.5v-834h-188v1117h188v-124q84 75 166 115t173 40q165 0 258 -108.5t93 -314.5v-725zM871 1676l-273 -374h-149l179 374h243z"/>
<glyph glyph-name="Ncedilla" horiz-adv-x="1367" unicode="Ņ" d="M1216 0h-222l-658 1284v-1284h-185v1489h281l599 -1179v1179h185v-1489zM788 20q1 -18 3.5 -45.5t2.5 -63.5q0 -162 -87 -248t-220 -86q-37 0 -87 6t-90 18v160h9q24 -11 63 -22.5t79 -11.5q94 0 134 39.5t40 126.5q0 26 -1 57t-3 70h157z"/>
<glyph glyph-name="ncedilla" horiz-adv-x="1142" unicode="ņ" d="M1014 0h-188v636q0 77 -7.5 143.5t-28.5 106.5q-23 42 -64 62.5t-112 20.5q-70 0 -144.5 -37.5t-145.5 -97.5v-834h-188v1117h188v-124q84 75 166 115t173 40q165 0 258 -108.5t93 -314.5v-725zM696 20q1 -18 3.5 -45.5t2.5 -63.5q0 -162 -87 -248t-220 -86q-37 0 -87 6 t-90 18v160h9q24 -11 63 -22.5t79 -11.5q94 0 134 39.5t40 126.5q0 26 -1 57t-3 70h157z"/>
<glyph glyph-name="Ncaron" horiz-adv-x="1367" unicode="Ň" d="M1216 0h-222l-658 1284v-1284h-185v1489h281l599 -1179v1179h185v-1489zM1042 2049l-228 -379h-227l-228 379h159l185 -256l184 256h155z"/>
<glyph glyph-name="ncaron" horiz-adv-x="1142" unicode="ň" d="M1014 0h-188v636q0 77 -7.5 143.5t-28.5 106.5q-23 42 -64 62.5t-112 20.5q-70 0 -144.5 -37.5t-145.5 -97.5v-834h-188v1117h188v-124q84 75 166 115t173 40q165 0 258 -108.5t93 -314.5v-725zM925 1676l-228 -379h-227l-228 379h159l185 -256l184 256h155z"/>
<glyph glyph-name="Eng" horiz-adv-x="1367" unicode="Ŋ" d="M1032 -11l-696 1295v-1284h-185v1489h281l599 -1118v1118h185v-1516q0 -191 -102 -293.5t-282 -102.5q-31 0 -69 3t-76 9v168h11q22 -5 48 -9t50 -4q143 0 189.5 61.5t46.5 183.5z"/>
<glyph glyph-name="eng" horiz-adv-x="1142" unicode="ŋ" d="M1014 -32q0 -191 -102 -291t-282 -100q-31 0 -69 3t-76 9v168h11q22 -5 48 -9.5t50 -4.5q76 0 124.5 19t71.5 57q22 38 29 91t7 139v587q0 77 -7.5 143.5t-28.5 106.5q-23 42 -64 62.5t-112 20.5q-70 0 -144.5 -37.5t-145.5 -97.5v-834h-188v1117h188v-124q84 75 166 115 t173 40q165 0 258 -108.5t93 -314.5v-757z"/>
<glyph glyph-name="Omacron" horiz-adv-x="1449" unicode="Ō" d="M1177 744q0 148 -32 262t-90 189q-59 77 -142.5 115.5t-187.5 38.5q-108 0 -188.5 -37.5t-142.5 -116.5q-59 -76 -90.5 -191t-31.5 -260q0 -293 123 -448.5t330 -155.5t329.5 155.5t122.5 448.5zM1204 1318q85 -98 132 -243t47 -331q0 -181 -46 -327t-133 -245 q-91 -104 -212.5 -153.5t-267.5 -49.5q-151 0 -272 51t-208 152q-86 99 -132 244t-46 328q0 188 46.5 330t132.5 244q86 99 207.5 150.5t271.5 51.5q152 0 274 -53t206 -149zM1101 1698h-754v154h754v-154z"/>
<glyph glyph-name="omacron" horiz-adv-x="1112" unicode="ō" d="M861 558q0 217 -79 322.5t-225 105.5q-147 0 -226.5 -105.5t-79.5 -322.5q0 -210 79.5 -318.5t226.5 -108.5q145 0 224.5 106.5t79.5 320.5zM1055 558q0 -282 -136 -435.5t-362 -153.5q-233 0 -366.5 158.5t-133.5 430.5q0 280 137.5 435t362.5 155q226 0 362 -154.5 t136 -435.5zM933 1335h-754v154h754v-154z"/>
<glyph glyph-name="Obreve" horiz-adv-x="1449" unicode="Ŏ" d="M1177 744q0 148 -32 262t-90 189q-59 77 -142.5 115.5t-187.5 38.5q-108 0 -188.5 -37.5t-142.5 -116.5q-59 -76 -90.5 -191t-31.5 -260q0 -293 123 -448.5t330 -155.5t329.5 155.5t122.5 448.5zM1204 1318q85 -98 132 -243t47 -331q0 -181 -46 -327t-133 -245 q-91 -104 -212.5 -153.5t-267.5 -49.5q-151 0 -272 51t-208 152q-86 99 -132 244t-46 328q0 188 46.5 330t132.5 244q86 99 207.5 150.5t271.5 51.5q152 0 274 -53t206 -149zM1053 2009q0 -86 -21 -156.5t-60 -118.5q-45 -53 -102 -79.5t-146 -26.5q-82 0 -143.5 27.5 t-103.5 78.5q-41 50 -62 120t-21 155h162q0 -135 42 -194.5t126 -59.5q79 0 123 58.5t44 195.5h162z"/>
<glyph glyph-name="obreve" horiz-adv-x="1112" unicode="ŏ" d="M861 558q0 217 -79 322.5t-225 105.5q-147 0 -226.5 -105.5t-79.5 -322.5q0 -210 79.5 -318.5t226.5 -108.5q145 0 224.5 106.5t79.5 320.5zM1055 558q0 -282 -136 -435.5t-362 -153.5q-233 0 -366.5 158.5t-133.5 430.5q0 280 137.5 435t362.5 155q226 0 362 -154.5 t136 -435.5zM885 1636q0 -86 -21 -156.5t-60 -118.5q-45 -53 -102 -79.5t-146 -26.5q-82 0 -143.5 27.5t-103.5 78.5q-41 50 -62 120t-21 155h162q0 -135 42 -194.5t126 -59.5q79 0 123 58.5t44 195.5h162z"/>
<glyph glyph-name="Odblacute" horiz-adv-x="1449" unicode="Ő" d="M1177 744q0 148 -32 262t-90 189q-59 77 -142.5 115.5t-187.5 38.5q-108 0 -188.5 -37.5t-142.5 -116.5q-59 -76 -90.5 -191t-31.5 -260q0 -293 123 -448.5t330 -155.5t329.5 155.5t122.5 448.5zM1204 1318q85 -98 132 -243t47 -331q0 -181 -46 -327t-133 -245 q-91 -104 -212.5 -153.5t-267.5 -49.5q-151 0 -272 51t-208 152q-86 99 -132 244t-46 328q0 188 46.5 330t132.5 244q86 99 207.5 150.5t271.5 51.5q152 0 274 -53t206 -149zM797 2049l-258 -374h-139l169 374h228zM1201 2049l-258 -374h-139l169 374h228z"/>
<glyph glyph-name="odblacute" horiz-adv-x="1112" unicode="ő" d="M861 558q0 217 -79 322.5t-225 105.5q-147 0 -226.5 -105.5t-79.5 -322.5q0 -210 79.5 -318.5t226.5 -108.5q145 0 224.5 106.5t79.5 320.5zM1055 558q0 -282 -136 -435.5t-362 -153.5q-233 0 -366.5 158.5t-133.5 430.5q0 280 137.5 435t362.5 155q226 0 362 -154.5 t136 -435.5zM635 1676l-258 -374h-139l169 374h228zM1039 1676l-258 -374h-139l169 374h228z"/>
<glyph glyph-name="OE" horiz-adv-x="2000" unicode="Œ" d="M1012 171v1147h-119q-148 0 -241.5 -22.5t-172.5 -75.5q-103 -68 -155 -188t-52 -289q0 -172 57 -293.5t169 -189.5q83 -50 173.5 -69.5t219.5 -19.5h121zM1932 0h-1031q-184 0 -308 26t-225 92q-144 95 -223 253.5t-79 374.5q0 209 84.5 370.5t220.5 252.5 q89 60 209.5 90t318.5 30h1033v-176h-723v-408h673v-176h-673v-553h723v-176z"/>
<glyph glyph-name="oe" horiz-adv-x="1861" unicode="œ" d="M1403 138q62 0 121.5 14t107.5 36q51 23 86 44.5t58 40.5h11v-205q-33 -13 -82 -32.5t-88 -30.5q-55 -15 -99.5 -23t-112.5 -8q-147 0 -264.5 52.5t-188.5 152.5q-67 -103 -164.5 -156.5t-233.5 -53.5q-231 0 -364 158t-133 431q0 278 135 434t362 156q131 0 234.5 -55 t167.5 -156q67 101 172.5 156t234.5 55q215 0 330 -133t115 -374v-102h-769q0 -193 97 -297t267 -104zM856 558q0 217 -78.5 322.5t-223.5 105.5q-148 0 -225.5 -110.5t-77.5 -317.5q0 -210 78.5 -318.5t224.5 -108.5q144 0 223 107.5t79 319.5zM1625 683q-4 157 -71 233.5 t-202 76.5q-128 0 -214.5 -82t-98.5 -228h586z"/>
<glyph glyph-name="Racute" horiz-adv-x="1271" unicode="Ŕ" d="M876 1070q0 65 -23 115.5t-71 82.5q-42 28 -98 39.5t-139 11.5h-196v-562h174q85 0 153 15t116 62q43 42 63.5 100t20.5 136zM1304 0h-257l-472 592h-226v-592h-198v1489h384q128 0 214.5 -14t164.5 -65q78 -50 123.5 -129t45.5 -196q0 -164 -83 -274t-226 -163z M891 2049l-273 -374h-149l179 374h243z"/>
<glyph glyph-name="racute" horiz-adv-x="738" unicode="ŕ" d="M728 915h-10q-21 6 -44.5 7.5t-56.5 1.5q-76 0 -151 -33t-142 -98v-793h-188v1117h188v-166q103 91 179.5 128.5t148.5 37.5q29 0 43.5 -1.5t32.5 -4.5v-196zM695 1676l-273 -374h-149l179 374h243z"/>
<glyph glyph-name="Rcedilla" horiz-adv-x="1271" unicode="Ŗ" d="M876 1070q0 65 -23 115.5t-71 82.5q-42 28 -98 39.5t-139 11.5h-196v-562h174q85 0 153 15t116 62q43 42 63.5 100t20.5 136zM1304 0h-257l-472 592h-226v-592h-198v1489h384q128 0 214.5 -14t164.5 -65q78 -50 123.5 -129t45.5 -196q0 -164 -83 -274t-226 -163zM766 20 q1 -18 3.5 -45.5t2.5 -63.5q0 -162 -87 -248t-220 -86q-37 0 -87 6t-90 18v160h9q24 -11 63 -22.5t79 -11.5q94 0 134 39.5t40 126.5q0 26 -1 57t-3 70h157z"/>
<glyph glyph-name="rcedilla" horiz-adv-x="738" unicode="ŗ" d="M728 915h-10q-21 6 -44.5 7.5t-56.5 1.5q-76 0 -151 -33t-142 -98v-773h132q1 -18 3.5 -45.5t2.5 -63.5q0 -162 -87 -248t-220 -86q-37 0 -87 6t-90 18v160h9q24 -11 63 -22.5t79 -11.5q94 0 135 39.5t41 126.5q0 21 -0.5 46.5t-2.5 60.5h-166v1117h188v-166 q59 51 146 108.5t182 57.5q29 0 43.5 -1.5t32.5 -4.5v-196z"/>
<glyph glyph-name="Rcaron" horiz-adv-x="1271" unicode="Ř" d="M876 1070q0 65 -23 115.5t-71 82.5q-42 28 -98 39.5t-139 11.5h-196v-562h174q85 0 153 15t116 62q43 42 63.5 100t20.5 136zM1304 0h-257l-472 592h-226v-592h-198v1489h384q128 0 214.5 -14t164.5 -65q78 -50 123.5 -129t45.5 -196q0 -164 -83 -274t-226 -163z M947 2049l-228 -379h-227l-228 379h159l185 -256l184 256h155z"/>
<glyph glyph-name="rcaron" horiz-adv-x="738" unicode="ř" d="M728 915h-10q-21 6 -44.5 7.5t-56.5 1.5q-76 0 -151 -33t-142 -98v-793h-188v1117h188v-166q103 91 179.5 128.5t148.5 37.5q29 0 43.5 -1.5t32.5 -4.5v-196zM737 1676l-228 -379h-227l-228 379h159l185 -256l184 256h155z"/>
<glyph glyph-name="Sacute" horiz-adv-x="1141" unicode="Ś" d="M566 -27q-162 0 -275.5 33.5t-213.5 82.5v248h14q98 -92 222 -142.5t239 -50.5q164 0 248 68.5t84 180.5q0 89 -44 145t-140 83q-69 20 -126 33t-143 35q-77 20 -138 51t-108 81q-46 49 -71.5 115.5t-25.5 153.5q0 181 141 303.5t360 122.5q125 0 236.5 -25t206.5 -71 v-237h-15q-71 65 -182 113.5t-233 48.5q-138 0 -223 -64.5t-85 -169.5q0 -95 50 -151t145 -82q63 -17 154 -38.5t151 -39.5q154 -47 225 -142t71 -234q0 -87 -35.5 -172t-99.5 -144q-72 -65 -162.5 -100t-226.5 -35zM871 2049l-273 -374h-149l179 374h243z"/>
<glyph glyph-name="sacute" horiz-adv-x="914" unicode="ś" d="M438 -27q-112 0 -209.5 30t-161.5 64v211h10q24 -19 56.5 -42t86.5 -48q48 -22 105.5 -39t119.5 -17q45 0 96 10.5t76 26.5q35 23 50.5 49t15.5 78q0 67 -36.5 101t-129.5 57q-36 9 -94 21t-107 26q-128 37 -186 114.5t-58 187.5q0 151 114 246t303 95q93 0 187 -23 t158 -58v-201h-10q-72 57 -160.5 90t-178.5 33q-93 0 -157 -39t-64 -118q0 -70 38 -104.5t122 -56.5q42 -11 93.5 -21.5t108.5 -24.5q124 -31 186.5 -103t62.5 -196q0 -72 -28.5 -136.5t-83.5 -110.5q-60 -50 -135.5 -76t-189.5 -26zM739 1676l-273 -374h-149l179 374h243z "/>
<glyph glyph-name="Scircumflex" horiz-adv-x="1141" unicode="Ŝ" d="M566 -27q-162 0 -275.5 33.5t-213.5 82.5v248h14q98 -92 222 -142.5t239 -50.5q164 0 248 68.5t84 180.5q0 89 -44 145t-140 83q-69 20 -126 33t-143 35q-77 20 -138 51t-108 81q-46 49 -71.5 115.5t-25.5 153.5q0 181 141 303.5t360 122.5q125 0 236.5 -25t206.5 -71 v-237h-15q-71 65 -182 113.5t-233 48.5q-138 0 -223 -64.5t-85 -169.5q0 -95 50 -151t145 -82q63 -17 154 -38.5t151 -39.5q154 -47 225 -142t71 -234q0 -87 -35.5 -172t-99.5 -144q-72 -65 -162.5 -100t-226.5 -35zM931 1670h-159l-185 256l-184 -256h-155l228 379h227z "/>
<glyph glyph-name="scircumflex" horiz-adv-x="914" unicode="ŝ" d="M438 -27q-112 0 -209.5 30t-161.5 64v211h10q24 -19 56.5 -42t86.5 -48q48 -22 105.5 -39t119.5 -17q45 0 96 10.5t76 26.5q35 23 50.5 49t15.5 78q0 67 -36.5 101t-129.5 57q-36 9 -94 21t-107 26q-128 37 -186 114.5t-58 187.5q0 151 114 246t303 95q93 0 187 -23 t158 -58v-201h-10q-72 57 -160.5 90t-178.5 33q-93 0 -157 -39t-64 -118q0 -70 38 -104.5t122 -56.5q42 -11 93.5 -21.5t108.5 -24.5q124 -31 186.5 -103t62.5 -196q0 -72 -28.5 -136.5t-83.5 -110.5q-60 -50 -135.5 -76t-189.5 -26zM826 1297h-159l-185 256l-184 -256h-155 l228 379h227z"/>
<glyph glyph-name="Scedilla" horiz-adv-x="1141" unicode="Ş" d="M566 -26q-162 0 -275.5 33t-213.5 82v248h14q98 -92 222 -142.5t239 -50.5q164 0 248 68.5t84 180.5q0 89 -44 145t-140 83q-69 20 -126 33t-143 35q-77 20 -138 51t-108 81q-46 49 -71.5 115.5t-25.5 153.5q0 181 141 303.5t360 122.5q125 0 236.5 -25t206.5 -71v-237 h-15q-71 65 -182 113.5t-233 48.5q-138 0 -223 -64.5t-85 -169.5q0 -95 50 -151t145 -82q63 -17 154 -38.5t151 -39.5q154 -47 225 -142t71 -234q0 -87 -35.5 -172t-99.5 -144q-39 -35 -79.5 -59t-93.5 -42q1 -16 3 -41.5t2 -54.5q0 -162 -88 -248t-221 -86q-37 0 -87 6 t-90 18v160h9q24 -11 63 -22.5t79 -11.5q94 0 138 39.5t44 126.5q0 18 -0.5 38.5t-1.5 45.5q-17 -1 -31.5 -2t-34.5 -1z"/>
<glyph glyph-name="scedilla" horiz-adv-x="914" unicode="ş" d="M438 -26q-112 0 -209.5 29.5t-161.5 63.5v211h10q24 -19 56.5 -42t86.5 -48q48 -22 105.5 -39t119.5 -17q45 0 96 10.5t76 26.5q35 23 50.5 49t15.5 78q0 67 -36.5 101t-129.5 57q-36 9 -94 21t-107 26q-128 37 -186 114.5t-58 187.5q0 151 114 246t303 95q93 0 187 -23 t158 -58v-201h-10q-72 57 -160.5 90t-178.5 33q-93 0 -157 -39t-64 -118q0 -70 38 -104.5t122 -56.5q42 -11 93.5 -21.5t108.5 -24.5q124 -31 186.5 -103t62.5 -196q0 -72 -28.5 -136.5t-83.5 -110.5q-23 -19 -45 -33t-50 -26q1 -18 3.5 -44.5t2.5 -60.5q0 -162 -88 -248 t-221 -86q-37 0 -87 6t-90 18v160h9q24 -11 63 -22.5t79 -11.5q94 0 138 39.5t44 126.5q0 18 -0.5 39t-1.5 46q-21 -2 -39 -3t-42 -1z"/>
<glyph glyph-name="Scaron" horiz-adv-x="1141" unicode="Š" d="M566 -27q-162 0 -275.5 33.5t-213.5 82.5v248h14q98 -92 222 -142.5t239 -50.5q164 0 248 68.5t84 180.5q0 89 -44 145t-140 83q-69 20 -126 33t-143 35q-77 20 -138 51t-108 81q-46 49 -71.5 115.5t-25.5 153.5q0 181 141 303.5t360 122.5q125 0 236.5 -25t206.5 -71 v-237h-15q-71 65 -182 113.5t-233 48.5q-138 0 -223 -64.5t-85 -169.5q0 -95 50 -151t145 -82q63 -17 154 -38.5t151 -39.5q154 -47 225 -142t71 -234q0 -87 -35.5 -172t-99.5 -144q-72 -65 -162.5 -100t-226.5 -35zM930 2049l-228 -379h-227l-228 379h159l185 -256l184 256 h155z"/>
<glyph glyph-name="scaron" horiz-adv-x="914" unicode="š" d="M438 -27q-112 0 -209.5 30t-161.5 64v211h10q24 -19 56.5 -42t86.5 -48q48 -22 105.5 -39t119.5 -17q45 0 96 10.5t76 26.5q35 23 50.5 49t15.5 78q0 67 -36.5 101t-129.5 57q-36 9 -94 21t-107 26q-128 37 -186 114.5t-58 187.5q0 151 114 246t303 95q93 0 187 -23 t158 -58v-201h-10q-72 57 -160.5 90t-178.5 33q-93 0 -157 -39t-64 -118q0 -70 38 -104.5t122 -56.5q42 -11 93.5 -21.5t108.5 -24.5q124 -31 186.5 -103t62.5 -196q0 -72 -28.5 -136.5t-83.5 -110.5q-60 -50 -135.5 -76t-189.5 -26zM815 1676l-228 -379h-227l-228 379h159 l185 -256l184 256h155z"/>
<glyph glyph-name="Tcedilla" horiz-adv-x="1196" unicode="Ţ" d="M499 0v1313h-500v176h1198v-176h-500v-1293h125q1 -18 3.5 -45.5t2.5 -63.5q0 -162 -87 -248t-220 -86q-37 0 -87 6t-90 18v160h9q24 -11 63 -22.5t79 -11.5q94 0 135 39.5t41 126.5q0 21 -0.5 46.5t-2.5 60.5h-169z"/>
<glyph glyph-name="tcedilla" horiz-adv-x="685" unicode="ţ" d="M466 -21q-151 3 -234.5 89.5t-83.5 273.5v619h-127v156h127v321h188v-321h346v-156h-346v-531q0 -85 3 -131t23 -86q17 -35 55 -52.5t103 -17.5q46 0 89 13.5t62 22.5h11v-169q-12 -3 -30.5 -8t-38.5 -8l2.5 -35t1.5 -48q0 -162 -87 -248t-220 -86q-37 0 -87 6t-90 18 v160h9q24 -11 63 -22.5t79 -11.5q94 0 139 39.5t45 126.5q0 18 -0.5 39.5t-1.5 46.5z"/>
<glyph glyph-name="Tcaron" horiz-adv-x="1196" unicode="Ť" d="M499 0v1313h-500v176h1198v-176h-500v-1313h-198zM941 2049l-228 -379h-227l-228 379h159l185 -256l184 256h155z"/>
<glyph glyph-name="tcaron" horiz-adv-x="959" unicode="ť" d="M1025 1556l-240 -505h-127l142 505h225zM474 -22q-154 0 -240 87.5t-86 276.5v619h-127v156h127v321h188v-321h292v-156h-292v-531q0 -85 3 -131t23 -86q17 -35 55 -52.5t103 -17.5q46 0 89 13.5t62 22.5h11v-169q-53 -15 -107.5 -23.5t-100.5 -8.5z"/>
<glyph glyph-name="Tbar" horiz-adv-x="1196" unicode="Ŧ" d="M1197 1313h-500v-430h317v-143h-317v-740h-198v740h-317v143h317v430h-500v176h1198v-176z"/>
<glyph glyph-name="tbar" horiz-adv-x="695" unicode="ŧ" d="M484 -22q-154 0 -240 87.5t-86 276.5v191h-127v134h127v294h-127v156h127v321h188v-321h346v-156h-346v-294h271v-134h-271v-103q0 -85 3 -131t23 -86q17 -35 55 -52.5t103 -17.5q46 0 89 13.5t62 22.5h11v-169q-53 -15 -107.5 -23.5t-100.5 -8.5z"/>
<glyph glyph-name="Utilde" horiz-adv-x="1343" unicode="Ũ" d="M671 -31q-131 0 -229 34.5t-167 102.5q-78 78 -110 186.5t-32 267.5v929h198v-929q0 -103 13 -173.5t51 -126.5q40 -60 108.5 -91t167.5 -31q93 0 165 31t112 91q37 57 50.5 126t13.5 169v934h198v-929q0 -155 -31.5 -266t-110.5 -188q-71 -69 -165.5 -103t-231.5 -34z M1070 1995q-10 -156 -74.5 -234t-171.5 -78q-52 0 -96 19t-86 59q-44 41 -76 62.5t-63 21.5q-49 0 -68.5 -45t-23.5 -121h-140q7 154 76 232.5t169 78.5q51 0 94 -19.5t86 -57.5q43 -39 77.5 -59.5t63.5 -20.5q47 0 68.5 45t24.5 117h140z"/>
<glyph glyph-name="utilde" horiz-adv-x="1142" unicode="ũ" d="M1006 0h-188v124q-87 -76 -165 -115.5t-174 -39.5q-73 0 -137.5 24t-112.5 76t-74.5 131t-26.5 192v725h188v-636q0 -89 6.5 -147.5t29.5 -102.5q23 -43 62.5 -63t113.5 -20q69 0 147 39t143 96v834h188v-1117zM966 1632q-10 -156 -74.5 -234t-171.5 -78q-52 0 -96 19 t-86 59q-44 41 -76 62.5t-63 21.5q-49 0 -68.5 -45t-23.5 -121h-140q7 154 76 232.5t169 78.5q51 0 94 -19.5t86 -57.5q43 -39 77.5 -59.5t63.5 -20.5q47 0 68.5 45t24.5 117h140z"/>
<glyph glyph-name="Umacron" horiz-adv-x="1343" unicode="Ū" d="M671 -31q-131 0 -229 34.5t-167 102.5q-78 78 -110 186.5t-32 267.5v929h198v-929q0 -103 13 -173.5t51 -126.5q40 -60 108.5 -91t167.5 -31q93 0 165 31t112 91q37 57 50.5 126t13.5 169v934h198v-929q0 -155 -31.5 -266t-110.5 -188q-71 -69 -165.5 -103t-231.5 -34z M1048 1698h-754v154h754v-154z"/>
<glyph glyph-name="umacron" horiz-adv-x="1142" unicode="ū" d="M1006 0h-188v124q-87 -76 -165 -115.5t-174 -39.5q-73 0 -137.5 24t-112.5 76t-74.5 131t-26.5 192v725h188v-636q0 -89 6.5 -147.5t29.5 -102.5q23 -43 62.5 -63t113.5 -20q69 0 147 39t143 96v834h188v-1117zM948 1335h-754v154h754v-154z"/>
<glyph glyph-name="Ubreve" horiz-adv-x="1343" unicode="Ŭ" d="M671 -31q-131 0 -229 34.5t-167 102.5q-78 78 -110 186.5t-32 267.5v929h198v-929q0 -103 13 -173.5t51 -126.5q40 -60 108.5 -91t167.5 -31q93 0 165 31t112 91q37 57 50.5 126t13.5 169v934h198v-929q0 -155 -31.5 -266t-110.5 -188q-71 -69 -165.5 -103t-231.5 -34z M1000 2009q0 -86 -21 -156.5t-60 -118.5q-45 -53 -102 -79.5t-146 -26.5q-82 0 -143.5 27.5t-103.5 78.5q-41 50 -62 120t-21 155h162q0 -135 42 -194.5t126 -59.5q79 0 123 58.5t44 195.5h162z"/>
<glyph glyph-name="ubreve" horiz-adv-x="1142" unicode="ŭ" d="M1006 0h-188v124q-87 -76 -165 -115.5t-174 -39.5q-73 0 -137.5 24t-112.5 76t-74.5 131t-26.5 192v725h188v-636q0 -89 6.5 -147.5t29.5 -102.5q23 -43 62.5 -63t113.5 -20q69 0 147 39t143 96v834h188v-1117zM900 1636q0 -86 -21 -156.5t-60 -118.5q-45 -53 -102 -79.5 t-146 -26.5q-82 0 -143.5 27.5t-103.5 78.5q-41 50 -62 120t-21 155h162q0 -135 42 -194.5t126 -59.5q79 0 123 58.5t44 195.5h162z"/>
<glyph glyph-name="Uring" horiz-adv-x="1343" unicode="Ů" d="M671 -31q-131 0 -229 34.5t-167 102.5q-78 78 -110 186.5t-32 267.5v929h198v-929q0 -103 13 -173.5t51 -126.5q40 -60 108.5 -91t167.5 -31q93 0 165 31t112 91q37 57 50.5 126t13.5 169v934h198v-929q0 -155 -31.5 -266t-110.5 -188q-71 -69 -165.5 -103t-231.5 -34z M831 1770q0 74 -44.5 123.5t-114.5 49.5q-69 0 -114 -50t-45 -123t44.5 -122t114.5 -49t114.5 49.5t44.5 121.5zM978 1771q0 -129 -88.5 -215t-217.5 -86q-128 0 -217 86.5t-89 214.5t89 214.5t217 86.5q129 0 217.5 -86t88.5 -215z"/>
<glyph glyph-name="uring" horiz-adv-x="1142" unicode="ů" d="M1006 0h-188v124q-87 -76 -165 -115.5t-174 -39.5q-73 0 -137.5 24t-112.5 76t-74.5 131t-26.5 192v725h188v-636q0 -89 6.5 -147.5t29.5 -102.5q23 -43 62.5 -63t113.5 -20q69 0 147 39t143 96v834h188v-1117zM731 1420q0 74 -44.5 123.5t-114.5 49.5q-69 0 -114 -50 t-45 -123t44.5 -122t114.5 -49t114.5 49.5t44.5 121.5zM878 1421q0 -129 -88.5 -215t-217.5 -86q-128 0 -217 86.5t-89 214.5t89 214.5t217 86.5q129 0 217.5 -86t88.5 -215z"/>
<glyph glyph-name="Udblacute" horiz-adv-x="1343" unicode="Ű" d="M671 -31q-131 0 -229 34.5t-167 102.5q-78 78 -110 186.5t-32 267.5v929h198v-929q0 -103 13 -173.5t51 -126.5q40 -60 108.5 -91t167.5 -31q93 0 165 31t112 91q37 57 50.5 126t13.5 169v934h198v-929q0 -155 -31.5 -266t-110.5 -188q-71 -69 -165.5 -103t-231.5 -34z M759 2049l-258 -374h-139l169 374h228zM1163 2049l-258 -374h-139l169 374h228z"/>
<glyph glyph-name="udblacute" horiz-adv-x="1142" unicode="ű" d="M1006 0h-188v124q-87 -76 -165 -115.5t-174 -39.5q-73 0 -137.5 24t-112.5 76t-74.5 131t-26.5 192v725h188v-636q0 -89 6.5 -147.5t29.5 -102.5q23 -43 62.5 -63t113.5 -20q69 0 147 39t143 96v834h188v-1117zM647 1676l-258 -374h-139l169 374h228zM1051 1676 l-258 -374h-139l169 374h228z"/>
<glyph glyph-name="Uogonek" horiz-adv-x="1343" unicode="Ų" d="M671 -30q-131 0 -229 34t-167 102q-78 78 -110 186.5t-32 267.5v929h198v-929q0 -103 13 -173.5t51 -126.5q40 -60 108.5 -91t167.5 -31q93 0 165 31t112 91q37 57 50.5 126t13.5 169v934h198v-929q0 -155 -31.5 -266t-110.5 -188q-40 -38 -85.5 -65.5t-104.5 -43.5 q-5 -20 -9.5 -48t-4.5 -56q0 -81 33 -121t121 -40q33 0 65.5 9.5t51.5 20.5h9v-158q-36 -10 -76.5 -15.5t-74.5 -5.5q-124 0 -206.5 75t-82.5 225q0 24 2.5 43.5t7.5 44.5q-9 0 -20 -0.5t-23 -0.5z"/>
<glyph glyph-name="uogonek" horiz-adv-x="1142" unicode="ų" d="M818 10v114q-87 -76 -165 -115.5t-174 -39.5q-73 0 -137.5 24t-112.5 76t-74.5 131t-26.5 192v725h188v-636q0 -89 6.5 -147.5t29.5 -102.5q23 -43 62.5 -63t113.5 -20q69 0 147 39t143 96v834h188v-1117h-36q-6 -23 -9.5 -52.5t-3.5 -54.5q0 -81 33 -121t121 -40 q33 0 65.5 9.5t51.5 20.5h9v-158q-36 -10 -76.5 -15.5t-74.5 -5.5q-123 0 -206 74t-83 226q0 35 6 64t15 63z"/>
<glyph glyph-name="Wcircumflex" horiz-adv-x="1847" unicode="Ŵ" d="M1821 1489l-374 -1489h-223l-303 1236l-296 -1236h-218l-381 1489h203l300 -1238l298 1238h201l301 -1250l298 1250h194zM1272 1670h-159l-185 256l-184 -256h-155l228 379h227z"/>
<glyph glyph-name="wcircumflex" horiz-adv-x="1520" unicode="ŵ" d="M1490 1117l-283 -1117h-174l-273 861l-271 -861h-173l-286 1117h196l197 -865l265 865h155l272 -865l186 865h189zM1109 1297h-159l-185 256l-184 -256h-155l228 379h227z"/>
<glyph glyph-name="Ycircumflex" horiz-adv-x="1180" unicode="Ŷ" d="M1193 1489l-503 -830v-659h-198v638l-503 851h220l384 -657l390 657h210zM935 1670h-159l-185 256l-184 -256h-155l228 379h227z"/>
<glyph glyph-name="ycircumflex" horiz-adv-x="1020" unicode="ŷ" d="M1014 1117l-601 -1529h-201l200 466l-406 1063h203l305 -827l304 827h196zM858 1297h-159l-185 256l-184 -256h-155l228 379h227z"/>
<glyph glyph-name="Ydieresis" horiz-adv-x="1180" unicode="Ÿ" d="M1193 1489l-503 -830v-659h-198v638l-503 851h220l384 -657l390 657h210zM487 1677h-201v195h201v-195zM900 1677h-201v195h201v-195z"/>
<glyph glyph-name="Zacute" horiz-adv-x="1145" unicode="Ź" d="M1100 0h-1040v184l797 1129h-761v176h984v-179l-806 -1134h826v-176zM871 2049l-273 -374h-149l179 374h243z"/>
<glyph glyph-name="zacute" horiz-adv-x="910" unicode="ź" d="M870 0h-821v139l584 823h-560v155h786v-134l-587 -826h598v-157zM735 1676l-273 -374h-149l179 374h243z"/>
<glyph glyph-name="Zdot" horiz-adv-x="1145" unicode="Ż" d="M1100 0h-1040v184l797 1129h-761v176h984v-179l-806 -1134h826v-176zM686 1677h-214v195h214v-195z"/>
<glyph glyph-name="zdot" horiz-adv-x="910" unicode="ż" d="M870 0h-821v139l584 823h-560v155h786v-134l-587 -826h598v-157zM556 1304h-214v195h214v-195z"/>
<glyph glyph-name="Zcaron" horiz-adv-x="1145" unicode="Ž" d="M1100 0h-1040v184l797 1129h-761v176h984v-179l-806 -1134h826v-176zM910 2049l-228 -379h-227l-228 379h159l185 -256l184 256h155z"/>
<glyph glyph-name="zcaron" horiz-adv-x="910" unicode="ž" d="M870 0h-821v139l584 823h-560v155h786v-134l-587 -826h598v-157zM800 1676l-228 -379h-227l-228 379h159l185 -256l184 256h155z"/>
<glyph glyph-name="longs" horiz-adv-x="520" unicode="ſ" d="M708 1376h-10q-25 9 -72 17.5t-84 8.5q-117 0 -165.5 -55.5t-48.5 -184.5v-1162h-188v1152q0 209 101 311.5t274 102.5q52 0 102 -5.5t91 -12.5v-172z"/>
<glyph glyph-name="florin" horiz-adv-x="1118" unicode="ƒ" d="M1087 1320h-10q-27 10 -78.5 23.5t-89.5 13.5q-112 0 -162 -60.5t-72 -213.5l-29 -199h292v-138h-310l-70 -511q-32 -231 -137 -334t-286 -103q-39 0 -86.5 4.5t-97.5 13.5v181h10q28 -10 77.5 -23.5t90.5 -13.5q112 0 163 61t71 213l72 512h-178v138h196l27 198 q17 123 54 206.5t92 136.5q52 49 125.5 71.5t151.5 22.5q50 0 91 -4.5t93 -13.5v-181z"/>
<glyph glyph-name="Ohorn" horiz-adv-x="1539" unicode="Ơ" d="M1177 744q0 148 -32 262t-90 189q-59 77 -142.5 115.5t-187.5 38.5q-108 0 -188.5 -37.5t-142.5 -116.5q-59 -76 -90.5 -191t-31.5 -260q0 -293 123 -448.5t330 -155.5t329.5 155.5t122.5 448.5zM1328 1097q27 -78 41 -165.5t14 -187.5q0 -181 -46 -327t-133 -245 q-91 -104 -212.5 -153.5t-267.5 -49.5q-151 0 -272 51t-208 152q-86 99 -132 244t-46 328q0 188 46.5 330t132.5 244q86 99 207.5 150.5t271.5 51.5q152 0 274 -53t206 -149q18 -21 34.5 -44.5t30.5 -48.5q79 4 112.5 36t33.5 100q0 36 -11 81.5t-23 68.5v9h160 q13 -47 18.5 -82t5.5 -85q0 -108 -60 -173t-177 -83z"/>
<glyph glyph-name="ohorn" horiz-adv-x="1152" unicode="ơ" d="M861 558q0 217 -79 322.5t-225 105.5q-147 0 -226.5 -105.5t-79.5 -322.5q0 -210 79.5 -318.5t226.5 -108.5q145 0 224.5 106.5t79.5 320.5zM1055 558q0 -282 -136 -435.5t-362 -153.5q-233 0 -366.5 158.5t-133.5 430.5q0 280 137.5 435t362.5 155q50 0 95.5 -7.5 t88.5 -23.5h89q90 0 127 32.5t37 103.5q0 36 -11 81.5t-23 68.5v9h160q13 -47 18.5 -82t5.5 -85q0 -106 -57.5 -170t-165.5 -84q65 -75 99.5 -184.5t34.5 -248.5z"/>
<glyph glyph-name="Uhorn" horiz-adv-x="1473" unicode="Ư" d="M671 -31q-131 0 -229 34.5t-167 102.5q-78 78 -110 186.5t-32 267.5v929h198v-929q0 -103 13 -173.5t51 -126.5q40 -60 108.5 -91t167.5 -31q93 0 165 31t112 91q37 57 50.5 126t13.5 169v934h216q90 0 127 32.5t37 103.5q0 36 -11 81.5t-23 68.5v9h160q13 -47 18.5 -82 t5.5 -85q0 -131 -86 -197t-246 -66v-794q0 -155 -31.5 -266t-110.5 -188q-71 -69 -165.5 -103t-231.5 -34z"/>
<glyph glyph-name="uhorn" horiz-adv-x="1242" unicode="ư" d="M1006 0h-188v124q-87 -76 -165 -115.5t-174 -39.5q-73 0 -137.5 24t-112.5 76t-74.5 131t-26.5 192v725h188v-636q0 -89 6.5 -147.5t29.5 -102.5q23 -43 62.5 -63t113.5 -20q69 0 147 39t143 96v834h208q90 0 127 32.5t37 103.5q0 36 -11 81.5t-23 68.5v9h160 q13 -47 18.5 -82t5.5 -85q0 -131 -86 -197t-246 -66h-2v-982z"/>
<glyph glyph-name="uni01B7" horiz-adv-x="1091" unicode="Ʒ" d="M1036 174q0 -283 -176 -449q-158 -148 -388 -148q-243 0 -441 85v222h14q202 -134 424 -134q160 0 257 107q105 116 105 327q0 205 -117 307q-97 84 -252 84h-103v166l441 572h-720v176h956v-179l-415 -554v-15q170 -21 285 -160q130 -157 130 -407z"/>
<glyph glyph-name="uni01E4" horiz-adv-x="1367" unicode="Ǥ" d="M1369 300h-100v-201q-129 -58 -220 -84q-152 -44 -275 -44q-329 0 -514 194q-194 203 -194 581q0 356 195 566q190 204 515 204q140 0 276 -41q93 -28 211 -87v-239h-17q-43 38 -76 63t-112 63q-144 70 -306 70q-235 0 -365 -185q-115 -163 -115 -408q0 -290 136 -452 q133 -158 358 -158q193 0 307 48v110h-344v143h344v132h-344v174h540v-306h100v-143z"/>
<glyph glyph-name="uni01E5" horiz-adv-x="1132" unicode="ǥ" d="M808 303v613q-130 63 -248 63q-161 0 -241 -128q-66 -106 -66 -278q0 -380 265 -380q159 0 290 110zM1083 -119h-118q-90 -304 -472 -304q-166 0 -327 48v196h10q69 -29 140 -47q115 -29 192 -29q172 0 242 87q18 23 30 49h-730v119h756q2 26 2 50v98 q-149 -129 -332 -129q-218 0 -326 174q-91 145 -91 376q0 265 144 429q132 150 327 150q145 0 278 -79l11 48h177v-990q0 -68 -7 -127h94v-119z"/>
<glyph glyph-name="uni01E6" horiz-adv-x="1367" unicode="Ǧ" d="M774 -29q-158 0 -289 48t-225 146q-94 99 -144 245t-50 336q0 180 50.5 322.5t144.5 243.5q91 98 224 151t291 53q75 0 144 -11t132 -30q50 -15 111.5 -41.5t99.5 -45.5v-239h-17q-37 33 -76.5 62.5t-111.5 63.5q-60 30 -138 50t-168 20q-215 0 -347.5 -162t-132.5 -431 q0 -150 35 -262t101 -190q64 -77 154.5 -117.5t203.5 -40.5q84 0 167 12t140 36v385h-344v174h540v-650q-38 -17 -101.5 -43t-118.5 -41q-73 -22 -132 -33t-143 -11zM1117 2049l-228 -379h-227l-228 379h159l185 -256l184 256h155z"/>
<glyph glyph-name="uni01E7" horiz-adv-x="1132" unicode="ǧ" d="M176 -179q19 -8 56 -21.5t84 -25.5q52 -13 96 -21t96 -8q87 0 147.5 23t94.5 64q32 41 45 95t13 123v98q-76 -66 -149 -97.5t-183 -31.5q-191 0 -304 142t-113 408q0 139 39 246.5t105 182.5q63 72 149 111t178 39q87 0 150.5 -20.5t127.5 -58.5l11 48h177v-990 q0 -284 -124 -417t-379 -133q-82 0 -167.5 13t-159.5 35v196h10zM808 303v613q-70 34 -129.5 48.5t-118.5 14.5q-143 0 -225 -105t-82 -301q0 -186 62.5 -283t202.5 -97q73 0 150.5 29t139.5 81zM897 1676l-228 -379h-227l-228 379h159l185 -256l184 256h155z"/>
<glyph glyph-name="uni01E8" horiz-adv-x="1204" unicode="Ǩ" d="M1236 0h-257l-543 693l-87 -98v-595h-198v1489h198v-685l610 685h241l-616 -665zM957 2049l-228 -379h-227l-228 379h159l185 -256l184 256h155z"/>
<glyph glyph-name="uni01E9" horiz-adv-x="1020" unicode="ǩ" d="M1062 0h-247l-417 539l-74 -72v-467h-188v1556h188v-911l442 472h234l-459 -467zM927 2049l-228 -379h-227l-228 379h159l185 -256l184 256h155z"/>
<glyph glyph-name="uni01EA" horiz-adv-x="1449" unicode="Ǫ" d="M1177 744q0 293 -122 451q-119 154 -330 154t-332 -155t-121 -450q0 -253 98 -412q118 -192 355 -192t355 192q97 159 97 412zM1383 744q0 -368 -178 -571t-478 -204l-2 -13q-5 -29 -5 -63q0 -161 154 -161q65 0 117 30h9v-158q-76 -21 -151 -21q-137 0 -213 81t-76 219 q0 42 14 100q-346 68 -462 433q-46 145 -46 328q0 365 179 574q173 202 479 202q304 0 480 -202q179 -205 179 -574z"/>
<glyph glyph-name="uni01EB" horiz-adv-x="1112" unicode="ǫ" d="M861 558q0 428 -304 428q-306 0 -306 -428q0 -427 306 -427q304 0 304 427zM1055 558q0 -256 -118 -413q-132 -176 -378 -176l-2 -13q-5 -29 -5 -63q0 -161 154 -161q65 0 117 30h9v-158q-76 -21 -151 -21q-137 0 -213 81t-76 219q0 44 15 105q-128 35 -216 140 q-134 159 -134 430q0 255 120 414q134 176 380 176q248 0 380 -176q118 -157 118 -414z"/>
<glyph glyph-name="uni01EE" horiz-adv-x="1091" unicode="Ǯ" d="M1036 174q0 -283 -176 -449q-158 -148 -388 -148q-243 0 -441 85v222h14q202 -134 424 -134q160 0 257 107q105 116 105 327q0 205 -117 307q-97 84 -252 84h-103v166l441 572h-720v176h956v-179l-415 -554v-15q170 -21 285 -160q130 -157 130 -407zM897 2049l-228 -379 h-227l-228 379h159l185 -256l184 256h155z"/>
<glyph glyph-name="uni01EF" horiz-adv-x="910" unicode="ǯ" d="M861 119q0 -542 -521 -542q-140 0 -330 88v211h11q145 -136 322 -136q323 0 323 379q0 165 -87 269q-95 115 -266 115v42l311 417h-560v155h786v-134l-282 -377q96 -42 170 -128q123 -144 123 -359zM817 1676l-228 -379h-227l-228 379h159l185 -256l184 256h155z"/>
<glyph glyph-name="Aringacute" horiz-adv-x="1228" unicode="Ǻ" d="M891 2117l-243 -274h-149l149 274h243zM742 1563q0 54 -35.5 91.5t-92.5 37.5t-93 -37t-36 -92q0 -57 36.5 -94.5t92.5 -37.5t92 38t36 94zM839 584l-230 705l-229 -705h459zM859.5 1447.5q-29.5 -52.5 -80.5 -83.5l459 -1364h-209l-135 416h-569l-135 -416h-200 l459 1364q-51 31 -81 82t-30 117q0 109 80.5 181t195.5 72t195 -72t80 -181q0 -63 -29.5 -115.5z"/>
<glyph glyph-name="aringacute" horiz-adv-x="1075" unicode="ǻ" d="M803 1843l-243 -274h-149l149 274h243zM654 1289q0 54 -35.5 91.5t-92.5 37.5t-93 -37t-36 -92q0 -57 36.5 -94.5t92.5 -37.5t92 38t36 94zM760 119q-23 -17 -61.5 -47.5t-74.5 -48.5q-50 -26 -96.5 -40t-130.5 -14q-69 0 -131 26t-109 73q-45 46 -72 113.5t-27 142.5 q0 116 49 197.5t155 129.5q94 43 222 59.5t276 24.5v36q0 66 -20 106.5t-56 62.5q-36 23 -81 31.5t-114 8.5q-84 0 -166.5 -22.5t-162.5 -55.5h-11v191q30 9 73.5 16.5t99.5 15.5q-31 32 -50.5 73t-19.5 91q0 109 79.5 181t194.5 72t194 -72t79 -181q0 -56 -25.5 -102.5 t-62.5 -76.5q112 -35 174 -113.5t62 -232.5v-764h-187v119zM760 275v310q-67 -6 -169.5 -16.5t-165.5 -29.5q-75 -23 -124 -70.5t-49 -132.5q0 -96 54 -145t158 -49q89 0 161 38.5t135 94.5z"/>
<glyph glyph-name="AEacute" horiz-adv-x="1870" unicode="Ǽ" d="M890 723v601h-194l-245 -601h439zM1802 0h-912v557h-505l-217 -557h-207l603 1489h1238v-176h-716v-408h666v-176h-666v-553h716v-176zM1370 2049l-273 -374h-149l179 374h243z"/>
<glyph glyph-name="aeacute" horiz-adv-x="1802" unicode="ǽ" d="M1567 703q-5 59 -20.5 112.5t-47.5 92.5q-31 38 -85 61.5t-127 23.5q-78 0 -129.5 -21.5t-94.5 -62.5q-40 -38 -64.5 -92.5t-34.5 -113.5h603zM1340 138q65 0 125.5 14.5t106.5 35.5q51 23 86 44.5t58 40.5h11v-205l-82.5 -32.5t-88.5 -30.5q-55 -15 -99.5 -23t-114.5 -8 q-161 0 -276 52t-189 155q-21 -19 -64.5 -59.5t-91.5 -68.5q-65 -38 -134.5 -60t-179.5 -22q-146 0 -247.5 97t-101.5 249q0 129 53 204t150 117q92 39 231.5 52t293.5 16v58q0 65 -21.5 108t-60.5 67q-36 22 -87.5 31.5t-116.5 9.5q-81 0 -176.5 -26.5t-152.5 -51.5h-15 v191q49 14 151.5 33.5t193.5 19.5q160 0 260 -48t153 -136q66 81 165 133.5t217 52.5q224 0 338.5 -134.5t114.5 -372.5v-82h-788q0 -114 30 -195.5t83 -132.5q53 -50 120 -71.5t146 -21.5zM817 298q-19 54 -29 119.5t-10 140.5q-95 -3 -189.5 -8.5t-169.5 -26.5 q-74 -20 -121 -66t-47 -127q0 -95 56 -141.5t167 -46.5q91 0 184 44t159 112zM1249 1676l-273 -374h-149l179 374h243z"/>
<glyph glyph-name="Oslashacute" horiz-adv-x="1449" unicode="Ǿ" d="M1179 744q0 138 -27.5 246t-73.5 179l-628 -937q57 -46 120.5 -69t154.5 -23q206 0 330 155.5t124 448.5zM995 1260q-52 44 -120 66.5t-150 22.5q-208 0 -331.5 -154t-123.5 -451q0 -135 26 -239.5t73 -180.5zM1383 744q0 -368 -180 -571.5t-479 -203.5q-110 0 -204.5 29 t-171.5 82l-132 -196h-148l189 278q-90 99 -140.5 245t-50.5 337q0 368 180.5 572t477.5 204q114 0 203.5 -27.5t169.5 -82.5l115 171h148l-171 -251q91 -100 142.5 -243.5t51.5 -342.5zM1031 2049l-273 -374h-149l179 374h243z"/>
<glyph glyph-name="oslashacute" horiz-adv-x="1112" unicode="ǿ" d="M864 558q0 99 -14.5 173t-42.5 125l-429 -669q38 -29 79.5 -42.5t99.5 -13.5q145 0 226 106.5t81 320.5zM735 932q-34 26 -78 40t-100 14q-147 0 -228 -107.5t-81 -320.5q0 -97 14.5 -169.5t43.5 -126.5zM1055 558q0 -282 -136 -435t-362 -153q-79 0 -145 20.5t-124 56.5 l-123 -194h-124l168 261q-72 76 -112 187t-40 257q0 280 137.5 434.5t362.5 154.5q75 0 142 -20t124 -57l108 170h125l-152 -236q71 -77 111 -186t40 -260zM874 1676l-273 -374h-149l179 374h243z"/>
<glyph glyph-name="Scommaaccent" horiz-adv-x="1141" unicode="Ș" d="M566 -27q-162 0 -275.5 33.5t-213.5 82.5v248h14q98 -92 222 -142.5t239 -50.5q164 0 248 68.5t84 180.5q0 89 -44 145t-140 83q-69 20 -126 33t-143 35q-77 20 -138 51t-108 81q-46 49 -71.5 115.5t-25.5 153.5q0 181 141 303.5t360 122.5q125 0 236.5 -25t206.5 -71 v-237h-15q-71 65 -182 113.5t-233 48.5q-138 0 -223 -64.5t-85 -169.5q0 -95 50 -151t145 -82q63 -17 154 -38.5t151 -39.5q154 -47 225 -142t71 -234q0 -87 -35.5 -172t-99.5 -144q-72 -65 -162.5 -100t-226.5 -35zM363 -423l137 269h242l-241 -269h-138z"/>
<glyph glyph-name="scommaaccent" horiz-adv-x="914" unicode="ș" d="M438 -27q-112 0 -209.5 30t-161.5 64v211h10q24 -19 56.5 -42t86.5 -48q48 -22 105.5 -39t119.5 -17q45 0 96 10.5t76 26.5q35 23 50.5 49t15.5 78q0 67 -36.5 101t-129.5 57q-36 9 -94 21t-107 26q-128 37 -186 114.5t-58 187.5q0 151 114 246t303 95q93 0 187 -23 t158 -58v-201h-10q-72 57 -160.5 90t-178.5 33q-93 0 -157 -39t-64 -118q0 -70 38 -104.5t122 -56.5q42 -11 93.5 -21.5t108.5 -24.5q124 -31 186.5 -103t62.5 -196q0 -72 -28.5 -136.5t-83.5 -110.5q-60 -50 -135.5 -76t-189.5 -26zM251 -423l137 269h242l-241 -269h-138z "/>
<glyph glyph-name="uni021A" horiz-adv-x="1196" unicode="Ț" d="M499 0v1313h-500v176h1198v-176h-500v-1313h-198zM329 -423l137 269h242l-241 -269h-138z"/>
<glyph glyph-name="uni021B" horiz-adv-x="685" unicode="ț" d="M474 -22q-154 0 -240 87.5t-86 276.5v619h-127v156h127v321h188v-321h346v-156h-346v-531q0 -85 3 -131t23 -86q17 -35 55 -52.5t103 -17.5q46 0 89 13.5t62 22.5h11v-169q-53 -15 -107.5 -23.5t-100.5 -8.5zM139 -423l137 269h242l-241 -269h-138z"/>
<glyph glyph-name="uni0228" horiz-adv-x="1149" unicode="Ȩ" d="M1082 0h-264q4 -58 4 -89q0 -149 -79 -239q-84 -95 -230 -95q-97 0 -177 24v160h9q74 -34 142 -34q182 0 182 166q0 37 -4 107h-514v1489h931v-176h-733v-408h683v-176h-683v-553h733v-176z"/>
<glyph glyph-name="uni0229" horiz-adv-x="1078" unicode="ȩ" d="M841 683q-8 310 -276 310q-140 0 -224 -88q-79 -83 -91 -222h591zM1024 539h-774q0 -185 91 -290q96 -111 278 -111q210 0 373 135h11v-205q-94 -37 -135 -51q-75 -25 -139 -34q3 -44 3 -72q0 -149 -79 -239q-84 -95 -230 -95q-97 0 -177 24v160h9q74 -34 142 -34 q182 0 182 166q0 13 -4 83q-254 13 -388 169q-128 149 -128 407q0 255 129 418q140 178 388 178q223 0 339 -140q109 -132 109 -367v-102z"/>
<glyph glyph-name="uni0292" horiz-adv-x="910" unicode="ʒ" d="M861 119q0 -542 -521 -542q-140 0 -330 88v211h11q145 -136 322 -136q323 0 323 379q0 165 -87 269q-95 115 -266 115v42l311 417h-560v155h786v-134l-282 -377q96 -42 170 -128q123 -144 123 -359z"/>
<glyph glyph-name="circumflex" horiz-adv-x="1118" unicode="ˆ" d="M901 1297h-159l-185 256l-184 -256h-155l228 379h227z"/>
<glyph glyph-name="caron" horiz-adv-x="1118" unicode="ˇ" d="M897 1676l-228 -379h-227l-228 379h159l185 -256l184 256h155z"/>
<glyph glyph-name="macron" horiz-adv-x="1118" unicode="ˉ" d="M936 1335h-754v154h754v-154z"/>
<glyph glyph-name="breve" horiz-adv-x="1118" unicode="˘" d="M889 1636q0 -86 -21 -156.5t-60 -118.5q-45 -53 -102 -79.5t-146 -26.5q-82 0 -143.5 27.5t-103.5 78.5q-41 50 -62 120t-21 155h162q0 -135 42 -194.5t126 -59.5q79 0 123 58.5t44 195.5h162z"/>
<glyph glyph-name="dotaccent" horiz-adv-x="1118" unicode="˙" d="M666 1304h-214v195h214v-195z"/>
<glyph glyph-name="ring" horiz-adv-x="1118" unicode="˚" d="M718 1420q0 74 -44.5 123.5t-114.5 49.5q-69 0 -114 -50t-45 -123t44.5 -122t114.5 -49t114.5 49.5t44.5 121.5zM865 1421q0 -129 -88.5 -215t-217.5 -86q-128 0 -217 86.5t-89 214.5t89 214.5t217 86.5q129 0 217.5 -86t88.5 -215z"/>
<glyph glyph-name="ogonek" horiz-adv-x="1118" unicode="˛" d="M517 10q-6 -27 -10.5 -54.5t-4.5 -62.5q0 -81 33 -121t121 -40q33 0 65.5 9.5t51.5 20.5h9v-158q-36 -10 -76.5 -15.5t-74.5 -5.5q-135 0 -212 79.5t-77 220.5q0 35 6 64t15 63h154z"/>
<glyph glyph-name="tilde" horiz-adv-x="1118" unicode="˜" d="M960 1632q-10 -156 -74.5 -234t-171.5 -78q-52 0 -96 19t-86 59q-44 41 -76 62.5t-63 21.5q-49 0 -68.5 -45t-23.5 -121h-140q7 154 76 232.5t169 78.5q51 0 94 -19.5t86 -57.5q43 -39 77.5 -59.5t63.5 -20.5q47 0 68.5 45t24.5 117h140z"/>
<glyph glyph-name="hungarumlaut" horiz-adv-x="1118" unicode="˝" d="M647 1676l-258 -374h-139l169 374h228zM1051 1676l-258 -374h-139l169 374h228z"/>
<glyph glyph-name="gravecomb" d="M-348 1302h-149l-273 374h243z" unicode="̀"/>
<glyph glyph-name="gravecomb" d="M-348 1302h-149l-273 374h243z" unicode="̀"/>
<glyph glyph-name="acutecomb" d="M-219 1676l-273 -374h-149l179 374h243z" unicode="́"/>
<glyph glyph-name="acutecomb" d="M-219 1676l-273 -374h-149l179 374h243z" unicode="́"/>
<glyph glyph-name="uni0302" d="M341 1297h-159l-185 256l-184 -256h-155l228 379h227z" unicode="̂"/>
<glyph glyph-name="tildecomb" d="M-174 2049q-10 -156 -74.5 -234t-171.5 -78q-52 0 -96 19t-86 59q-44 41 -76 62.5t-63 21.5q-49 0 -68.5 -45t-23.5 -121h-140q7 154 76 232.5t169 78.5q51 0 94 -19.5t86 -57.5q43 -39 77.5 -59.5t63.5 -20.5q47 0 68.5 45t24.5 117h140z" unicode="̃"/>
<glyph glyph-name="uni0304" d="M377 1335h-754v154h754v-154z" unicode="̄"/>
<glyph glyph-name="uni0305" d="M575 1659h-1150v130h1150v-130z" unicode="̅"/>
<glyph glyph-name="uni0306" d="M329 1636q0 -86 -21 -156.5t-60 -118.5q-45 -53 -102 -79.5t-146 -26.5q-82 0 -143.5 27.5t-103.5 78.5q-41 50 -62 120t-21 155h162q0 -135 42 -194.5t126 -59.5q79 0 123 58.5t44 195.5h162z" unicode="̆"/>
<glyph glyph-name="uni0307" d="M107 1304h-214v195h214v-195z" unicode="̇"/>
<glyph glyph-name="uni0308" d="M-106 1304h-201v195h201v-195zM307 1304h-201v195h201v-195z" unicode="̈"/>
<glyph glyph-name="glyph650" d="M-337 1925q0 -64 -33 -103t-99 -60v-68h-110v121q47 11 71 31t24 59q0 23 -19 43t-52 20q-31 0 -49 -4t-43 -14h-3v105q20 6 56 12t74 6q81 0 132 -43t51 -105z" unicode="̉"/>
<glyph glyph-name="uni030A" d="M159 1420q0 74 -44.5 123.5t-114.5 49.5q-69 0 -114 -50t-45 -123t44.5 -122t114.5 -49t114.5 49.5t44.5 121.5zM306 1421q0 -129 -88.5 -215t-217.5 -86q-128 0 -217 86.5t-89 214.5t89 214.5t217 86.5q129 0 217.5 -86t88.5 -215z" unicode="̊"/>
<glyph glyph-name="uni030B" d="M-3 1676l-258 -374h-139l169 374h228zM401 1676l-258 -374h-139l169 374h228z" unicode="̋"/>
<glyph glyph-name="uni030C" d="M341 1676l-228 -379h-227l-228 379h159l185 -256l184 256h155z" unicode="̌"/>
<glyph glyph-name="uni030D" d="M65 1304h-130v376h130v-376z" unicode="̍"/>
<glyph glyph-name="uni030E" d="M-65 1304h-130v376h130v-376zM195 1304h-130v376h130v-376z" unicode="̎"/>
<glyph glyph-name="uni030F" d="M-172 1676l169 -374h-139l-258 374h228zM232 1676l169 -374h-139l-258 374h228z" unicode="̏"/>
<glyph glyph-name="uni0310" d="M82 1782v-146h-164v146h164zM329 1636q0 -86 -21 -156.5t-60 -118.5q-45 -53 -102 -79.5t-146 -26.5q-82 0 -143.5 27.5t-103.5 78.5q-41 50 -62 120t-21 155h162q0 -135 42 -194.5t126 -59.5q79 0 123 58.5t44 195.5h162z" unicode="̐"/>
<glyph glyph-name="uni0311" d="M330 1255h-162q0 254 -167 254q-168 0 -168 -254h-162q0 174 83 275q87 106 247 106t248 -106q81 -97 81 -275z" unicode="̑"/>
<glyph glyph-name="uni0312" d="M96 1236h-191v174q0 91 50 166q53 79 139 100v-111q-93 -12 -93 -145h95v-184z" unicode="̒"/>
<glyph glyph-name="uni0313" d="M96 1502q0 -91 -50 -165q-53 -80 -139 -101v111q93 12 93 145h-95v184h191v-174z" unicode="̓"/>
<glyph glyph-name="uni0314" d="M96 1492h-95q0 -133 93 -145v-111q-86 21 -139 101q-50 74 -50 165v174h191v-184z" unicode="̔"/>
<glyph glyph-name="uni0315" d="M291 1502q0 -91 -50 -165q-53 -80 -139 -101v111q93 12 93 145h-95v184h191v-174z" unicode="̕"/>
<glyph glyph-name="uni0316" d="M211 -421h-149l-273 374h243z" unicode="̖"/>
<glyph glyph-name="uni0317" d="M211 -47l-273 -374h-149l179 374h243z" unicode="̗"/>
<glyph glyph-name="uni0318" d="M188 -420h-130v123h-246v130h246v123h130v-376z" unicode="̘"/>
<glyph glyph-name="uni0319" d="M-188 -44h130v-123h246v-130h-246v-123h-130v376z" unicode="̙"/>
<glyph glyph-name="uni031A" d="M377 1335h-154v308h-600v154h754v-462z" unicode="̚"/>
<glyph glyph-name="uni031B" d="M0 1489q108 0 145 32.5t37 103.5q0 36 -11 81.5t-23 68.5v9h160q13 -47 18.5 -82t5.5 -85q0 -131 -86 -197t-246 -66v135z" unicode="̛"/>
<glyph glyph-name="uni031C" d="M92 -420q-79 0 -132 51.5t-53 130.5t53 130.5t132 51.5v-77q-43 0 -69.5 -31t-26.5 -75t26.5 -74t69.5 -30v-77z" unicode="̜"/>
<glyph glyph-name="uni031D" d="M65 -290h123v-130h-376v130h123v246h130v-246z" unicode="̝"/>
<glyph glyph-name="uni031E" d="M65 -420h-130v246h-123v130h376v-130h-123v-246z" unicode="̞"/>
<glyph glyph-name="uni031F" d="M65 -420h-130v123h-123v130h123v123h130v-123h123v-130h-123v-123z" unicode="̟"/>
<glyph glyph-name="uni0320" d="M377 -400h-754v154h754v-154z" unicode="̠"/>
<glyph glyph-name="uni0321" d="M188 -32q0 -191 -102.5 -291t-282.5 -100q-31 0 -69.5 3t-76.5 9v168h11q22 -5 48.5 -9.5t50.5 -4.5q75 0 123.5 18.5t72.5 58.5q22 36 29.5 82.5t7.5 75.5v7v143h188v-160z" unicode="̡"/>
<glyph glyph-name="uni0322" d="M531 -411q-76 -12 -146 -12q-185 0 -285 102.5t-100 288.5v160h188v-143q0 -104 37 -165q47 -77 196 -77q37 0 99 14h11v-168z" unicode="̢"/>
<glyph glyph-name="glyph649" d="M-513 -382h-214v195h214v-195z" unicode="̣"/>
<glyph glyph-name="uni0324" d="M-106 -400h-201v195h201v-195zM307 -400h-201v195h201v-195z" unicode="̤"/>
<glyph glyph-name="uni0325" d="M96 -239q0 44 -26.5 75t-69.5 31t-69.5 -31t-26.5 -75t26.5 -74t69.5 -30q42 0 69 30.5t27 73.5zM185 -238q0 -79 -53 -130.5t-132 -51.5t-132 51.5t-53 130.5t53 130.5t132 51.5t132 -51.5t53 -130.5z" unicode="̥"/>
<glyph glyph-name="uni0326" d="M96 -195q0 -71 -50 -135q-53 -70 -139 -91v111q93 12 93 105h-95v154h191v-144z" unicode="̦"/>
<glyph glyph-name="uni0327" d="M236 20q1 -18 3.5 -45.5t2.5 -63.5q0 -162 -87 -248t-220 -86q-37 0 -87 6t-90 18v160h9q24 -11 63 -22.5t79 -11.5q94 0 134 39.5t40 126.5q0 26 -1 57t-3 70h157z" unicode="̧"/>
<glyph glyph-name="uni0328" d="M-45 10q-6 -27 -10.5 -54.5t-4.5 -62.5q0 -81 33 -121t121 -40q33 0 65.5 9.5t51.5 20.5h9v-158q-36 -10 -76.5 -15.5t-74.5 -5.5q-135 0 -212 79.5t-77 220.5q0 35 6 64t15 63h154z" unicode="̨"/>
<glyph glyph-name="uni0329" d="M65 -420h-130v376h130v-376z" unicode="̩"/>
<glyph glyph-name="uni032A" d="M377 -420h-154v222h-446v-222h-154v376h754v-376z" unicode="̪"/>
<glyph glyph-name="uni032B" d="M326 -125q0 -98 -52 -151.5t-130 -53.5q-90 0 -143 68q-53 -68 -144 -68q-78 0 -130 53.5t-52 151.5h77q0 -61 30.5 -88.5t75.5 -27.5q44 0 74 27t30 89h77q0 -61 30.5 -88.5t75.5 -27.5q44 0 74 27t30 89q11 1 30 1t47 -1z" unicode="̫"/>
<glyph glyph-name="uni032C" d="M341 -41l-228 -379h-227l-228 379h159l185 -256l184 256h155z" unicode="̬"/>
<glyph glyph-name="uni032D" d="M341 -420h-159l-185 256l-184 -256h-155l228 379h227z" unicode="̭"/>
<glyph glyph-name="uni032E" d="M329 -39q0 -86 -21 -156.5t-60 -118.5q-45 -53 -102 -79.5t-146 -26.5q-82 0 -143.5 27.5t-103.5 78.5q-41 50 -62 120t-21 155h162q0 -135 42 -194.5t126 -59.5q79 0 123 58.5t44 195.5h162z" unicode="̮"/>
<glyph glyph-name="uni032F" d="M330 -420h-162q0 254 -167 254q-168 0 -168 -254h-162q0 174 83 275q87 106 247 106t248 -106q81 -97 81 -275z" unicode="̯"/>
<glyph glyph-name="uni0330" d="M400 -104q-10 -156 -74.5 -234t-171.5 -78q-52 0 -96 19t-86 59q-44 41 -76 62.5t-63 21.5q-49 0 -68.5 -45t-23.5 -121h-140q7 154 76 232.5t169 78.5q51 0 94 -19.5t86 -57.5q43 -39 77.5 -59.5t63.5 -20.5q47 0 68.5 45t24.5 117h140z" unicode="̰"/>
<glyph glyph-name="uni0331" d="M377 -400h-754v154h754v-154z" unicode="̱"/>
<glyph glyph-name="uni0332" d="M575 -300h-1150v130h1150v-130z" unicode="̲"/>
<glyph glyph-name="uni0333" d="M575 -423h-1150v130h1150v-130zM575 -212h-1150v130h1150v-130z" unicode="̳"/>
<glyph glyph-name="uni0334" d="M400 940q-10 -156 -74.5 -234t-171.5 -78q-52 0 -96 19t-86 59q-44 41 -76 62.5t-63 21.5q-49 0 -68.5 -45t-23.5 -121h-140q7 154 76 232.5t169 78.5q51 0 94 -19.5t86 -57.5q43 -39 77.5 -59.5t63.5 -20.5q47 0 68.5 45t24.5 117h140z" unicode="̴"/>
<glyph glyph-name="uni0335" d="M377 624h-754v154h754v-154z" unicode="̵"/>
<glyph glyph-name="uni0336" d="M575 624h-1150v130h1150v-130z" unicode="̶"/>
<glyph glyph-name="uni0337" d="M377 924l-754 -600v154l754 600v-154z" unicode="̷"/>
<glyph glyph-name="uni0338" d="M376 1556l-583 -1880h-169l580 1880h172z" unicode="̸"/>
<glyph glyph-name="uni0339" d="M92 -238q0 -79 -53 -130.5t-132 -51.5v77q43 0 69.5 30t26.5 74t-26.5 75t-69.5 31v77q79 0 132 -51.5t53 -130.5z" unicode="̹"/>
<glyph glyph-name="uni033A" d="M377 -420h-754v376h154v-222h446v222h154v-376z" unicode="̺"/>
<glyph glyph-name="uni033B" d="M-98 -134v-196h196v196h-196zM188 -420h-376v376h376v-376z" unicode="̻"/>
<glyph glyph-name="uni033C" d="M327 -280h-77q-17 66 -96 66q-51 0 -83 -43q-31 -39 -31 -93h-79q0 54 -31 93q-32 43 -83 43q-80 0 -96 -66h-77q11 64 52 106q47 49 120 49q118 0 154 -88q36 88 155 88q73 0 120 -49q41 -42 52 -106z" unicode="̼"/>
<glyph glyph-name="uni033D" d="M221 1445l-92 -92l-129 129l-129 -129l-92 92l129 129l-129 129l92 92l129 -129l129 129l92 -92l-129 -129z" unicode="̽"/>
<glyph glyph-name="uni033E" d="M101 1720q-103 -6 -103 -59q0 -32 50 -89q50 -53 50 -116q0 -145 -200 -158v90q104 4 104 59q0 34 -50 90t-50 116q0 148 199 157v-90z" unicode="̾"/>
<glyph glyph-name="uni033F" d="M575 1659h-1150v130h1150v-130zM575 1870h-1150v130h1150v-130z" unicode="̿"/>
<glyph glyph-name="uni0342" d="M400 1632q-10 -156 -74.5 -234t-171.5 -78q-52 0 -96 19t-86 59q-44 41 -76 62.5t-63 21.5q-49 0 -68.5 -45t-23.5 -121h-140q7 154 76 232.5t169 78.5q51 0 94 -19.5t86 -57.5q43 -39 77.5 -59.5t63.5 -20.5q47 0 68.5 45t24.5 117h140z" unicode="͂"/>
<glyph glyph-name="uni0343" d="M96 1502q0 -91 -50 -165q-53 -80 -139 -101v111q93 12 93 145h-95v184h191v-174z" unicode="̓"/>
<glyph glyph-name="uni0344" d="M-195 1304h-191v195h191v-195zM223 1776l-189 -384h-128l91 384h226zM386 1304h-191v195h191v-195z" unicode="̈́"/>
<glyph glyph-name="uni0345" d="M103 -417h-206l49 324h108z" unicode="ͅ"/>
<glyph glyph-name="uni0346" d="M377 1335h-154v222h-446v-222h-154v376h754v-376z" unicode="͆"/>
<glyph glyph-name="uni0347" d="M575 -423h-1150v130h1150v-130zM575 -212h-1150v130h1150v-130z" unicode="͇"/>
<glyph glyph-name="uni0348" d="M-65 -420h-130v376h130v-376zM195 -420h-130v376h130v-376z" unicode="͈"/>
<glyph glyph-name="uni0349" d="M188 -420h-130v246h-246v130h376v-376z" unicode="͉"/>
<glyph glyph-name="uni034A" d="M399 1632q-20 -312 -246 -312q-86 0 -156 55l-96 -137l-86 58l104 148q-49 38 -87 38q-83 0 -92 -166h-140q6 128 60 211q65 100 185 100q84 0 160 -60l93 133l86 -58l-99 -141q46 -31 81 -31q86 0 93 162h140z" unicode="͊"/>
<glyph glyph-name="uni034B" d="M70 1335v-140h-140v140h140zM70 1832v-140h-140v140h140zM400 1672q-10 -156 -74.5 -234t-171.5 -78q-52 0 -96 19t-86 59q-44 41 -76 62.5t-63 21.5q-49 0 -68.5 -45t-23.5 -121h-140q7 154 76 232.5t169 78.5q51 0 94 -19.5t86 -57.5q43 -39 77.5 -59.5t63.5 -20.5 q47 0 68.5 45t24.5 117h140z" unicode="͋"/>
<glyph glyph-name="uni034C" d="M405 1587q-6 -111 -58 -181q-65 -86 -188 -86q-71 0 -169 61t-152 61q-77 0 -92 -122h-140q7 109 61 180q65 87 184 87q88 0 180.5 -58.5t140.5 -58.5q41 0 71 45q23 35 23 63q0 4 -1 9h140zM395 1854q-6 -111 -58 -181q-65 -86 -188 -86q-71 0 -169 61t-152 61 q-77 0 -92 -122h-140q7 109 61 180q65 87 184 87q88 0 180.5 -58.5t140.5 -58.5q41 0 71 45q23 35 23 63q0 4 -1 9h140z" unicode="͌"/>
<glyph glyph-name="uni034D" d="M253 -232l-130 -188v123h-246v-123l-130 188l130 188v-123h246v123z" unicode="͍"/>
<glyph glyph-name="uni034E" d="M65 -420h-130v246h-123l188 130l188 -130h-123v-246z" unicode="͎"/>
<glyph glyph-name="uni0360" d="M1413 1632q-32 -123 -136 -212q-115 -99 -259 -99q-117 0 -395 80.5t-414 80.5q-90 0 -161 -56q-61 -48 -81 -110h-140q32 123 136 213q115 98 259 98q133 0 406.5 -80.5t402.5 -80.5q90 0 161 56q61 48 81 110h140z" unicode="͠"/>
<glyph glyph-name="uni0361" d="M1414 1255h-162q-183 254 -632 254q-448 0 -631 -254h-162q240 381 794 381q553 0 793 -381z" unicode="͡"/>
<glyph glyph-name="uni0362" d="M977 -232l-130 -188v123h-1020v130h1020v123z" unicode="͢"/>
<glyph glyph-name="uni1E00" horiz-adv-x="1228" unicode="Ḁ" d="M839 585l-230 702l-229 -702h459zM-10 0l502 1489h244l502 -1489h-209l-135 416h-569l-135 -416h-200zM703 -246q0 43 -26 73t-68 30t-68 -30t-26 -73t26 -72t68 -29t68 29.5t26 71.5zM790 -245q0 -77 -52 -127.5t-129 -50.5q-76 0 -128.5 51t-52.5 127t52.5 127 t128.5 51q77 0 129 -50.5t52 -127.5z"/>
<glyph glyph-name="uni1E01" horiz-adv-x="1075" unicode="ḁ" d="M760 119q-23 -17 -61.5 -47.5t-74.5 -48.5q-50 -26 -96.5 -40t-130.5 -14q-69 0 -131 26t-109 73q-45 46 -72 113.5t-27 142.5q0 116 49 197.5t155 129.5q94 43 222 59.5t276 24.5v36q0 66 -20 106.5t-56 62.5q-36 23 -88 30.5t-107 7.5q-65 0 -153 -19.5t-176 -56.5h-11 v191q52 15 149 33t192 18q115 0 194 -18t142 -65q61 -46 91 -119t30 -178v-764h-187v119zM760 275v310q-67 -6 -169.5 -16.5t-165.5 -29.5q-75 -23 -124 -70.5t-49 -132.5q0 -96 54 -145t158 -49q89 0 161 38.5t135 94.5zM593 -246q0 43 -26 73t-68 30t-68 -30t-26 -73 t26 -72t68 -29t68 29.5t26 71.5zM680 -245q0 -77 -52 -127.5t-129 -50.5q-76 0 -128.5 51t-52.5 127t52.5 127t128.5 51q77 0 129 -50.5t52 -127.5z"/>
<glyph glyph-name="uni1E02" horiz-adv-x="1207" unicode="Ḃ" d="M955 449q0 84 -24 138.5t-97 92.5q-47 25 -102.5 32t-157.5 7h-225v-550h161q130 0 205 12t132 51q56 39 82 88.5t26 128.5zM885 1125q0 54 -18 93.5t-58 62.5q-48 27 -107 33t-163 6h-190v-436h225q93 0 137 9.5t91 39.5q45 29 64 76t19 116zM1161 457q0 -111 -42 -196 t-113 -140q-84 -66 -180 -93.5t-248 -27.5h-427v1489h395q159 0 238.5 -10.5t152.5 -49.5q80 -43 117 -112.5t37 -163.5q0 -105 -55.5 -188t-153.5 -130v-8q133 -36 206 -131.5t73 -238.5zM686 1677h-214v195h214v-195z"/>
<glyph glyph-name="uni1E03" horiz-adv-x="1132" unicode="ḃ" d="M1073 577q0 -274 -133 -441t-333 -167q-91 0 -155.5 22.5t-127.5 60.5l-12 -52h-176v1556h188v-556q71 64 154 106t188 42q189 0 298 -151.5t109 -419.5zM879 562q0 200 -61 303.5t-196 103.5q-77 0 -155.5 -36t-142.5 -91v-640q71 -35 126 -49.5t121 -14.5 q144 0 226 102t82 322zM766 1304h-214v195h214v-195z"/>
<glyph glyph-name="uni1E04" horiz-adv-x="1207" unicode="Ḅ" d="M955 449q0 84 -24 138.5t-97 92.5q-47 25 -102.5 32t-157.5 7h-225v-550h161q130 0 205 12t132 51q56 39 82 88.5t26 128.5zM885 1125q0 54 -18 93.5t-58 62.5q-48 27 -107 33t-163 6h-190v-436h225q93 0 137 9.5t91 39.5q45 29 64 76t19 116zM1161 457q0 -111 -42 -196 t-113 -140q-84 -66 -180 -93.5t-248 -27.5h-427v1489h395q159 0 238.5 -10.5t152.5 -49.5q80 -43 117 -112.5t37 -163.5q0 -105 -55.5 -188t-153.5 -130v-8q133 -36 206 -131.5t73 -238.5zM686 -382h-214v195h214v-195z"/>
<glyph glyph-name="uni1E05" horiz-adv-x="1132" unicode="ḅ" d="M1073 577q0 -274 -133 -441t-333 -167q-91 0 -155.5 22.5t-127.5 60.5l-12 -52h-176v1556h188v-556q71 64 154 106t188 42q189 0 298 -151.5t109 -419.5zM879 562q0 200 -61 303.5t-196 103.5q-77 0 -155.5 -36t-142.5 -91v-640q71 -35 126 -49.5t121 -14.5 q144 0 226 102t82 322zM716 -382h-214v195h214v-195z"/>
<glyph glyph-name="uni1E06" horiz-adv-x="1207" unicode="Ḇ" d="M955 449q0 84 -24 138.5t-97 92.5q-47 25 -102.5 32t-157.5 7h-225v-550h161q130 0 205 12t132 51q56 39 82 88.5t26 128.5zM885 1125q0 54 -18 93.5t-58 62.5q-48 27 -107 33t-163 6h-190v-436h225q93 0 137 9.5t91 39.5q45 29 64 76t19 116zM1161 457q0 -111 -42 -196 t-113 -140q-84 -66 -180 -93.5t-248 -27.5h-427v1489h395q159 0 238.5 -10.5t152.5 -49.5q80 -43 117 -112.5t37 -163.5q0 -105 -55.5 -188t-153.5 -130v-8q133 -36 206 -131.5t73 -238.5zM996 -353h-754v154h754v-154z"/>
<glyph glyph-name="uni1E07" horiz-adv-x="1132" unicode="ḇ" d="M1073 577q0 -274 -133 -441t-333 -167q-91 0 -155.5 22.5t-127.5 60.5l-12 -52h-176v1556h188v-556q71 64 154 106t188 42q189 0 298 -151.5t109 -419.5zM879 562q0 200 -61 303.5t-196 103.5q-77 0 -155.5 -36t-142.5 -91v-640q71 -35 126 -49.5t121 -14.5 q144 0 226 102t82 322zM956 -353h-754v154h754v-154z"/>
<glyph glyph-name="uni1E08" horiz-adv-x="1230" unicode="Ḉ" d="M733 -27q-146 0 -268.5 49t-211.5 146t-138 242t-49 333q0 187 47.5 326t138.5 242q89 100 211 152.5t273 52.5q75 0 140.5 -11t121.5 -28q48 -15 98.5 -37.5t99.5 -49.5v-239h-16q-26 24 -67 58t-100 67q-57 31 -124 51t-155 20q-95 0 -180 -39t-149 -115 q-63 -76 -98 -191t-35 -259q0 -153 37 -263.5t101 -186.5q62 -74 146 -111.5t178 -37.5q86 0 159 21t130 53q55 31 95 63.5t63 55.5h15v-236q-49 -23 -92.5 -44t-105.5 -41q-8 -3 -23 -7.5t-21 -5.5q1 -15 3 -39t2 -53q0 -149 -82 -241.5t-227 -92.5q-37 0 -87 6t-90 18v160 h9q24 -11 63 -22.5t79 -11.5q94 0 138 39.5t44 126.5q0 18 -0.5 38t-1.5 45q-18 -1 -33.5 -2t-37.5 -1zM971 2049l-273 -374h-149l179 374h243z"/>
<glyph glyph-name="uni1E09" horiz-adv-x="945" unicode="ḉ" d="M580 -25q-115 0 -211 35.5t-165 107.5t-107 181.5t-38 257.5q0 147 39.5 254t105.5 180t164.5 112.5t211.5 39.5q92 0 177.5 -26t152.5 -60v-211h-11q-20 17 -51.5 39t-76.5 45q-39 20 -92 35t-102 15q-146 0 -234.5 -110.5t-88.5 -312.5q0 -198 85.5 -308.5 t237.5 -110.5q92 0 175 38t147 98h11v-211q-28 -13 -65 -29t-68 -26q1 -16 3 -42t2 -55q0 -149 -82 -241.5t-227 -92.5q-37 0 -87 6t-90 18v160h9q24 -11 63 -22.5t79 -11.5q94 0 138 39.5t44 126.5q0 18 -0.5 38.5t-1.5 45.5q-13 0 -22.5 -1t-24.5 -1zM831 1676l-273 -374 h-149l179 374h243z"/>
<glyph glyph-name="uni1E0a" horiz-adv-x="1389" unicode="Ḋ" d="M1119 746q0 172 -57 293.5t-169 189.5q-79 48 -169 69t-224 21h-151v-1149h151q132 0 231 21t181 78q103 70 155 186.5t52 290.5zM1325 743q0 -204 -82.5 -368t-221.5 -256q-113 -71 -229.5 -95t-297.5 -24h-343v1489h339q210 0 329.5 -31.5t203.5 -86.5 q144 -95 223 -252.5t79 -375.5zM726 1677h-214v195h214v-195z"/>
<glyph glyph-name="uni1E0b" horiz-adv-x="1132" unicode="ḋ" d="M808 272v644q-70 34 -125.5 47t-120.5 13q-145 0 -227 -108.5t-82 -313.5q0 -197 63 -301.5t202 -104.5q74 0 149 33.5t141 90.5zM996 0h-188v114q-44 -37 -76 -61t-75 -44q-40 -19 -83 -29.5t-100 -10.5q-91 0 -168.5 38t-131.5 111q-55 74 -85 182.5t-30 249.5 q0 147 38 254.5t105 187.5q61 73 147.5 114.5t181.5 41.5q84 0 146 -18.5t131 -57.5v484h188v-1556zM626 1304h-214v195h214v-195z"/>
<glyph glyph-name="uni1E0c" horiz-adv-x="1389" unicode="Ḍ" d="M1119 746q0 172 -57 293.5t-169 189.5q-79 48 -169 69t-224 21h-151v-1149h151q132 0 231 21t181 78q103 70 155 186.5t52 290.5zM1325 743q0 -204 -82.5 -368t-221.5 -256q-113 -71 -229.5 -95t-297.5 -24h-343v1489h339q210 0 329.5 -31.5t203.5 -86.5 q144 -95 223 -252.5t79 -375.5zM726 -382h-214v195h214v-195z"/>
<glyph glyph-name="uni1E0d" horiz-adv-x="1132" unicode="ḍ" d="M808 272v644q-70 34 -125.5 47t-120.5 13q-145 0 -227 -108.5t-82 -313.5q0 -197 63 -301.5t202 -104.5q74 0 149 33.5t141 90.5zM996 0h-188v114q-44 -37 -76 -61t-75 -44q-40 -19 -83 -29.5t-100 -10.5q-91 0 -168.5 38t-131.5 111q-55 74 -85 182.5t-30 249.5 q0 147 38 254.5t105 187.5q61 73 147.5 114.5t181.5 41.5q84 0 146 -18.5t131 -57.5v484h188v-1556zM666 -382h-214v195h214v-195z"/>
<glyph glyph-name="uni1E0e" horiz-adv-x="1389" unicode="Ḏ" d="M1119 746q0 172 -57 293.5t-169 189.5q-79 48 -169 69t-224 21h-151v-1149h151q132 0 231 21t181 78q103 70 155 186.5t52 290.5zM1325 743q0 -204 -82.5 -368t-221.5 -256q-113 -71 -229.5 -95t-297.5 -24h-343v1489h339q210 0 329.5 -31.5t203.5 -86.5 q144 -95 223 -252.5t79 -375.5zM1016 -353h-754v154h754v-154z"/>
<glyph glyph-name="uni1E0f" horiz-adv-x="1132" unicode="ḏ" d="M808 272v644q-70 34 -125.5 47t-120.5 13q-145 0 -227 -108.5t-82 -313.5q0 -197 63 -301.5t202 -104.5q74 0 149 33.5t141 90.5zM996 0h-188v114q-44 -37 -76 -61t-75 -44q-40 -19 -83 -29.5t-100 -10.5q-91 0 -168.5 38t-131.5 111q-55 74 -85 182.5t-30 249.5 q0 147 38 254.5t105 187.5q61 73 147.5 114.5t181.5 41.5q84 0 146 -18.5t131 -57.5v484h188v-1556zM936 -353h-754v154h754v-154z"/>
<glyph glyph-name="uni1E10" horiz-adv-x="1389" unicode="Ḑ" d="M1119 746q0 172 -57 293.5t-169 189.5q-79 48 -169 69t-224 21h-151v-1149h151q132 0 231 21t181 78q103 70 155 186.5t52 290.5zM1325 743q0 -204 -82.5 -368t-221.5 -256q-113 -71 -229.5 -95t-297.5 -24h-343v1489h339q210 0 329.5 -31.5t203.5 -86.5 q144 -95 223 -252.5t79 -375.5zM393 -423l137 269h242l-241 -269h-138z"/>
<glyph glyph-name="uni1E11" horiz-adv-x="1132" unicode="ḑ" d="M808 272v644q-70 34 -125.5 47t-120.5 13q-145 0 -227 -108.5t-82 -313.5q0 -197 63 -301.5t202 -104.5q74 0 149 33.5t141 90.5zM996 0h-188v114q-44 -37 -76 -61t-75 -44q-40 -19 -83 -29.5t-100 -10.5q-91 0 -168.5 38t-131.5 111q-55 74 -85 182.5t-30 249.5 q0 147 38 254.5t105 187.5q61 73 147.5 114.5t181.5 41.5q84 0 146 -18.5t131 -57.5v484h188v-1556zM347 -423l137 269h242l-241 -269h-138z"/>
<glyph glyph-name="uni1E12" horiz-adv-x="1389" unicode="Ḓ" d="M1119 746q0 172 -57 293.5t-169 189.5q-79 48 -169 69t-224 21h-151v-1149h151q132 0 231 21t181 78q103 70 155 186.5t52 290.5zM1325 743q0 -204 -82.5 -368t-221.5 -256q-113 -71 -229.5 -95t-297.5 -24h-343v1489h339q210 0 329.5 -31.5t203.5 -86.5 q144 -95 223 -252.5t79 -375.5zM981 -423h-159l-185 256l-184 -256h-155l228 379h227z"/>
<glyph glyph-name="uni1E13" horiz-adv-x="1132" unicode="ḓ" d="M808 272v644q-70 34 -125.5 47t-120.5 13q-145 0 -227 -108.5t-82 -313.5q0 -197 63 -301.5t202 -104.5q74 0 149 33.5t141 90.5zM996 0h-188v114q-44 -37 -76 -61t-75 -44q-40 -19 -83 -29.5t-100 -10.5q-91 0 -168.5 38t-131.5 111q-55 74 -85 182.5t-30 249.5 q0 147 38 254.5t105 187.5q61 73 147.5 114.5t181.5 41.5q84 0 146 -18.5t131 -57.5v484h188v-1556zM941 -423h-159l-185 256l-184 -256h-155l228 379h227z"/>
<glyph glyph-name="uni1E14" horiz-adv-x="1149" unicode="Ḕ" d="M151 0v1489h931v-176h-733v-408h683v-176h-683v-553h733v-176h-931zM996 1608h-754v124h754v-124zM701 1833h-129l-198 216h223z"/>
<glyph glyph-name="uni1E15" horiz-adv-x="1078" unicode="ḕ" d="M841 683q-2 76 -18 131t-46 93q-33 42 -84.5 64t-127.5 22q-75 0 -127.5 -22.5t-95.5 -65.5q-42 -44 -64 -97.5t-28 -124.5h591zM621 -26q-267 0 -414.5 150.5t-147.5 427.5q0 273 143 434.5t374 161.5q104 0 184 -30t140 -94t92 -156.5t32 -226.5v-102h-774 q0 -195 98 -298t271 -103q62 0 121.5 14t107.5 36q51 23 86 44.5t58 40.5h11v-205q-33 -13 -82 -32.5t-88 -30.5q-55 -15 -99.5 -23t-112.5 -8zM936 1335h-754v154h754v-154zM641 1560h-129l-198 216h223z"/>
<glyph glyph-name="uni1E16" horiz-adv-x="1149" unicode="Ḗ" d="M151 0v1489h931v-176h-733v-408h683v-176h-683v-553h733v-176h-931zM996 1608h-754v124h754v-124zM841 2049l-198 -216h-129l104 216h223z"/>
<glyph glyph-name="uni1E17" horiz-adv-x="1078" unicode="ḗ" d="M841 683q-2 76 -18 131t-46 93q-33 42 -84.5 64t-127.5 22q-75 0 -127.5 -22.5t-95.5 -65.5q-42 -44 -64 -97.5t-28 -124.5h591zM621 -26q-267 0 -414.5 150.5t-147.5 427.5q0 273 143 434.5t374 161.5q104 0 184 -30t140 -94t92 -156.5t32 -226.5v-102h-774 q0 -195 98 -298t271 -103q62 0 121.5 14t107.5 36q51 23 86 44.5t58 40.5h11v-205q-33 -13 -82 -32.5t-88 -30.5q-55 -15 -99.5 -23t-112.5 -8zM936 1335h-754v154h754v-154zM781 1776l-198 -216h-129l104 216h223z"/>
<glyph glyph-name="uni1E18" horiz-adv-x="1149" unicode="Ḙ" d="M151 0v1489h931v-176h-733v-408h683v-176h-683v-553h733v-176h-931zM961 -423h-159l-185 256l-184 -256h-155l228 379h227z"/>
<glyph glyph-name="uni1E19" horiz-adv-x="1078" unicode="ḙ" d="M841 683q-2 76 -18 131t-46 93q-33 42 -84.5 64t-127.5 22q-75 0 -127.5 -22.5t-95.5 -65.5q-42 -44 -64 -97.5t-28 -124.5h591zM621 -26q-267 0 -414.5 150.5t-147.5 427.5q0 273 143 434.5t374 161.5q104 0 184 -30t140 -94t92 -156.5t32 -226.5v-102h-774 q0 -195 98 -298t271 -103q62 0 121.5 14t107.5 36q51 23 86 44.5t58 40.5h11v-205q-33 -13 -82 -32.5t-88 -30.5q-55 -15 -99.5 -23t-112.5 -8zM951 -423h-159l-185 256l-184 -256h-155l228 379h227z"/>
<glyph glyph-name="uni1E1A" horiz-adv-x="1149" unicode="Ḛ" d="M151 0v1489h931v-176h-733v-408h683v-176h-683v-553h733v-176h-931zM1000 -88q-10 -156 -74.5 -234t-171.5 -78q-52 0 -96 19t-86 59q-44 41 -76 62.5t-63 21.5q-49 0 -68.5 -45t-23.5 -121h-140q7 154 76 232.5t169 78.5q51 0 94 -19.5t86 -57.5q43 -39 77.5 -59.5 t63.5 -20.5q47 0 68.5 45t24.5 117h140z"/>
<glyph glyph-name="uni1E1B" horiz-adv-x="1078" unicode="ḛ" d="M841 683q-2 76 -18 131t-46 93q-33 42 -84.5 64t-127.5 22q-75 0 -127.5 -22.5t-95.5 -65.5q-42 -44 -64 -97.5t-28 -124.5h591zM621 -26q-267 0 -414.5 150.5t-147.5 427.5q0 273 143 434.5t374 161.5q104 0 184 -30t140 -94t92 -156.5t32 -226.5v-102h-774 q0 -195 98 -298t271 -103q62 0 121.5 14t107.5 36q51 23 86 44.5t58 40.5h11v-205q-33 -13 -82 -32.5t-88 -30.5q-55 -15 -99.5 -23t-112.5 -8zM990 -88q-10 -156 -74.5 -234t-171.5 -78q-52 0 -96 19t-86 59q-44 41 -76 62.5t-63 21.5q-49 0 -68.5 -45t-23.5 -121h-140 q7 154 76 232.5t169 78.5q51 0 94 -19.5t86 -57.5q43 -39 77.5 -59.5t63.5 -20.5q47 0 68.5 45t24.5 117h140z"/>
<glyph glyph-name="uni1E1C" horiz-adv-x="1149" unicode="Ḝ" d="M1082 0h-264q4 -58 4 -89q0 -149 -79 -239q-84 -95 -230 -95q-97 0 -177 24v160h9q74 -34 142 -34q182 0 182 166q0 37 -4 107h-514v1489h931v-176h-733v-408h683v-176h-683v-553h733v-176zM949 2009q0 -86 -21 -156.5t-60 -118.5q-45 -53 -102 -79.5t-146 -26.5 q-82 0 -143.5 27.5t-103.5 78.5q-41 50 -62 120t-21 155h162q0 -135 42 -194.5t126 -59.5q79 0 123 58.5t44 195.5h162z"/>
<glyph glyph-name="uni1E1D" horiz-adv-x="1078" unicode="ḝ" d="M841 683q-8 310 -276 310q-140 0 -224 -88q-79 -83 -91 -222h591zM1024 539h-774q0 -185 91 -290q96 -111 278 -111q210 0 373 135h11v-205q-94 -37 -135 -51q-75 -25 -139 -34q3 -44 3 -72q0 -149 -79 -239q-84 -95 -230 -95q-97 0 -177 24v160h9q74 -34 142 -34 q182 0 182 166q0 13 -4 83q-254 13 -388 169q-128 149 -128 407q0 255 129 418q140 178 388 178q223 0 339 -140q109 -132 109 -367v-102zM902 1636q0 -86 -21 -156.5t-60 -118.5q-45 -53 -102 -79.5t-146 -26.5q-82 0 -143.5 27.5t-103.5 78.5q-41 50 -62 120t-21 155h162 q0 -135 42 -194.5t126 -59.5q79 0 123 58.5t44 195.5h162z"/>
<glyph glyph-name="uni1E1E" horiz-adv-x="1068" unicode="Ḟ" d="M1042 1313h-693v-420h664v-176h-664v-717h-198v1489h891v-176zM726 1677h-214v195h214v-195z"/>
<glyph glyph-name="uni1E1F" horiz-adv-x="652" unicode="ḟ" d="M724 1376h-10q-25 9 -72 17.5t-84 8.5q-119 0 -169.5 -53.5t-50.5 -193.5v-38h311v-156h-305v-961h-188v961h-127v156h127v37q0 202 97 307t278 105q52 0 102 -5.5t91 -12.5v-172zM586 1677h-214v195h214v-195z"/>
<glyph glyph-name="uni1E20" horiz-adv-x="1367" unicode="Ḡ" d="M774 -29q-158 0 -289 48t-225 146q-94 99 -144 245t-50 336q0 180 50.5 322.5t144.5 243.5q91 98 224 151t291 53q75 0 144 -11t132 -30q50 -15 111.5 -41.5t99.5 -45.5v-239h-17q-37 33 -76.5 62.5t-111.5 63.5q-60 30 -138 50t-168 20q-215 0 -347.5 -162t-132.5 -431 q0 -150 35 -262t101 -190q64 -77 154.5 -117.5t203.5 -40.5q84 0 167 12t140 36v385h-344v174h540v-650q-38 -17 -101.5 -43t-118.5 -41q-73 -22 -132 -33t-143 -11zM1101 1698h-754v154h754v-154z"/>
<glyph glyph-name="uni1E21" horiz-adv-x="1132" unicode="ḡ" d="M176 -179q19 -8 56 -21.5t84 -25.5q52 -13 96 -21t96 -8q87 0 147.5 23t94.5 64q32 41 45 95t13 123v98q-76 -66 -149 -97.5t-183 -31.5q-191 0 -304 142t-113 408q0 139 39 246.5t105 182.5q63 72 149 111t178 39q87 0 150.5 -20.5t127.5 -58.5l11 48h177v-990 q0 -284 -124 -417t-379 -133q-82 0 -167.5 13t-159.5 35v196h10zM808 303v613q-70 34 -129.5 48.5t-118.5 14.5q-143 0 -225 -105t-82 -301q0 -186 62.5 -283t202.5 -97q73 0 150.5 29t139.5 81zM933 1335h-754v154h754v-154z"/>
<glyph glyph-name="uni1E22" horiz-adv-x="1383" unicode="Ḣ" d="M1232 0h-198v729h-685v-729h-198v1489h198v-584h685v584h198v-1489zM806 1677h-214v195h214v-195z"/>
<glyph glyph-name="uni1e23" horiz-adv-x="1142" unicode="ḣ" d="M1014 0h-188v636q0 77 -7.5 143.5t-28.5 106.5q-23 42 -64 62.5t-112 20.5q-70 0 -144.5 -37.5t-145.5 -97.5v-834h-188v1556h188v-563q84 75 166 115t173 40q165 0 258 -108.5t93 -314.5v-725zM766 1677h-214v195h214v-195z"/>
<glyph glyph-name="uni1E24" horiz-adv-x="1383" unicode="Ḥ" d="M1232 0h-198v729h-685v-729h-198v1489h198v-584h685v584h198v-1489zM806 -382h-214v195h214v-195z"/>
<glyph glyph-name="uni1E25" horiz-adv-x="1142" unicode="ḥ" d="M1014 0h-188v636q0 77 -7.5 143.5t-28.5 106.5q-23 42 -64 62.5t-112 20.5q-70 0 -144.5 -37.5t-145.5 -97.5v-834h-188v1556h188v-563q84 75 166 115t173 40q165 0 258 -108.5t93 -314.5v-725zM686 -382h-214v195h214v-195z"/>
<glyph glyph-name="uni1E26" horiz-adv-x="1383" unicode="Ḧ" d="M1232 0h-198v729h-685v-729h-198v1489h198v-584h685v584h198v-1489zM594 1677h-201v195h201v-195zM1007 1677h-201v195h201v-195z"/>
<glyph glyph-name="uni1E27" horiz-adv-x="1142" unicode="ḧ" d="M1014 0h-188v636q0 77 -7.5 143.5t-28.5 106.5q-23 42 -64 62.5t-112 20.5q-70 0 -144.5 -37.5t-145.5 -97.5v-834h-188v1556h188v-563q84 75 166 115t173 40q165 0 258 -108.5t93 -314.5v-725zM554 1677h-201v195h201v-195zM967 1677h-201v195h201v-195z"/>
<glyph glyph-name="uni1E28" horiz-adv-x="1383" unicode="Ḩ" d="M1232 0h-198v729h-685v-709h127q6 -86 6 -109q0 -149 -78 -239q-83 -95 -229 -95q-97 0 -177 24v160h9q74 -34 142 -34q174 0 174 166q0 44 -3 107h-169v1489h198v-584h685v584h198v-1489z"/>
<glyph glyph-name="uni1E29" horiz-adv-x="2187" unicode="ḩ" d="M1995 -778q-47 -35 -99 -45q-32 -6 -120 -6h-1489q-285 0 -283 283l2 902l23 4l149 82q160 -272 387 -272q171 0 281 110t110 283q0 169 -110 281t-281 112q-227 0 -387 -274l-147 80q209 362 534 362q249 0 407 -158t158 -403q0 -251 -158 -409t-407 -158 q-213 0 -383 149v-685q0 -117 107 -117h1491q57 0 73 12q31 15 31 64v151h178v-147q0 -147 -67 -201z"/>
<glyph glyph-name="uni1E2A" horiz-adv-x="1383" unicode="Ḫ" d="M1232 0h-198v729h-685v-729h-198v1489h198v-584h685v584h198v-1489zM1019 -42q0 -86 -21 -156.5t-60 -118.5q-45 -53 -102 -79.5t-146 -26.5q-82 0 -143.5 27.5t-103.5 78.5q-41 50 -62 120t-21 155h162q0 -135 42 -194.5t126 -59.5q79 0 123 58.5t44 195.5h162z"/>
<glyph glyph-name="uni1E2B" horiz-adv-x="1142" unicode="ḫ" d="M1014 0h-188v636q0 77 -7.5 143.5t-28.5 106.5q-23 42 -64 62.5t-112 20.5q-70 0 -144.5 -37.5t-145.5 -97.5v-834h-188v1556h188v-563q84 75 166 115t173 40q165 0 258 -108.5t93 -314.5v-725zM899 -42q0 -86 -21 -156.5t-60 -118.5q-45 -53 -102 -79.5t-146 -26.5 q-82 0 -143.5 27.5t-103.5 78.5q-41 50 -62 120t-21 155h162q0 -135 42 -194.5t126 -59.5q79 0 123 58.5t44 195.5h162z"/>
<glyph glyph-name="uni1E2C" horiz-adv-x="764" unicode="Ḭ" d="M671 0h-578v152h190v1185h-190v152h578v-152h-190v-1185h190v-152zM780 -88q-10 -156 -74.5 -234t-171.5 -78q-52 0 -96 19t-86 59q-44 41 -76 62.5t-63 21.5q-49 0 -68.5 -45t-23.5 -121h-140q7 154 76 232.5t169 78.5q51 0 94 -19.5t86 -57.5q43 -39 77.5 -59.5 t63.5 -20.5q47 0 68.5 45t24.5 117h140z"/>
<glyph glyph-name="uni1E2D" horiz-adv-x="468" unicode="ḭ" d="M341 1304h-214v195h214v-195zM328 0h-188v1117h188v-1117zM630 -88q-10 -156 -74.5 -234t-171.5 -78q-52 0 -96 19t-86 59q-44 41 -76 62.5t-63 21.5q-49 0 -68.5 -45t-23.5 -121h-140q7 154 76 232.5t169 78.5q51 0 94 -19.5t86 -57.5q43 -39 77.5 -59.5t63.5 -20.5 q47 0 68.5 45t24.5 117h140z"/>
<glyph glyph-name="uni1E2E" horiz-adv-x="764" unicode="Ḯ" d="M671 0h-578v152h190v1185h-190v152h578v-152h-190v-1185h190v-152zM277 1608h-201v185h201v-185zM690 1608h-201v185h201v-185zM644 2049l-198 -216h-129l104 216h223z"/>
<glyph glyph-name="uni1E2F" horiz-adv-x="468" unicode="ḯ" d="M328 0h-188v1117h188v-1117zM124 1335h-201v195h201v-195zM537 1335h-201v195h201v-195zM491 1776l-198 -216h-129l104 216h223z"/>
<glyph glyph-name="uni1E30" horiz-adv-x="1204" unicode="Ḱ" d="M1236 0h-257l-543 693l-87 -98v-595h-198v1489h198v-685l610 685h241l-616 -665zM971 2049l-273 -374h-149l179 374h243z"/>
<glyph glyph-name="uni1E31" horiz-adv-x="1020" unicode="ḱ" d="M1062 0h-247l-417 539l-74 -72v-467h-188v1556h188v-911l442 472h234l-459 -467zM871 2049l-273 -374h-149l179 374h243z"/>
<glyph glyph-name="uni1E32" horiz-adv-x="1204" unicode="Ḳ" d="M1236 0h-257l-543 693l-87 -98v-595h-198v1489h198v-685l610 685h241l-616 -665zM766 -382h-214v195h214v-195z"/>
<glyph glyph-name="uni1E33" horiz-adv-x="1020" unicode="ḳ" d="M1062 0h-247l-417 539l-74 -72v-467h-188v1556h188v-911l442 472h234l-459 -467zM666 -382h-214v195h214v-195z"/>
<glyph glyph-name="uni1E34" horiz-adv-x="1204" unicode="Ḵ" d="M1236 0h-257l-543 693l-87 -98v-595h-198v1489h198v-685l610 685h241l-616 -665zM1036 -353h-754v154h754v-154z"/>
<glyph glyph-name="uni1E35" horiz-adv-x="1020" unicode="ḵ" d="M1062 0h-247l-417 539l-74 -72v-467h-188v1556h188v-911l442 472h234l-459 -467zM936 -353h-754v154h754v-154z"/>
<glyph glyph-name="uni1E36" horiz-adv-x="1019" unicode="Ḷ" d="M1014 0h-863v1489h198v-1313h665v-176zM686 -382h-214v195h214v-195z"/>
<glyph glyph-name="uni1E37" horiz-adv-x="468" unicode="ḷ" d="M328 0h-188v1556h188v-1556zM336 -382h-214v195h214v-195z"/>
<glyph glyph-name="uni1E38" horiz-adv-x="1019" unicode="Ḹ" d="M1014 0h-863v1489h198v-1313h665v-176zM686 -382h-214v195h214v-195zM996 1698h-754v154h754v-154z"/>
<glyph glyph-name="uni1E39" horiz-adv-x="468" unicode="ḹ" d="M328 0h-188v1556h188v-1556zM336 -382h-214v195h214v-195zM616 1698h-754v154h754v-154z"/>
<glyph glyph-name="uni1E3A" horiz-adv-x="1019" unicode="Ḻ" d="M1014 0h-863v1489h198v-1313h665v-176zM956 -353h-754v154h754v-154z"/>
<glyph glyph-name="uni1E3B" horiz-adv-x="468" unicode="ḻ" d="M328 0h-188v1556h188v-1556zM616 -353h-754v154h754v-154z"/>
<glyph glyph-name="uni1E3C" horiz-adv-x="1019" unicode="Ḽ" d="M1014 0h-863v1489h198v-1313h665v-176zM941 -423h-159l-185 256l-184 -256h-155l228 379h227z"/>
<glyph glyph-name="uni1E3D" horiz-adv-x="468" unicode="ḽ" d="M328 0h-188v1556h188v-1556zM571 -423h-159l-185 256l-184 -256h-155l228 379h227z"/>
<glyph glyph-name="uni1E3E" horiz-adv-x="1578" unicode="Ḿ" d="M1427 0h-198v1283l-388 -873h-120l-385 873v-1283h-185v1489h270l372 -829l359 829h275v-1489zM1071 2049l-273 -374h-149l179 374h243z"/>
<glyph glyph-name="uni1E3F" horiz-adv-x="1720" unicode="ḿ" d="M1404 0v646q0 77 -6 142.5t-25 102.5q-20 40 -57 59t-100 19q-58 0 -124.5 -35.5t-137.5 -102.5q1 -17 2.5 -40.5t1.5 -55.5v-735h-188v646q0 77 -6 142.5t-25 102.5q-20 40 -57 59t-100 19q-61 0 -128 -38t-130 -97v-834h-188v1117h188v-124q74 74 146.5 114.5 t159.5 40.5q99 0 175.5 -45t116.5 -148q85 95 166 144t176 49q72 0 131 -22.5t103 -72.5q45 -51 69.5 -127t24.5 -191v-735h-188zM1171 1676l-273 -374h-149l179 374h243z"/>
<glyph glyph-name="uni1E40" horiz-adv-x="1578" unicode="Ṁ" d="M1427 0h-198v1283l-388 -873h-120l-385 873v-1283h-185v1489h270l372 -829l359 829h275v-1489zM906 1677h-214v195h214v-195z"/>
<glyph glyph-name="uni1E41" horiz-adv-x="1720" unicode="ṁ" d="M1404 0v646q0 77 -6 142.5t-25 102.5q-20 40 -57 59t-100 19q-58 0 -124.5 -35.5t-137.5 -102.5q1 -17 2.5 -40.5t1.5 -55.5v-735h-188v646q0 77 -6 142.5t-25 102.5q-20 40 -57 59t-100 19q-61 0 -128 -38t-130 -97v-834h-188v1117h188v-124q74 74 146.5 114.5 t159.5 40.5q99 0 175.5 -45t116.5 -148q85 95 166 144t176 49q72 0 131 -22.5t103 -72.5q45 -51 69.5 -127t24.5 -191v-735h-188zM966 1304h-214v195h214v-195z"/>
<glyph glyph-name="uni1E42" horiz-adv-x="1578" unicode="Ṃ" d="M1427 0h-198v1283l-388 -873h-120l-385 873v-1283h-185v1489h270l372 -829l359 829h275v-1489zM906 -382h-214v195h214v-195z"/>
<glyph glyph-name="uni1E43" horiz-adv-x="1720" unicode="ṃ" d="M1404 0v646q0 77 -6 142.5t-25 102.5q-20 40 -57 59t-100 19q-58 0 -124.5 -35.5t-137.5 -102.5q1 -17 2.5 -40.5t1.5 -55.5v-735h-188v646q0 77 -6 142.5t-25 102.5q-20 40 -57 59t-100 19q-61 0 -128 -38t-130 -97v-834h-188v1117h188v-124q74 74 146.5 114.5 t159.5 40.5q99 0 175.5 -45t116.5 -148q85 95 166 144t176 49q72 0 131 -22.5t103 -72.5q45 -51 69.5 -127t24.5 -191v-735h-188zM966 -382h-214v195h214v-195z"/>
<glyph glyph-name="uni1E44" horiz-adv-x="1367" unicode="Ṅ" d="M1216 0h-222l-658 1284v-1284h-185v1489h281l599 -1179v1179h185v-1489zM806 1677h-214v195h214v-195z"/>
<glyph glyph-name="uni1E45" horiz-adv-x="1142" unicode="ṅ" d="M1014 0h-188v636q0 77 -7.5 143.5t-28.5 106.5q-23 42 -64 62.5t-112 20.5q-70 0 -144.5 -37.5t-145.5 -97.5v-834h-188v1117h188v-124q84 75 166 115t173 40q165 0 258 -108.5t93 -314.5v-725zM746 1304h-214v195h214v-195z"/>
<glyph glyph-name="uni1E46" horiz-adv-x="1367" unicode="Ṇ" d="M1216 0h-222l-658 1284v-1284h-185v1489h281l599 -1179v1179h185v-1489zM806 -382h-214v195h214v-195z"/>
<glyph glyph-name="uni1E47" horiz-adv-x="1142" unicode="ṇ" d="M1014 0h-188v636q0 77 -7.5 143.5t-28.5 106.5q-23 42 -64 62.5t-112 20.5q-70 0 -144.5 -37.5t-145.5 -97.5v-834h-188v1117h188v-124q84 75 166 115t173 40q165 0 258 -108.5t93 -314.5v-725zM686 -382h-214v195h214v-195z"/>
<glyph glyph-name="uni1E48" horiz-adv-x="1367" unicode="Ṉ" d="M1216 0h-222l-658 1284v-1284h-185v1489h281l599 -1179v1179h185v-1489zM1076 -353h-754v154h754v-154z"/>
<glyph glyph-name="uni1E49" horiz-adv-x="1142" unicode="ṉ" d="M1014 0h-188v636q0 77 -7.5 143.5t-28.5 106.5q-23 42 -64 62.5t-112 20.5q-70 0 -144.5 -37.5t-145.5 -97.5v-834h-188v1117h188v-124q84 75 166 115t173 40q165 0 258 -108.5t93 -314.5v-725zM956 -353h-754v154h754v-154z"/>
<glyph glyph-name="uni1E4A" horiz-adv-x="1367" unicode="Ṋ" d="M1041 -423h-159l-185 256l-184 -256h-155l228 379h227zM1216 0h-222l-658 1284v-1284h-185v1489h281l599 -1179v1179h185v-1489z"/>
<glyph glyph-name="uni1E4B" horiz-adv-x="1142" unicode="ṋ" d="M1014 0h-188v636q0 77 -7.5 143.5t-28.5 106.5q-23 42 -64 62.5t-112 20.5q-70 0 -144.5 -37.5t-145.5 -97.5v-834h-188v1117h188v-124q84 75 166 115t173 40q165 0 258 -108.5t93 -314.5v-725zM921 -423h-159l-185 256l-184 -256h-155l228 379h227z"/>
<glyph glyph-name="uni1E4C" horiz-adv-x="1449" unicode="Ṍ" d="M1177 744q0 148 -32 262t-90 189q-59 77 -142.5 115.5t-187.5 38.5q-108 0 -188.5 -37.5t-142.5 -116.5q-59 -76 -90.5 -191t-31.5 -260q0 -293 123 -448.5t330 -155.5t329.5 155.5t122.5 448.5zM1204 1318q85 -98 132 -243t47 -331q0 -181 -46 -327t-133 -245 q-91 -104 -212.5 -153.5t-267.5 -49.5q-151 0 -272 51t-208 152q-86 99 -132 244t-46 328q0 188 46.5 330t132.5 244q86 99 207.5 150.5t271.5 51.5q152 0 274 -53t206 -149zM1059 1797q-11 -81 -67 -135t-136 -54q-59 0 -139 38.5t-108 38.5q-65 0 -75 -77h-134 q10 81 66.5 135t136.5 54q57 0 138 -38.5t109 -38.5q66 0 75 77h134zM991 2049l-198 -216h-129l104 216h223z"/>
<glyph glyph-name="uni1E4D" horiz-adv-x="1112" unicode="ṍ" d="M861 558q0 217 -79 322.5t-225 105.5q-147 0 -226.5 -105.5t-79.5 -322.5q0 -210 79.5 -318.5t226.5 -108.5q145 0 224.5 106.5t79.5 320.5zM1055 558q0 -282 -136 -435.5t-362 -153.5q-233 0 -366.5 158.5t-133.5 430.5q0 280 137.5 435t362.5 155q226 0 362 -154.5 t136 -435.5zM960 1632q-20 -312 -246 -312q-99 0 -182 78q-89 84 -139 84q-83 0 -92 -166h-140q6 129 60 211q65 100 185 100q94 0 180 -77q89 -80 141 -80q86 0 93 162h140zM821 1916l-198 -216h-129l104 216h223z"/>
<glyph glyph-name="uni1E4E" horiz-adv-x="1449" unicode="Ṏ" d="M1177 744q0 148 -32 262t-90 189q-59 77 -142.5 115.5t-187.5 38.5q-108 0 -188.5 -37.5t-142.5 -116.5q-59 -76 -90.5 -191t-31.5 -260q0 -293 123 -448.5t330 -155.5t329.5 155.5t122.5 448.5zM1204 1318q85 -98 132 -243t47 -331q0 -181 -46 -327t-133 -245 q-91 -104 -212.5 -153.5t-267.5 -49.5q-151 0 -272 51t-208 152q-86 99 -132 244t-46 328q0 188 46.5 330t132.5 244q86 99 207.5 150.5t271.5 51.5q152 0 274 -53t206 -149zM1059 1797q-11 -81 -67 -135t-136 -54q-59 0 -139 38.5t-108 38.5q-65 0 -75 -77h-134 q10 81 66.5 135t136.5 54q57 0 138 -38.5t109 -38.5q66 0 75 77h134zM624 1864h-201v185h201v-185zM1037 1864h-201v185h201v-185z"/>
<glyph glyph-name="uni1E4F" horiz-adv-x="1112" unicode="ṏ" d="M861 558q0 217 -79 322.5t-225 105.5q-147 0 -226.5 -105.5t-79.5 -322.5q0 -210 79.5 -318.5t226.5 -108.5q145 0 224.5 106.5t79.5 320.5zM1055 558q0 -282 -136 -435.5t-362 -153.5q-233 0 -366.5 158.5t-133.5 430.5q0 280 137.5 435t362.5 155q226 0 362 -154.5 t136 -435.5zM960 1632q-20 -312 -246 -312q-99 0 -182 78q-89 84 -139 84q-83 0 -92 -166h-140q6 129 60 211q65 100 185 100q94 0 180 -77q89 -80 141 -80q86 0 93 162h140zM454 1721h-201v195h201v-195zM867 1721h-201v195h201v-195z"/>
<glyph glyph-name="uni1E50" horiz-adv-x="1449" unicode="Ṑ" d="M1177 744q0 148 -32 262t-90 189q-59 77 -142.5 115.5t-187.5 38.5q-108 0 -188.5 -37.5t-142.5 -116.5q-59 -76 -90.5 -191t-31.5 -260q0 -293 123 -448.5t330 -155.5t329.5 155.5t122.5 448.5zM1204 1318q85 -98 132 -243t47 -331q0 -181 -46 -327t-133 -245 q-91 -104 -212.5 -153.5t-267.5 -49.5q-151 0 -272 51t-208 152q-86 99 -132 244t-46 328q0 188 46.5 330t132.5 244q86 99 207.5 150.5t271.5 51.5q152 0 274 -53t206 -149zM1106 1608h-754v124h754v-124zM811 1833h-129l-198 216h223z"/>
<glyph glyph-name="uni1E51" horiz-adv-x="1112" unicode="ṑ" d="M861 558q0 217 -79 322.5t-225 105.5q-147 0 -226.5 -105.5t-79.5 -322.5q0 -210 79.5 -318.5t226.5 -108.5q145 0 224.5 106.5t79.5 320.5zM1055 558q0 -282 -136 -435.5t-362 -153.5q-233 0 -366.5 158.5t-133.5 430.5q0 280 137.5 435t362.5 155q226 0 362 -154.5 t136 -435.5zM936 1335h-754v154h754v-154zM641 1560h-129l-198 216h223z"/>
<glyph glyph-name="uni1E52" horiz-adv-x="1449" unicode="Ṓ" d="M1177 744q0 148 -32 262t-90 189q-59 77 -142.5 115.5t-187.5 38.5q-108 0 -188.5 -37.5t-142.5 -116.5q-59 -76 -90.5 -191t-31.5 -260q0 -293 123 -448.5t330 -155.5t329.5 155.5t122.5 448.5zM1204 1318q85 -98 132 -243t47 -331q0 -181 -46 -327t-133 -245 q-91 -104 -212.5 -153.5t-267.5 -49.5q-151 0 -272 51t-208 152q-86 99 -132 244t-46 328q0 188 46.5 330t132.5 244q86 99 207.5 150.5t271.5 51.5q152 0 274 -53t206 -149zM1106 1608h-754v124h754v-124zM951 2049l-198 -216h-129l104 216h223z"/>
<glyph glyph-name="uni1E53" horiz-adv-x="1112" unicode="ṓ" d="M861 558q0 217 -79 322.5t-225 105.5q-147 0 -226.5 -105.5t-79.5 -322.5q0 -210 79.5 -318.5t226.5 -108.5q145 0 224.5 106.5t79.5 320.5zM1055 558q0 -282 -136 -435.5t-362 -153.5q-233 0 -366.5 158.5t-133.5 430.5q0 280 137.5 435t362.5 155q226 0 362 -154.5 t136 -435.5zM936 1335h-754v154h754v-154zM781 1776l-198 -216h-129l104 216h223z"/>
<glyph glyph-name="uni1E54" horiz-adv-x="1129" unicode="Ṕ" d="M885 1035q0 77 -26.5 134t-80.5 93q-47 31 -109.5 44t-155.5 13h-164v-595h135q120 0 194 19.5t123 69.5q44 45 64 98t20 124zM1091 1040q0 -97 -34.5 -183.5t-95.5 -147.5q-77 -76 -181 -115t-263 -39h-168v-555h-198v1489h374q132 0 225 -22t164 -71q83 -57 130 -144.5 t47 -211.5zM911 2049l-273 -374h-149l179 374h243z"/>
<glyph glyph-name="uni1E55" horiz-adv-x="1132" unicode="ṕ" d="M879 567q0 191 -61 296.5t-198 105.5q-80 0 -154.5 -35.5t-141.5 -91.5v-633q74 -36 126.5 -49t120.5 -13q146 0 227 107t81 313zM1073 588q0 -279 -133.5 -444.5t-337.5 -165.5q-83 0 -147 19t-131 59v-468h-188v1529h188v-117q70 63 155.5 105.5t186.5 42.5 q192 0 299.5 -152t107.5 -408zM911 1676l-273 -374h-149l179 374h243z"/>
<glyph glyph-name="uni1E56" horiz-adv-x="1129" unicode="Ṗ" d="M885 1035q0 77 -26.5 134t-80.5 93q-47 31 -109.5 44t-155.5 13h-164v-595h135q120 0 194 19.5t123 69.5q44 45 64 98t20 124zM1091 1040q0 -97 -34.5 -183.5t-95.5 -147.5q-77 -76 -181 -115t-263 -39h-168v-555h-198v1489h374q132 0 225 -22t164 -71q83 -57 130 -144.5 t47 -211.5zM706 1677h-214v195h214v-195z"/>
<glyph glyph-name="uni1E57" horiz-adv-x="1132" unicode="ṗ" d="M879 567q0 191 -61 296.5t-198 105.5q-80 0 -154.5 -35.5t-141.5 -91.5v-633q74 -36 126.5 -49t120.5 -13q146 0 227 107t81 313zM1073 588q0 -279 -133.5 -444.5t-337.5 -165.5q-83 0 -147 19t-131 59v-468h-188v1529h188v-117q70 63 155.5 105.5t186.5 42.5 q192 0 299.5 -152t107.5 -408zM706 1304h-214v195h214v-195z"/>
<glyph glyph-name="uni1E58" horiz-adv-x="1271" unicode="Ṙ" d="M876 1070q0 65 -23 115.5t-71 82.5q-42 28 -98 39.5t-139 11.5h-196v-562h174q85 0 153 15t116 62q43 42 63.5 100t20.5 136zM1304 0h-257l-472 592h-226v-592h-198v1489h384q128 0 214.5 -14t164.5 -65q78 -50 123.5 -129t45.5 -196q0 -164 -83 -274t-226 -163z M706 1677h-214v195h214v-195z"/>
<glyph glyph-name="uni1E59" horiz-adv-x="738" unicode="ṙ" d="M728 915h-10q-21 6 -44.5 7.5t-56.5 1.5q-76 0 -151 -33t-142 -98v-793h-188v1117h188v-166q103 91 179.5 128.5t148.5 37.5q29 0 43.5 -1.5t32.5 -4.5v-196zM546 1304h-214v195h214v-195z"/>
<glyph glyph-name="uni1E5A" horiz-adv-x="1271" unicode="Ṛ" d="M876 1070q0 65 -23 115.5t-71 82.5q-42 28 -98 39.5t-139 11.5h-196v-562h174q85 0 153 15t116 62q43 42 63.5 100t20.5 136zM1304 0h-257l-472 592h-226v-592h-198v1489h384q128 0 214.5 -14t164.5 -65q78 -50 123.5 -129t45.5 -196q0 -164 -83 -274t-226 -163z M766 -382h-214v195h214v-195z"/>
<glyph glyph-name="uni1E5B" horiz-adv-x="738" unicode="ṛ" d="M728 915h-10q-21 6 -44.5 7.5t-56.5 1.5q-76 0 -151 -33t-142 -98v-793h-188v1117h188v-166q103 91 179.5 128.5t148.5 37.5q29 0 43.5 -1.5t32.5 -4.5v-196zM546 -382h-214v195h214v-195z"/>
<glyph glyph-name="uni1E5C" horiz-adv-x="1271" unicode="Ṝ" d="M876 1070q0 65 -23 115.5t-71 82.5q-42 28 -98 39.5t-139 11.5h-196v-562h174q85 0 153 15t116 62q43 42 63.5 100t20.5 136zM1304 0h-257l-472 592h-226v-592h-198v1489h384q128 0 214.5 -14t164.5 -65q78 -50 123.5 -129t45.5 -196q0 -164 -83 -274t-226 -163z M766 -382h-214v195h214v-195zM996 1698h-754v154h754v-154z"/>
<glyph glyph-name="uni1E5D" horiz-adv-x="738" unicode="ṝ" d="M728 915h-10q-21 6 -44.5 7.5t-56.5 1.5q-76 0 -151 -33t-142 -98v-793h-188v1117h188v-166q103 91 179.5 128.5t148.5 37.5q29 0 43.5 -1.5t32.5 -4.5v-196zM546 -382h-214v195h214v-195zM806 1335h-754v154h754v-154z"/>
<glyph glyph-name="uni1E5E" horiz-adv-x="1271" unicode="Ṟ" d="M876 1070q0 65 -23 115.5t-71 82.5q-42 28 -98 39.5t-139 11.5h-196v-562h174q85 0 153 15t116 62q43 42 63.5 100t20.5 136zM1304 0h-257l-472 592h-226v-592h-198v1489h384q128 0 214.5 -14t164.5 -65q78 -50 123.5 -129t45.5 -196q0 -164 -83 -274t-226 -163z M1076 -353h-754v154h754v-154z"/>
<glyph glyph-name="uni1E5F" horiz-adv-x="738" unicode="ṟ" d="M728 915h-10q-21 6 -44.5 7.5t-56.5 1.5q-76 0 -151 -33t-142 -98v-793h-188v1117h188v-166q103 91 179.5 128.5t148.5 37.5q29 0 43.5 -1.5t32.5 -4.5v-196zM806 -353h-754v154h754v-154z"/>
<glyph glyph-name="uni1E60" horiz-adv-x="1141" unicode="Ṡ" d="M706 1677h-214v195h214v-195zM566 -27q-162 -1 -276 33t-213 83v248h14q98 -93 222 -143t239 -50q164 0 248 68t84 181q0 89 -44 145t-140 83q-69 20 -126 33t-143 35q-77 20 -138 51t-108 81q-45 49 -71 115t-26 154q0 182 141 304t360 122q125 0 237 -25t206 -71v-237 h-15q-71 65 -182 113t-233 49q-138 -1 -223 -65t-85 -169q0 -95 50 -151t145 -82q63 -16 154 -38t151 -40q154 -47 225 -142t71 -234q0 -87 -36 -172t-99 -144q-73 -65 -163 -100t-226 -35z"/>
<glyph glyph-name="uni1E61" horiz-adv-x="914" unicode="ṡ" d="M438 -27q-112 0 -209.5 30t-161.5 64v211h10q24 -19 56.5 -42t86.5 -48q48 -22 105.5 -39t119.5 -17q45 0 96 10.5t76 26.5q35 23 50.5 49t15.5 78q0 67 -36.5 101t-129.5 57q-36 9 -94 21t-107 26q-128 37 -186 114.5t-58 187.5q0 151 114 246t303 95q93 0 187 -23 t158 -58v-201h-10q-72 57 -160.5 90t-178.5 33q-93 0 -157 -39t-64 -118q0 -70 38 -104.5t122 -56.5q42 -11 93.5 -21.5t108.5 -24.5q124 -31 186.5 -103t62.5 -196q0 -72 -28.5 -136.5t-83.5 -110.5q-60 -50 -135.5 -76t-189.5 -26zM596 1304h-214v195h214v-195z"/>
<glyph glyph-name="uni1E62" horiz-adv-x="1141" unicode="Ṣ" d="M566 -27q-162 0 -275.5 33.5t-213.5 82.5v248h14q98 -92 222 -142.5t239 -50.5q164 0 248 68.5t84 180.5q0 89 -44 145t-140 83q-69 20 -126 33t-143 35q-77 20 -138 51t-108 81q-46 49 -71.5 115.5t-25.5 153.5q0 181 141 303.5t360 122.5q125 0 236.5 -25t206.5 -71 v-237h-15q-71 65 -182 113.5t-233 48.5q-138 0 -223 -64.5t-85 -169.5q0 -95 50 -151t145 -82q63 -17 154 -38.5t151 -39.5q154 -47 225 -142t71 -234q0 -87 -35.5 -172t-99.5 -144q-72 -65 -162.5 -100t-226.5 -35zM686 -382h-214v195h214v-195z"/>
<glyph glyph-name="uni1E63" horiz-adv-x="914" unicode="ṣ" d="M438 -27q-112 0 -209.5 30t-161.5 64v211h10q24 -19 56.5 -42t86.5 -48q48 -22 105.5 -39t119.5 -17q45 0 96 10.5t76 26.5q35 23 50.5 49t15.5 78q0 67 -36.5 101t-129.5 57q-36 9 -94 21t-107 26q-128 37 -186 114.5t-58 187.5q0 151 114 246t303 95q93 0 187 -23 t158 -58v-201h-10q-72 57 -160.5 90t-178.5 33q-93 0 -157 -39t-64 -118q0 -70 38 -104.5t122 -56.5q42 -11 93.5 -21.5t108.5 -24.5q124 -31 186.5 -103t62.5 -196q0 -72 -28.5 -136.5t-83.5 -110.5q-60 -50 -135.5 -76t-189.5 -26zM566 -382h-214v195h214v-195z"/>
<glyph glyph-name="uni1E64" horiz-adv-x="1141" unicode="Ṥ" d="M566 -27q-162 0 -275.5 33.5t-213.5 82.5v248h14q98 -92 222 -142.5t239 -50.5q164 0 248 68.5t84 180.5q0 89 -44 145t-140 83q-69 20 -126 33t-143 35q-77 20 -138 51t-108 81q-46 49 -71.5 115.5t-25.5 153.5q0 181 141 303.5t360 122.5q125 0 236.5 -25t206.5 -71 v-237h-15q-71 65 -182 113.5t-233 48.5q-138 0 -223 -64.5t-85 -169.5q0 -95 50 -151t145 -82q63 -17 154 -38.5t151 -39.5q154 -47 225 -142t71 -234q0 -87 -35.5 -172t-99.5 -144q-72 -65 -162.5 -100t-226.5 -35zM841 1824l-198 -216h-129l104 216h223zM706 1874h-214 v175h214v-175z"/>
<glyph glyph-name="uni1E65" horiz-adv-x="914" unicode="ṥ" d="M438 -27q-112 0 -209.5 30t-161.5 64v211h10q24 -19 56.5 -42t86.5 -48q48 -22 105.5 -39t119.5 -17q45 0 96 10.5t76 26.5q35 23 50.5 49t15.5 78q0 67 -36.5 101t-129.5 57q-36 9 -94 21t-107 26q-128 37 -186 114.5t-58 187.5q0 151 114 246t303 95q93 0 187 -23 t158 -58v-201h-10q-72 57 -160.5 90t-178.5 33q-93 0 -157 -39t-64 -118q0 -70 38 -104.5t122 -56.5q42 -11 93.5 -21.5t108.5 -24.5q124 -31 186.5 -103t62.5 -196q0 -72 -28.5 -136.5t-83.5 -110.5q-60 -50 -135.5 -76t-189.5 -26zM801 1676l-273 -374h-149l179 374h243z M596 1771h-214v195h214v-195z"/>
<glyph glyph-name="uni1E66" horiz-adv-x="1141" unicode="Ṧ" d="M566 -27q-162 0 -275.5 33.5t-213.5 82.5v248h14q98 -92 222 -142.5t239 -50.5q164 0 248 68.5t84 180.5q0 89 -44 145t-140 83q-69 20 -126 33t-143 35q-77 20 -138 51t-108 81q-46 49 -71.5 115.5t-25.5 153.5q0 181 141 303.5t360 122.5q125 0 236.5 -25t206.5 -71 v-237h-15q-71 65 -182 113.5t-233 48.5q-138 0 -223 -64.5t-85 -169.5q0 -95 50 -151t145 -82q63 -17 154 -38.5t151 -39.5q154 -47 225 -142t71 -234q0 -87 -35.5 -172t-99.5 -144q-72 -65 -162.5 -100t-226.5 -35zM941 1793l-248 -173h-187l-248 173h165l174 -89l175 89 h169zM706 1874h-214v175h214v-175z"/>
<glyph glyph-name="uni1E67" horiz-adv-x="914" unicode="ṧ" d="M438 -27q-112 0 -209.5 30t-161.5 64v211h10q24 -19 56.5 -42t86.5 -48q48 -22 105.5 -39t119.5 -17q45 0 96 10.5t76 26.5q35 23 50.5 49t15.5 78q0 67 -36.5 101t-129.5 57q-36 9 -94 21t-107 26q-128 37 -186 114.5t-58 187.5q0 151 114 246t303 95q93 0 187 -23 t158 -58v-201h-10q-72 57 -160.5 90t-178.5 33q-93 0 -157 -39t-64 -118q0 -70 38 -104.5t122 -56.5q42 -11 93.5 -21.5t108.5 -24.5q124 -31 186.5 -103t62.5 -196q0 -72 -28.5 -136.5t-83.5 -110.5q-60 -50 -135.5 -76t-189.5 -26zM831 1676l-228 -379h-227l-228 379h155 l184 -256l185 256h159zM596 1771h-214v195h214v-195z"/>
<glyph glyph-name="uni1E68" horiz-adv-x="1141" unicode="Ṩ" d="M566 -27q-162 0 -275.5 33.5t-213.5 82.5v248h14q98 -92 222 -142.5t239 -50.5q164 0 248 68.5t84 180.5q0 89 -44 145t-140 83q-69 20 -126 33t-143 35q-77 20 -138 51t-108 81q-46 49 -71.5 115.5t-25.5 153.5q0 181 141 303.5t360 122.5q125 0 236.5 -25t206.5 -71 v-237h-15q-71 65 -182 113.5t-233 48.5q-138 0 -223 -64.5t-85 -169.5q0 -95 50 -151t145 -82q63 -17 154 -38.5t151 -39.5q154 -47 225 -142t71 -234q0 -87 -35.5 -172t-99.5 -144q-72 -65 -162.5 -100t-226.5 -35zM686 1677h-214v195h214v-195zM666 -382h-214v195h214 v-195z"/>
<glyph glyph-name="uni1E69" horiz-adv-x="914" unicode="ṩ" d="M438 -27q-112 0 -209.5 30t-161.5 64v211h10q24 -19 56.5 -42t86.5 -48q48 -22 105.5 -39t119.5 -17q45 0 96 10.5t76 26.5q35 23 50.5 49t15.5 78q0 67 -36.5 101t-129.5 57q-36 9 -94 21t-107 26q-128 37 -186 114.5t-58 187.5q0 151 114 246t303 95q93 0 187 -23 t158 -58v-201h-10q-72 57 -160.5 90t-178.5 33q-93 0 -157 -39t-64 -118q0 -70 38 -104.5t122 -56.5q42 -11 93.5 -21.5t108.5 -24.5q124 -31 186.5 -103t62.5 -196q0 -72 -28.5 -136.5t-83.5 -110.5q-60 -50 -135.5 -76t-189.5 -26zM596 1304h-214v195h214v-195zM566 -382 h-214v195h214v-195z"/>
<glyph glyph-name="uni1E6A" horiz-adv-x="1196" unicode="Ṫ" d="M499 0v1313h-500v176h1198v-176h-500v-1313h-198zM706 1677h-214v195h214v-195z"/>
<glyph glyph-name="uni1E6B" horiz-adv-x="685" unicode="ṫ" d="M366 1677h-214v195h214v-195zM474 -22q-154 0 -240 88t-86 276v619h-127v156h127v321h188v-321h346v-156h-346v-531q0 -85 3 -131t23 -86q17 -35 55 -53t103 -17q46 -1 89 13t62 23h11v-169q-54 -16 -108 -24t-100 -8z"/>
<glyph glyph-name="uni1E6C" horiz-adv-x="1196" unicode="Ṭ" d="M499 0v1313h-500v176h1198v-176h-500v-1313h-198zM706 -382h-214v195h214v-195z"/>
<glyph glyph-name="uni1E6D" horiz-adv-x="685" unicode="ṭ" d="M474 -22q-154 0 -240 87.5t-86 276.5v619h-127v156h127v321h188v-321h346v-156h-346v-531q0 -85 3 -131t23 -86q17 -35 55 -52.5t103 -17.5q46 0 89 13.5t62 22.5h11v-169q-53 -15 -107.5 -23.5t-100.5 -8.5zM546 -382h-214v195h214v-195z"/>
<glyph glyph-name="uni1E6E" horiz-adv-x="1196" unicode="Ṯ" d="M499 0v1313h-500v176h1198v-176h-500v-1313h-198zM976 -353h-754v154h754v-154z"/>
<glyph glyph-name="uni1E6F" horiz-adv-x="685" unicode="ṯ" d="M474 -22q-154 0 -240 87.5t-86 276.5v619h-127v156h127v321h188v-321h346v-156h-346v-531q0 -85 3 -131t23 -86q17 -35 55 -52.5t103 -17.5q46 0 89 13.5t62 22.5h11v-169q-53 -15 -107.5 -23.5t-100.5 -8.5zM776 -353h-754v154h754v-154z"/>
<glyph glyph-name="uni1E70" horiz-adv-x="1196" unicode="Ṱ" d="M499 0v1313h-500v176h1198v-176h-500v-1313h-198zM941 -423h-159l-185 256l-184 -256h-155l228 379h227z"/>
<glyph glyph-name="uni1E71" horiz-adv-x="685" unicode="ṱ" d="M474 -22q-154 0 -240 87.5t-86 276.5v619h-127v156h127v321h188v-321h346v-156h-346v-531q0 -85 3 -131t23 -86q17 -35 55 -52.5t103 -17.5q46 0 89 13.5t62 22.5h11v-169q-53 -15 -107.5 -23.5t-100.5 -8.5zM801 -423h-159l-185 256l-184 -256h-155l228 379h227z"/>
<glyph glyph-name="uni1E72" horiz-adv-x="1343" unicode="Ṳ" d="M671 -31q-131 0 -229 34.5t-167 102.5q-78 78 -110 186.5t-32 267.5v929h198v-929q0 -103 13 -173.5t51 -126.5q40 -60 108.5 -91t167.5 -31q93 0 165 31t112 91q37 57 50.5 126t13.5 169v934h198v-929q0 -155 -31.5 -266t-110.5 -188q-71 -69 -165.5 -103t-231.5 -34z M554 -384h-201v195h201v-195zM967 -384h-201v195h201v-195z"/>
<glyph glyph-name="uni1E73" horiz-adv-x="1142" unicode="ṳ" d="M1006 0h-188v124q-87 -76 -165 -115.5t-174 -39.5q-73 0 -137.5 24t-112.5 76t-74.5 131t-26.5 192v725h188v-636q0 -89 6.5 -147.5t29.5 -102.5q23 -43 62.5 -63t113.5 -20q69 0 147 39t143 96v834h188v-1117zM454 -384h-201v195h201v-195zM867 -384h-201v195h201v-195z "/>
<glyph glyph-name="uni1E74" horiz-adv-x="1343" unicode="Ṵ" d="M671 -31q-131 0 -229 34.5t-167 102.5q-78 78 -110 186.5t-32 267.5v929h198v-929q0 -103 13 -173.5t51 -126.5q40 -60 108.5 -91t167.5 -31q93 0 165 31t112 91q37 57 50.5 126t13.5 169v934h198v-929q0 -155 -31.5 -266t-110.5 -188q-71 -69 -165.5 -103t-231.5 -34z M1060 -88q-10 -156 -74.5 -234t-171.5 -78q-52 0 -96 19t-86 59q-44 41 -76 62.5t-63 21.5q-49 0 -68.5 -45t-23.5 -121h-140q7 154 76 232.5t169 78.5q51 0 94 -19.5t86 -57.5q43 -39 77.5 -59.5t63.5 -20.5q47 0 68.5 45t24.5 117h140z"/>
<glyph glyph-name="uni1E75" horiz-adv-x="1142" unicode="ṵ" d="M1006 0h-188v124q-87 -76 -165 -115.5t-174 -39.5q-73 0 -137.5 24t-112.5 76t-74.5 131t-26.5 192v725h188v-636q0 -89 6.5 -147.5t29.5 -102.5q23 -43 62.5 -63t113.5 -20q69 0 147 39t143 96v834h188v-1117zM960 -88q-10 -156 -74.5 -234t-171.5 -78q-52 0 -96 19 t-86 59q-44 41 -76 62.5t-63 21.5q-49 0 -68.5 -45t-23.5 -121h-140q7 154 76 232.5t169 78.5q51 0 94 -19.5t86 -57.5q43 -39 77.5 -59.5t63.5 -20.5q47 0 68.5 45t24.5 117h140z"/>
<glyph glyph-name="uni1E76" horiz-adv-x="1343" unicode="Ṷ" d="M671 -31q-131 0 -229 34.5t-167 102.5q-78 78 -110 186.5t-32 267.5v929h198v-929q0 -103 13 -173.5t51 -126.5q40 -60 108.5 -91t167.5 -31q93 0 165 31t112 91q37 57 50.5 126t13.5 169v934h198v-929q0 -155 -31.5 -266t-110.5 -188q-71 -69 -165.5 -103t-231.5 -34z M1001 -423h-159l-185 256l-184 -256h-155l228 379h227z"/>
<glyph glyph-name="uni1E77" horiz-adv-x="1142" unicode="ṷ" d="M1006 0h-188v124q-87 -76 -165 -115.5t-174 -39.5q-73 0 -137.5 24t-112.5 76t-74.5 131t-26.5 192v725h188v-636q0 -89 6.5 -147.5t29.5 -102.5q23 -43 62.5 -63t113.5 -20q69 0 147 39t143 96v834h188v-1117zM921 -423h-159l-185 256l-184 -256h-155l228 379h227z"/>
<glyph glyph-name="uni1E78" horiz-adv-x="1343" unicode="Ṹ" d="M671 -31q-131 0 -229 34.5t-167 102.5q-78 78 -110 186.5t-32 267.5v929h198v-929q0 -103 13 -173.5t51 -126.5q40 -60 108.5 -91t167.5 -31q93 0 165 31t112 91q37 57 50.5 126t13.5 169v934h198v-929q0 -155 -31.5 -266t-110.5 -188q-71 -69 -165.5 -103t-231.5 -34z M999 1797q-11 -81 -67 -135t-136 -54q-59 0 -139 38.5t-108 38.5q-65 0 -75 -77h-134q10 81 66.5 135t136.5 54q57 0 138 -38.5t109 -38.5q66 0 75 77h134zM931 2049l-198 -216h-129l104 216h223z"/>
<glyph glyph-name="uni1E79" horiz-adv-x="1142" unicode="ṹ" d="M1006 0h-188v124q-87 -76 -165 -115.5t-174 -39.5q-73 0 -137.5 24t-112.5 76t-74.5 131t-26.5 192v725h188v-636q0 -89 6.5 -147.5t29.5 -102.5q23 -43 62.5 -63t113.5 -20q69 0 147 39t143 96v834h188v-1117zM960 1632q-20 -312 -246 -312q-99 0 -182 78 q-89 84 -139 84q-83 0 -92 -166h-140q6 129 60 211q65 100 185 100q94 0 180 -77q89 -80 141 -80q86 0 93 162h140zM821 1916l-198 -216h-129l104 216h223z"/>
<glyph glyph-name="uni1E7A" horiz-adv-x="1343" unicode="Ṻ" d="M671 -31q-131 0 -229 34.5t-167 102.5q-78 78 -110 186.5t-32 267.5v929h198v-929q0 -103 13 -173.5t51 -126.5q40 -60 108.5 -91t167.5 -31q93 0 165 31t112 91q37 57 50.5 126t13.5 169v934h198v-929q0 -155 -31.5 -266t-110.5 -188q-71 -69 -165.5 -103t-231.5 -34z M1046 1608h-754v124h754v-124zM564 1864h-201v185h201v-185zM977 1864h-201v185h201v-185z"/>
<glyph glyph-name="uni1E7B" horiz-adv-x="1142" unicode="ṻ" d="M1006 0h-188v124q-87 -76 -165 -115.5t-174 -39.5q-73 0 -137.5 24t-112.5 76t-74.5 131t-26.5 192v725h188v-636q0 -89 6.5 -147.5t29.5 -102.5q23 -43 62.5 -63t113.5 -20q69 0 147 39t143 96v834h188v-1117zM956 1335h-754v154h754v-154zM474 1671h-201v195h201v-195z M887 1671h-201v195h201v-195z"/>
<glyph glyph-name="uni1E7C" horiz-adv-x="1222" unicode="Ṽ" d="M1230 1489l-512 -1489h-214l-512 1489h212l412 -1236l412 1236h202zM1030 1985q-10 -156 -74.5 -234t-171.5 -78q-52 0 -96 19t-86 59q-44 41 -76 62.5t-63 21.5q-49 0 -68.5 -45t-23.5 -121h-140q7 154 76 232.5t169 78.5q51 0 94 -19.5t86 -57.5q43 -39 77.5 -59.5 t63.5 -20.5q47 0 68.5 45t24.5 117h140z"/>
<glyph glyph-name="uni1E7D" horiz-adv-x="1020" unicode="ṽ" d="M1014 1117l-421 -1117h-169l-418 1117h203l306 -862l303 862h196zM920 1632q-10 -156 -74.5 -234t-171.5 -78q-52 0 -96 19t-86 59q-44 41 -76 62.5t-63 21.5q-49 0 -68.5 -45t-23.5 -121h-140q7 154 76 232.5t169 78.5q51 0 94 -19.5t86 -57.5q43 -39 77.5 -59.5 t63.5 -20.5q47 0 68.5 45t24.5 117h140z"/>
<glyph glyph-name="uni1E7E" horiz-adv-x="1222" unicode="Ṿ" d="M1230 1489l-512 -1489h-214l-512 1489h212l412 -1236l412 1236h202zM716 -382h-214v195h214v-195z"/>
<glyph glyph-name="uni1E7F" horiz-adv-x="1020" unicode="ṿ" d="M1014 1117l-421 -1117h-169l-418 1117h203l306 -862l303 862h196zM606 -382h-214v195h214v-195z"/>
<glyph glyph-name="Wgrave" horiz-adv-x="1847" unicode="Ẁ" d="M1821 1489l-374 -1489h-223l-303 1236l-296 -1236h-218l-381 1489h203l300 -1238l298 1238h201l301 -1250l298 1250h194zM1044 1675h-149l-273 374h243z"/>
<glyph glyph-name="wgrave" horiz-adv-x="1520" unicode="ẁ" d="M1490 1117l-283 -1117h-174l-273 861l-271 -861h-173l-286 1117h196l197 -865l265 865h155l272 -865l186 865h189zM879 1302h-149l-273 374h243z"/>
<glyph glyph-name="Wacute" horiz-adv-x="1847" unicode="Ẃ" d="M1821 1489l-374 -1489h-223l-303 1236l-296 -1236h-218l-381 1489h203l300 -1238l298 1238h201l301 -1250l298 1250h194zM1235 2049l-273 -374h-149l179 374h243z"/>
<glyph glyph-name="wacute" horiz-adv-x="1520" unicode="ẃ" d="M1490 1117l-283 -1117h-174l-273 861l-271 -861h-173l-286 1117h196l197 -865l265 865h155l272 -865l186 865h189zM1076 1676l-273 -374h-149l179 374h243z"/>
<glyph glyph-name="Wdieresis" horiz-adv-x="1847" unicode="Ẅ" d="M1821 1489l-374 -1489h-223l-303 1236l-296 -1236h-218l-381 1489h203l300 -1238l298 1238h201l301 -1250l298 1250h194zM821 1677h-201v195h201v-195zM1234 1677h-201v195h201v-195z"/>
<glyph glyph-name="wdieresis" horiz-adv-x="1520" unicode="ẅ" d="M1490 1117l-283 -1117h-174l-273 861l-271 -861h-173l-286 1117h196l197 -865l265 865h155l272 -865l186 865h189zM659 1304h-201v195h201v-195zM1072 1304h-201v195h201v-195z"/>
<glyph glyph-name="uni1E86" horiz-adv-x="1847" unicode="Ẇ" d="M1821 1489l-374 -1489h-223l-303 1236l-296 -1236h-218l-381 1489h203l300 -1238l298 1238h201l301 -1250l298 1250h194zM1036 1677h-214v195h214v-195z"/>
<glyph glyph-name="uni1E87" horiz-adv-x="1520" unicode="ẇ" d="M1490 1117l-283 -1117h-174l-273 861l-271 -861h-173l-286 1117h196l197 -865l265 865h155l272 -865l186 865h189zM876 1304h-214v195h214v-195z"/>
<glyph glyph-name="uni1E88" horiz-adv-x="1847" unicode="Ẉ" d="M1821 1489l-374 -1489h-223l-303 1236l-296 -1236h-218l-381 1489h203l300 -1238l298 1238h201l301 -1250l298 1250h194zM1026 -382h-214v195h214v-195z"/>
<glyph glyph-name="uni1E89" horiz-adv-x="1520" unicode="ẉ" d="M1490 1117l-283 -1117h-174l-273 861l-271 -861h-173l-286 1117h196l197 -865l265 865h155l272 -865l186 865h189zM866 -382h-214v195h214v-195z"/>
<glyph glyph-name="uni1E8A" horiz-adv-x="1189" unicode="Ẋ" d="M1181 0h-227l-363 596l-369 -596h-214l473 745l-459 744h226l356 -585l361 585h215l-466 -734zM726 1677h-214v195h214v-195z"/>
<glyph glyph-name="uni1E8B" horiz-adv-x="1014" unicode="ẋ" d="M1004 0h-231l-271 422l-279 -422h-213l388 554l-384 563h231l269 -418l276 418h214l-386 -550zM646 1304h-214v195h214v-195z"/>
<glyph glyph-name="uni1E8C" horiz-adv-x="1189" unicode="Ẍ" d="M1181 0h-227l-363 596l-369 -596h-214l473 745l-459 744h226l356 -585l361 585h215l-466 -734zM514 1677h-201v195h201v-195zM927 1677h-201v195h201v-195z"/>
<glyph glyph-name="uni1E8D" horiz-adv-x="1014" unicode="ẍ" d="M1004 0h-231l-271 422l-279 -422h-213l388 554l-384 563h231l269 -418l276 418h214l-386 -550zM434 1304h-201v195h201v-195zM847 1304h-201v195h201v-195z"/>
<glyph glyph-name="uni1E8E" horiz-adv-x="1180" unicode="Ẏ" d="M1193 1489l-503 -830v-659h-198v638l-503 851h220l384 -657l390 657h210zM726 1677h-214v195h214v-195z"/>
<glyph glyph-name="uni1E8F" horiz-adv-x="1020" unicode="ẏ" d="M1014 1117l-601 -1529h-201l200 466l-406 1063h203l305 -827l304 827h196zM646 1304h-214v195h214v-195z"/>
<glyph glyph-name="uni1E90" horiz-adv-x="1145" unicode="Ẑ" d="M1100 0h-1040v184l797 1129h-761v176h984v-179l-806 -1134h826v-176zM951 1670h-159l-185 256l-184 -256h-155l228 379h227z"/>
<glyph glyph-name="uni1E91" horiz-adv-x="910" unicode="ẑ" d="M870 0h-821v139l584 823h-560v155h786v-134l-587 -826h598v-157zM821 1297h-159l-185 256l-184 -256h-155l228 379h227z"/>
<glyph glyph-name="uni1E92" horiz-adv-x="1145" unicode="Ẓ" d="M1100 0h-1040v184l797 1129h-761v176h984v-179l-806 -1134h826v-176zM716 -382h-214v195h214v-195z"/>
<glyph glyph-name="uni1E93" horiz-adv-x="910" unicode="ẓ" d="M870 0h-821v139l584 823h-560v155h786v-134l-587 -826h598v-157zM566 -382h-214v195h214v-195z"/>
<glyph glyph-name="uni1E94" horiz-adv-x="1145" unicode="Ẕ" d="M1100 0h-1040v184l797 1129h-761v176h984v-179l-806 -1134h826v-176zM956 -353h-754v154h754v-154z"/>
<glyph glyph-name="uni1E95" horiz-adv-x="910" unicode="ẕ" d="M870 0h-821v139l584 823h-560v155h786v-134l-587 -826h598v-157zM836 -353h-754v154h754v-154z"/>
<glyph glyph-name="uni1E96" horiz-adv-x="1142" unicode="ẖ" d="M1014 0h-188v636q0 77 -7.5 143.5t-28.5 106.5q-23 42 -64 62.5t-112 20.5q-70 0 -144.5 -37.5t-145.5 -97.5v-834h-188v1556h188v-563q84 75 166 115t173 40q165 0 258 -108.5t93 -314.5v-725zM936 -353h-754v154h754v-154z"/>
<glyph glyph-name="uni1E97" horiz-adv-x="685" unicode="ẗ" d="M474 -22q-154 0 -240 87.5t-86 276.5v619h-127v156h127v321h188v-321h346v-156h-346v-531q0 -85 3 -131t23 -86q17 -35 55 -52.5t103 -17.5q46 0 89 13.5t62 22.5h11v-169q-53 -15 -107.5 -23.5t-100.5 -8.5zM154 1677h-201v195h201v-195zM567 1677h-201v195h201v-195z "/>
<glyph glyph-name="uni1E98" horiz-adv-x="1520" unicode="ẘ" d="M1490 1117l-283 -1117h-174l-273 861l-271 -861h-173l-286 1117h196l197 -865l265 865h155l272 -865l186 865h189zM928 1520q0 74 -44.5 123.5t-114.5 49.5q-69 0 -114 -50t-45 -123t44.5 -122t114.5 -49t114.5 49.5t44.5 121.5zM1075 1521q0 -129 -88.5 -215t-217.5 -86 q-128 0 -217 86.5t-89 214.5t89 214.5t217 86.5q129 0 217.5 -86t88.5 -215z"/>
<glyph glyph-name="uni1E99" horiz-adv-x="1020" unicode="ẙ" d="M1014 1117l-601 -1529h-201l200 466l-406 1063h203l305 -827l304 827h196zM678 1520q0 74 -44.5 123.5t-114.5 49.5q-69 0 -114 -50t-45 -123t44.5 -122t114.5 -49t114.5 49.5t44.5 121.5zM825 1521q0 -129 -88.5 -215t-217.5 -86q-128 0 -217 86.5t-89 214.5t89 214.5 t217 86.5q129 0 217.5 -86t88.5 -215z"/>
<glyph glyph-name="uni1E9A" horiz-adv-x="1075" unicode="ẚ" d="M760 275v310q-85 -7 -169 -15q-99 -11 -166 -31q-173 -53 -173 -203q0 -194 212 -194q146 0 296 133zM947 0h-187v119q-14 -11 -32 -25l-10 -7q-58 -45 -94 -64q-106 -54 -227 -54q-142 0 -240.5 99.5t-98.5 255.5q0 234 204 327q142 65 498 84v36q0 122 -76 169 q-61 38 -195 38q-148 0 -329 -76h-11v191q177 51 341 51q225 0 336 -83q121 -91 121 -297v-764zM715 1581q0 -130 -88 -215.5t-218 -85.5v129q71 0 116 51q43 48 43 120q0 73 -43.5 123t-115.5 50v129q130 0 218 -85.5t88 -215.5z"/>
<glyph glyph-name="uni1E9B" horiz-adv-x="520" unicode="ẛ" d="M708 1376h-10q-25 9 -72 17.5t-84 8.5q-117 0 -165.5 -55.5t-48.5 -184.5v-1162h-188v1152q0 209 101 311.5t274 102.5q52 0 102 -5.5t91 -12.5v-172zM546 1677h-214v195h214v-195z"/>
<glyph glyph-name="Ygrave" horiz-adv-x="1180" unicode="Ỳ" d="M1193 1489l-503 -830v-659h-198v638l-503 851h220l384 -657l390 657h210zM734 1675h-149l-273 374h243z"/>
<glyph glyph-name="ygrave" horiz-adv-x="1020" unicode="ỳ" d="M1014 1117l-601 -1529h-201l200 466l-406 1063h203l305 -827l304 827h196zM663 1302h-149l-273 374h243z"/>
<glyph glyph-name="Ydotbelow" horiz-adv-x="1180" unicode="Ỵ" d="M1193 1489l-503 -830v-659h-198v638l-503 851h220l384 -657l390 657h210zM698 -382h-214v195h214v-195z"/>
<glyph glyph-name="ydotbelow" horiz-adv-x="1020" unicode="ỵ" d="M1014 1117l-601 -1529h-201l200 466l-406 1063h203l305 -827l304 827h196zM896 -382h-214v195h214v-195z"/>
<glyph glyph-name="Yhookabove" horiz-adv-x="1180" unicode="Ỷ" d="M1193 1489l-503 -830v-659h-198v638l-503 851h220l384 -657l390 657h210zM775 1901q0 -64 -33 -103t-99 -60v-68h-110v121q47 12 71 31.5t24 58.5q0 24 -19 43.5t-52 19.5q-31 0 -49.5 -4.5t-42.5 -13.5h-3v105q19 6 55.5 12t74.5 6q81 0 132 -43t51 -105z"/>
<glyph glyph-name="yhookabove" horiz-adv-x="1020" unicode="ỷ" d="M1014 1117l-601 -1529h-201l200 466l-406 1063h203l305 -827l304 827h196zM704 1528q0 -64 -33 -103t-99 -60v-68h-110v121q47 12 71 31.5t24 58.5q0 24 -19 43.5t-52 19.5q-31 0 -49.5 -4.5t-42.5 -13.5h-3v105q19 6 55.5 12t74.5 6q81 0 132 -43t51 -105z"/>
<glyph glyph-name="Ytilde" horiz-adv-x="1180" unicode="Ỹ" d="M1193 1489l-503 -830v-659h-198v638l-503 851h220l384 -657l390 657h210zM993 2005q-10 -156 -74.5 -234t-171.5 -78q-52 0 -96 19t-86 59q-44 41 -76 62.5t-63 21.5q-49 0 -68.5 -45t-23.5 -121h-140q7 154 76 232.5t169 78.5q51 0 94 -19.5t86 -57.5q43 -39 77.5 -59.5 t63.5 -20.5q47 0 68.5 45t24.5 117h140z"/>
<glyph glyph-name="ytilde" horiz-adv-x="1020" unicode="ỹ" d="M1014 1117l-601 -1529h-201l200 466l-406 1063h203l305 -827l304 827h196zM922 1632q-10 -156 -74.5 -234t-171.5 -78q-52 0 -96 19t-86 59q-44 41 -76 62.5t-63 21.5q-49 0 -68.5 -45t-23.5 -121h-140q7 154 76 232.5t169 78.5q51 0 94 -19.5t86 -57.5 q43 -39 77.5 -59.5t63.5 -20.5q47 0 68.5 45t24.5 117h140z"/>
<glyph glyph-name="endash" horiz-adv-x="1118" unicode="–" d="M1122 572h-1126v160h1126v-160z"/>
<glyph glyph-name="emdash" horiz-adv-x="1862" unicode="—" d="M1866 572h-1870v160h1870v-160z"/>
<glyph glyph-name="quoteleft" horiz-adv-x="432" unicode="‘" d="M335 997h-138l-261 559h242z"/>
<glyph glyph-name="quoteright" horiz-adv-x="432" unicode="’" d="M496 1556l-261 -559h-138l157 559h242z"/>
<glyph glyph-name="quotesinglbase" horiz-adv-x="432" unicode="‚" d="M386 283l-261 -559h-138l157 559h242z"/>
<glyph glyph-name="quotedblleft" horiz-adv-x="822" unicode="“" d="M331 997h-134l-261 559h238zM725 997h-134l-261 559h238z"/>
<glyph glyph-name="quotedblright" horiz-adv-x="822" unicode="”" d="M502 1556l-261 -559h-134l157 559h238zM896 1556l-261 -559h-134l157 559h238z"/>
<glyph glyph-name="quotedblbase" horiz-adv-x="814" unicode="„" d="M387 283l-261 -559h-134l157 559h238zM781 283l-261 -559h-134l157 559h238z"/>
<glyph glyph-name="bullet" horiz-adv-x="931" unicode="•" d="M817 662q0 -145 -103.5 -248t-248.5 -103t-248 103t-103 248t103 248t248 103t248.5 -103t103.5 -248z"/>
<glyph glyph-name="guilsinglleft" horiz-adv-x="784" unicode="‹" d="M633 172l-510 436v89l510 435v-199l-331 -281l331 -281v-199z"/>
<glyph glyph-name="guilsinglright" horiz-adv-x="784" unicode="›" d="M661 608l-510 -436v199l331 281l-331 281v199l510 -435v-89z"/>
<glyph glyph-name="fraction" horiz-adv-x="886" unicode="⁄" d="M916 1489l-780 -1489h-165l780 1489h165z"/>
<glyph glyph-name="fraction" horiz-adv-x="886" unicode="∕" d="M916 1489l-780 -1489h-165l780 1489h165z"/>
<glyph glyph-name="nsuperior" horiz-adv-x="1010" unicode="ⁿ" d="M890 566h-172v522q0 71 -4 122t-23 88q-18 36 -54 53t-96 17q-63 0 -123.5 -32.5t-121.5 -81.5v-688h-171v922h171v-100q73 63 141 97t149 34q145 0 224.5 -90.5t79.5 -265.5v-597z"/>
<glyph glyph-name="uni20A0" horiz-adv-x="1181" unicode="₠" d="M1131 0h-633v496q-225 2 -342 148q-106 132 -106 356q0 229 114 367q121 149 341 149q157 0 313 -86v-162h-11q-144 133 -303 133q-160 0 -243 -128q-71 -108 -71 -273q0 -162 72 -265q82 -116 236 -119v397h633v-120h-499v-277h465v-120h-465v-376h499v-120z"/>
<glyph glyph-name="uni20A1" horiz-adv-x="1230" unicode="₡" d="M619 1333q-176 -45 -268 -225q-79 -155 -79 -365q0 -184 63 -327zM950 1306q-74 30 -156 38l-341 -1097q63 -57 145 -83zM1218 1616l-63 -204q13 -7 41 -22v-239h-16q-46 43 -84 71l-335 -1077q239 11 420 192h15v-236q-144 -68 -225 -93q-115 -35 -238 -35h-25l-31 -100 h-169l38 122q-84 21 -153 60l-56 -182h-169l90 290q-192 209 -192 580q0 321 152 527q163 222 456 244l32 102h172l-33 -107q82 -10 157 -34l44 141h172z"/>
<glyph glyph-name="uni20A2" horiz-adv-x="1230" unicode="₢" d="M1196 101q-144 -68 -225 -93q-115 -35 -238 -35q-332 0 -509 230q-158 205 -158 540q0 338 168 547q180 226 502 226q231 0 460 -126v-239h-16q-212 196 -446 196t-358 -195q-104 -164 -104 -409q0 -205 78 -358q89 -174 254 -223v695h188v-166q188 166 328 166 q40 0 76 -6v-196h-10q-31 9 -101 9q-158 0 -293 -131v-386q221 22 389 190h15v-236z"/>
<glyph glyph-name="franc" horiz-adv-x="1118" unicode="₣" d="M1043 1313h-633v-420h604v-176h-604v-270h317v-139h-317v-308h-198v308h-178v139h178v1042h831v-176z"/>
<glyph glyph-name="afii08941" horiz-adv-x="1118" unicode="₤" d="M1031 0h-942v207q90 27 139.5 91.5t62.5 187.5h-161v134h163v140h-163v134h161v177q0 201 116 324t301 123q97 0 166 -15.5t127 -32.5v-206h-10q-38 25 -107 56t-157 31q-123 0 -183.5 -77t-60.5 -222v-158h364v-134h-366v-140h366v-134h-369q-15 -111 -74 -183 t-143 -121v-11h770v-171z"/>
<glyph glyph-name="uni20A5" horiz-adv-x="1720" unicode="₥" d="M1592 0h-188v646q0 165 -20 220q-38 103 -168 103q-65 0 -140 -44l-118 -270v-655h-188v225l-186 -425h-169l355 815v31q0 165 -20 220q-38 103 -168 103q-114 0 -258 -135v-834h-188v1117h188v-124q155 155 306 155q214 0 290 -188l169 388h172l-93 -214q47 14 96 14 q328 0 328 -413v-735z"/>
<glyph glyph-name="uni20A6" horiz-adv-x="1367" unicode="₦" d="M649 673l-73 143h-240v-143h313zM1031 310v220h-112zM503 959l-167 325v-325h167zM1031 673v143h-257l73 -143h184zM1367 530h-151v-530h-222l-272 530h-386v-530h-185v530h-151v143h151v143h-151v143h151v530h281l269 -530h330v530h185v-530h151v-143h-151v-143h151 v-143z"/>
<glyph glyph-name="peseta" horiz-adv-x="1954" unicode="₧" d="M739 1088q0 62 -21 109t-63 76q-38 26 -91.5 36t-121.5 10h-87v-486h63q89 0 152 15.5t102 56.5q36 38 51.5 81t15.5 102zM1847 274q0 -57 -21.5 -112t-63.5 -95q-46 -43 -106 -66.5t-154 -23.5q-102 0 -176.5 24.5t-123.5 52.5v187h14q62 -54 135 -86.5t143 -32.5 q81 0 126.5 30t45.5 106q0 50 -27.5 79t-102.5 49q-28 8 -61.5 18.5t-72.5 23.5q-101 33 -145 98.5t-44 158.5q0 25 4.5 44.5t9.5 37.5h-196v-767h-177v843q-62 -82 -157.5 -129.5t-245.5 -47.5h-96v-666h-188v1489h291q111 0 192 -21t136 -62q62 -44 101 -112.5t45 -166.5 h99v-207h303q35 24 89.5 39.5t111.5 15.5q70 0 144.5 -18t121.5 -45v-180h-15q-58 50 -116.5 74.5t-120.5 24.5q-70 0 -113.5 -36t-43.5 -94q0 -56 29.5 -83t88.5 -45q26 -8 58.5 -18.5t75.5 -23.5q96 -29 149.5 -92t53.5 -165z"/>
<glyph glyph-name="uni20A8" horiz-adv-x="2332" unicode="₨" d="M876 1070q0 65 -23 115.5t-71 82.5q-42 28 -98 39.5t-139 11.5h-196v-562h174q85 0 153 15t116 62q43 42 63.5 100t20.5 136zM1304 0h-257l-472 592h-226v-592h-198v1489h384q128 0 214.5 -14t164.5 -65q78 -50 123.5 -129t45.5 -196q0 -164 -83 -274t-226 -163z M2079 567q0 191 -61 296.5t-198 105.5q-80 0 -154.5 -35.5t-141.5 -91.5v-633q74 -36 126.5 -49t120.5 -13q146 0 227 107t81 313zM2273 588q0 -279 -133.5 -444.5t-337.5 -165.5q-83 0 -147 19t-131 59v-468h-188v1529h188v-117q70 63 155.5 105.5t186.5 42.5 q192 0 299.5 -152t107.5 -408z"/>
<glyph glyph-name="uni20A9" horiz-adv-x="1847" unicode="₩" d="M596 530h-135l68 -279zM665 816h-273l35 -143h204zM1059 673l-35 143h-204l-34 -143h273zM1398 530h-139l70 -291zM989 959l-68 277l-66 -277h134zM1467 816h-277l34 -143h208zM1847 530h-267l-133 -530h-223l-130 530h-342l-127 -530h-218l-136 530h-271v143h235 l-37 143h-198v143h162l-136 530h203l128 -530h342l128 530h201l128 -530h345l126 530h194l-133 -530h159v-143h-195l-36 -143h231v-143z"/>
<glyph glyph-name="newsheqelsign" horiz-adv-x="1710" unicode="₪" d="M1150 500h-173v313q0 63 -12.5 109.5t-45.5 80.5q-31 33 -87 50t-135 17h-373v-1070h-173v1266h550q111 0 195 -23.5t140 -75.5q58 -54 86 -140.5t28 -207.5v-319zM1563 447q0 -126 -29 -211t-85 -137q-57 -53 -140.5 -76t-194.5 -23h-550v766h173v-570h373 q82 0 136.5 17t85.5 50q33 35 45.5 79.5t12.5 110.5v813h173v-819z"/>
<glyph glyph-name="dong" horiz-adv-x="1174" unicode="₫" d="M956 -323h-754v134h754v-134zM808 272v644q-70 34 -125.5 47t-120.5 13q-145 0 -227 -108.5t-82 -313.5q0 -197 63 -301.5t202 -104.5q74 0 149 33.5t141 90.5zM996 0h-188v114q-44 -37 -76 -61t-75 -44q-40 -19 -83 -29.5t-100 -10.5q-91 0 -168.5 38t-131.5 111 q-55 74 -85 182.5t-30 249.5q0 147 38 254.5t105 187.5q61 73 147.5 114.5t181.5 41.5q84 0 146 -18.5t131 -57.5v196h-301v134h301v154h188v-154h166v-134h-166v-1268z"/>
<glyph glyph-name="Euro" horiz-adv-x="1118" unicode="€" d="M945 662l-27 -138h-620q44 -170 146 -268q116 -112 290 -112q187 0 324 92h14v-193q-170 -70 -339 -70q-274 0 -444 158q-154 143 -203 393h-114l28 138h69q-3 40 -3 81q0 29 1 57h-95l28 138h83q46 262 207 414q174 164 446 164q178 0 336 -71v-195h-16q-141 97 -322 97 q-184 0 -302 -123q-101 -106 -140 -286h709l-27 -138h-700q-2 -28 -2 -57q0 -41 3 -81h670z"/>
<glyph glyph-name="uni20AD" horiz-adv-x="1204" unicode="₭" d="M1200 0h-241l-610 673v-673h-198v673h-151v143h151v673h198v-673l610 673h241l-630 -673h630v-143h-629z"/>
<glyph glyph-name="uni20AE" horiz-adv-x="1196" unicode="₮" d="M1197 1313h-500v-339l250 196v-161l-250 -196v-160l250 196v-161l-250 -196v-492h-198v337l-249 -195v161l249 195v160l-249 -195v161l249 195v494h-500v176h1198v-176z"/>
<glyph glyph-name="uni20AF" horiz-adv-x="2048" unicode="₯" d="M361 247q-66 44 -130 44q-42 0 -74 -28q-36 -30 -36 -79q0 -100 113 -100q72 0 103 69q8 17 24 94zM1262 872q0 253 -71 380q-87 156 -301 170q-60 -87 -128 -289q-39 -116 -111 -445q-63 -294 -124 -439l122 -98q82 -56 164 -56q232 0 354 279q95 216 95 498zM1872 273 q0 78 -41 136q-44 64 -116 64q-73 0 -122 -64q-46 -59 -46 -136q0 -75 49 -136q51 -64 119 -64q67 0 113 64q44 60 44 136zM1461 881q0 -413 -176 -651q-171 -230 -452 -230q-113 0 -217 71q-65 54 -130 107q-91 -178 -252 -178q-193 0 -193 184q0 75 55 129.5t135 54.5 t141 -38q31 170 60 312q70 342 117 488q58 182 150 292q-285 -16 -427 -96l-19 60q60 30 132 52q175 52 387 53q71 77 287 227l50 -28q-66 -66 -172 -199q524 -37 524 -610zM2021 287q0 -142 -94 -221q-84 -70 -214 -70q-108 0 -194 77l-75 -352q-12 -57 -49 -127h-198 q22 37 58 135l128 546q27 115 108 194q95 93 232 93q131 0 214.5 -76.5t83.5 -198.5z"/>
<glyph glyph-name="uniF71C" horiz-adv-x="432" unicode="" d="M107 -423l137 269h242l-241 -269h-138z"/>
<glyph glyph-name="dotbelowcomb" d="M666 -382h-214v195h214v-195z"/>
<glyph glyph-name="glyph598" d="M742 1528q0 -64 -33 -103t-99 -60v-68h-110v121q47 12 71 31.5t24 58.5q0 24 -19 43.5t-52 19.5q-31 0 -49.5 -4.5t-42.5 -13.5h-3v105q19 6 55.5 12t74.5 6q81 0 132 -43t51 -105z" horiz-adv-x="1118"/>
<glyph glyph-name="glyph1551" d="M936 1608h-754v124h754v-124zM641 1833h-129l-198 216h223z" horiz-adv-x="1118"/>
<glyph glyph-name="glyph1552" d="M936 1335h-754v154h754v-154zM641 1560h-129l-198 216h223z" horiz-adv-x="1118"/>
<glyph glyph-name="glyph1553" d="M936 1608h-754v124h754v-124zM781 2049l-198 -216h-129l104 216h223z" horiz-adv-x="1118"/>
<glyph glyph-name="glyph1554" d="M936 1335h-754v154h754v-154zM781 1776l-198 -216h-129l104 216h223z" horiz-adv-x="1118"/>
<glyph glyph-name="glyph1555" d="M454 1608h-201v185h201v-185zM867 1608h-201v185h201v-185zM821 2049l-198 -216h-129l104 216h223z" horiz-adv-x="1118"/>
<glyph glyph-name="glyph1556" d="M454 1335h-201v195h201v-195zM867 1335h-201v195h201v-195zM821 1776l-198 -216h-129l104 216h223z" horiz-adv-x="1118"/>
<glyph glyph-name="glyph1557" d="M889 1797q-11 -81 -67 -135t-136 -54q-59 0 -139 38.5t-108 38.5q-65 0 -75 -77h-134q10 81 66.5 135t136.5 54q57 0 138 -38.5t109 -38.5q66 0 75 77h134zM821 2049l-198 -216h-129l104 216h223z" horiz-adv-x="1118"/>
<glyph glyph-name="glyph1558" d="M960 1632q-20 -312 -246 -312q-99 0 -182 78q-89 84 -139 84q-83 0 -92 -166h-140q6 129 60 211q65 100 185 100q94 0 180 -77q89 -80 141 -80q86 0 93 162h140zM821 1916l-198 -216h-129l104 216h223z" horiz-adv-x="1118"/>
<glyph glyph-name="glyph1559" d="M889 1797q-11 -81 -67 -135t-136 -54q-59 0 -139 38.5t-108 38.5q-65 0 -75 -77h-134q10 81 66.5 135t136.5 54q57 0 138 -38.5t109 -38.5q66 0 75 77h134zM454 1864h-201v185h201v-185zM867 1864h-201v185h201v-185z" horiz-adv-x="1118"/>
<glyph glyph-name="glyph1560" d="M960 1632q-20 -312 -246 -312q-99 0 -182 78q-89 84 -139 84q-83 0 -92 -166h-140q6 129 60 211q65 100 185 100q94 0 180 -77q89 -80 141 -80q86 0 93 162h140zM454 1721h-201v195h201v-195zM867 1721h-201v195h201v-195z" horiz-adv-x="1118"/>
<glyph glyph-name="glyph1561" d="M801 1824l-198 -216h-129l104 216h223zM666 1874h-214v175h214v-175z" horiz-adv-x="1118"/>
<glyph glyph-name="glyph1562" d="M871 1676l-273 -374h-149l179 374h243zM666 1771h-214v195h214v-195z" horiz-adv-x="1118"/>
<glyph glyph-name="glyph1563" d="M901 1793l-248 -173h-187l-248 173h165l174 -89l175 89h169zM666 1874h-214v175h214v-175z" horiz-adv-x="1118"/>
<glyph glyph-name="glyph1564" d="M901 1676l-228 -379h-227l-228 379h155l184 -256l185 256h159zM666 1771h-214v195h214v-195z" horiz-adv-x="1118"/>
<glyph glyph-name="glyph1565" d="M936 1608h-754v124h754v-124zM454 1864h-201v185h201v-185zM867 1864h-201v185h201v-185z" horiz-adv-x="1118"/>
<glyph glyph-name="glyph1566" d="M936 1335h-754v154h754v-154zM454 1671h-201v195h201v-195zM867 1671h-201v195h201v-195z" horiz-adv-x="1118"/>
<glyph glyph-name="glyph1569" d="M653 -246q0 43 -26 73t-68 30t-68 -30t-26 -73t26 -72t68 -29t68 29.5t26 71.5zM740 -245q0 -77 -52 -127.5t-129 -50.5q-76 0 -128.5 51t-52.5 127t52.5 127t128.5 51q77 0 129 -50.5t52 -127.5z" horiz-adv-x="1118"/>
</font>
</defs>
</svg>
